<svg width="214" height="36" viewBox="0 0 214 36" fill="none" xmlns="http://www.w3.org/2000/svg">
<path d="M12.8325 0.985229H19.2668L32.0406 35.5073H25.3225L23.1084 29.2168H8.99086L6.77672 35.5073H0.0585938L12.8325 0.985229ZM11.1672 23.1726H20.9321L16.0685 9.4547L11.1672 23.1726Z" fill="#002368"/>
<path d="M33.498 18.2653C33.498 8.18526 40.9921 0.530518 50.8138 0.530518C57.3048 0.530518 62.8118 3.97894 65.8207 9.13262L60.0867 12.8274C58.2889 9.2842 55.0907 7.04841 50.8705 7.04841C44.6634 7.04841 40.1215 12.0126 40.1215 18.2653C40.1215 24.5179 44.6066 29.3874 50.7759 29.3874C55.4124 29.3874 58.7052 26.7347 60.3705 23.0021L66.3506 26.261C63.4741 32.021 57.9293 36 50.8327 36C40.6514 36 33.517 28.061 33.517 18.2653H33.498Z" fill="#002368"/>
<path d="M81.0923 0.985229H87.5265L100.3 35.5073H93.5823L91.3681 29.2168H77.2506L75.0365 35.5073H68.3184L81.0923 0.985229ZM79.4269 23.1726H89.1919L84.3283 9.4547L79.4269 23.1726Z" fill="#002368"/>
<path d="M104.861 0.985229H111.201L121.25 15.2147L131.677 0.985229H137.752V35.5073H131.355V11.3115L121.212 25.2189L111.352 11.5579V35.5452H104.861V0.985229Z" fill="#002368"/>
<path d="M141.953 28.8947L147.649 24.2526C149.863 27.8526 152.891 29.6905 156.922 29.6905C160.575 29.6905 162.486 27.8905 162.486 25.3894C162.486 22.1684 159.25 21.5052 154.557 20.4252C149.504 19.3452 143.864 17.6778 143.864 10.6863C143.864 5.00205 148.823 0.473633 155.862 0.473633C161.843 0.473633 165.59 2.59574 169.015 6.47995L163.697 10.7431C161.937 8.09048 159.666 6.44205 155.768 6.44205C152.115 6.44205 150.526 8.27995 150.526 10.5536C150.526 13.3389 153.913 13.8694 158.114 14.8547C163.3 15.9915 169.28 17.6968 169.28 25.1621C169.28 31.0736 164.416 36 156.865 36C149.315 36 145.151 33.0631 141.953 28.8947Z" fill="#002368"/>
<path d="M189.737 18L177.645 0H201.849L189.737 18Z" fill="#002368"/>
<path d="M189.737 18L177.645 36H201.849L189.737 18Z" fill="#18EAC2"/>
<path d="M201.829 0L189.736 18H213.94L201.829 0Z" fill="#008C8C"/>
<path d="M201.829 36L189.736 18H213.94L201.829 36Z" fill="#25BECE"/>
<path d="M207.771 33.5747H206.977V33.0442H209.077V33.5747H208.301V36H207.771V33.5747Z" fill="#002368"/>
<path d="M209.607 33.0442H210.137L210.969 34.2568L211.84 33.0442H212.351V36H211.821V33.9347L210.969 35.1284L210.137 33.9537V36H209.588V33.0442H209.607Z" fill="#002368"/>
</svg>
