<svg width="172" height="32" viewBox="0 0 172 32" fill="none" xmlns="http://www.w3.org/2000/svg">
<path d="M12.3034 21.1866H4.61658V28.9185H0V14.5608C0 13.3757 0.451499 12.3372 1.34321 11.4455C2.24621 10.5538 3.28466 10.1023 4.46984 10.1023H12.3034V13.1838H6.11781C5.71146 13.1838 5.35026 13.3305 5.05679 13.624C4.76332 13.9175 4.61658 14.2674 4.61658 14.6737V18.1164H12.3034V21.1979V21.1866Z" fill="white"/>
<path d="M20.0009 28.9185H15.3843V13.5337H20.0009V28.9185Z" fill="white"/>
<path d="M38.4566 28.9185H33.84V18.1051C33.84 17.7101 33.6933 17.3601 33.3998 17.0554C33.1063 16.7619 32.7564 16.6039 32.3501 16.6039H27.6884V28.9072H23.0718V13.5224H33.9981C35.1832 13.5224 36.233 13.9626 37.1247 14.8656C38.0164 15.7573 38.4679 16.7958 38.4679 17.9922V28.9185H38.4566Z" fill="white"/>
<path d="M56.9112 27.5076C56.9112 28.7041 56.4597 29.7538 55.568 30.6568C54.6763 31.5598 53.6265 32 52.4188 32H42.4068V28.9185H50.8047C51.1997 28.9185 51.5496 28.7718 51.8544 28.467C52.1479 28.1623 52.3059 27.8123 52.3059 27.4173V25.8483H46.0414C44.8449 25.8483 43.7839 25.3968 42.8809 24.4938C41.9779 23.5908 41.5264 22.5411 41.5264 21.3559V18.0374C41.5264 16.8296 41.9779 15.7799 42.8696 14.8882C43.7726 13.9965 44.8223 13.545 46.0301 13.545H56.8999V27.5076H56.9112ZM52.3059 22.7668V16.6152H47.6555C47.2491 16.6152 46.8879 16.7619 46.5944 17.0554C46.301 17.3488 46.1542 17.6988 46.1542 18.1051V21.2543C46.1542 21.6494 46.301 22.0106 46.6057 22.3041C46.9105 22.6088 47.2604 22.7556 47.6555 22.7556H52.3059V22.7668Z" fill="white"/>
<path d="M75.3779 28.9185H64.4742C63.2778 28.9185 62.2393 28.467 61.3476 27.5753C60.4559 26.6836 60.0044 25.6339 60.0044 24.4487V18.0374C60.0044 16.8296 60.4559 15.7799 61.3476 14.8882C62.2393 13.9965 63.3003 13.545 64.5081 13.545H70.8968C72.1046 13.545 73.1543 13.9852 74.046 14.8882C74.9377 15.7799 75.3892 16.8296 75.3892 18.0374V18.2857C75.3892 19.4935 74.949 20.5432 74.0573 21.4349C73.1656 22.3266 72.1159 22.7781 70.8968 22.7781H64.621V24.3471C64.621 24.7421 64.7677 25.1033 65.0725 25.3968C65.3772 25.7016 65.7271 25.8483 66.1222 25.8483H75.3779V28.9298V28.9185ZM70.7614 18.1503C70.7614 17.7326 70.6146 17.3714 70.3324 17.0667C70.0503 16.7619 69.6891 16.6152 69.2714 16.6152H66.1222C65.7159 16.6152 65.3547 16.7619 65.0612 17.0554C64.7564 17.3488 64.6097 17.6988 64.6097 18.1051V19.6854H69.2714C69.6891 19.6854 70.0503 19.5386 70.3324 19.2339C70.6259 18.9291 70.7614 18.5679 70.7614 18.1503Z" fill="white"/>
<path d="M90.7628 16.6152H84.5773C84.1709 16.6152 83.8097 16.7619 83.5163 17.0554C83.2228 17.3489 83.076 17.6988 83.076 18.1051V28.9185H78.4595V17.9922C78.4595 16.8183 78.911 15.7799 79.814 14.8769C80.717 13.9739 81.7554 13.5337 82.9406 13.5337H90.7741V16.6039L90.7628 16.6152Z" fill="white"/>
<path d="M77.3528 15.9153C76.6869 12.1227 79.3959 7.67548 84.1253 5.29382C86.7553 3.9619 89.532 3.52168 91.9362 3.8716C91.3606 6.41128 90.5479 8.90581 89.453 11.2649C89.453 11.2649 81.3486 7.91251 77.3528 15.9266V15.9153Z" fill="white"/>
<path d="M77.8833 10.9714C77.1496 8.46561 77.2738 5.66631 79.2491 2.74286C80.2763 1.21905 81.9242 0.395062 83.3916 0C83.6851 1.60282 83.6738 2.32522 83.7867 3.93933C83.7867 3.93933 79.4071 5.20353 77.8946 10.9714H77.8833Z" fill="white"/>
<path d="M97.0273 26.4466L95.8646 29.3362H93.3701L98.7881 16.6039H101.192L106.633 29.3362H104.082L102.919 26.4466H97.0273ZM99.9959 19.1436L97.8174 24.4938H102.14L99.9959 19.1436ZM118.62 21.0737L114.76 27.9252H113.665L109.805 21.2205V29.3474H107.536V16.6152H109.534L114.241 24.9115L118.88 16.6152H120.878L120.9 29.3474H118.631L118.609 21.0737H118.62ZM125.923 16.6152V27.248H132.143V29.3362H123.485V16.6039H125.923V16.6152ZM147.731 29.3474H145.293V23.9633H139.31V29.3474H136.872V16.6152H139.31V21.7961H145.293V16.6152H147.731V29.3474ZM159.199 29.3474H156.975V28.0042C156.636 28.4783 156.208 28.8395 155.688 29.0991C155.169 29.3587 154.605 29.4829 153.984 29.4829C152.776 29.4829 151.817 29.1217 151.106 28.388C150.406 27.6656 150.056 26.582 150.056 25.1485V19.6176H152.404V24.7986C152.404 25.6452 152.584 26.2885 152.945 26.7062C153.307 27.1238 153.815 27.3383 154.481 27.3383C155.203 27.3383 155.79 27.09 156.219 26.6046C156.648 26.1079 156.862 25.4081 156.862 24.4825V19.6064H159.187V29.3362L159.199 29.3474ZM169.177 20.103C169.877 20.5206 170.418 21.0963 170.825 21.8526C171.22 22.6088 171.423 23.478 171.423 24.46C171.423 25.442 171.22 26.3337 170.825 27.09C170.43 27.8462 169.877 28.4332 169.177 28.8395C168.477 29.2571 167.698 29.4603 166.84 29.4603C166.174 29.4603 165.576 29.3362 165.057 29.0766C164.538 28.8169 164.109 28.4557 163.77 27.9704V29.3362H161.513V15.8476H163.872V20.9044C164.56 19.9563 165.554 19.4822 166.84 19.4822C167.698 19.4822 168.477 19.6854 169.177 20.103ZM168.319 26.6272C168.804 26.0854 169.053 25.3743 169.053 24.4713C169.053 23.5683 168.804 22.8572 168.319 22.3266C167.822 21.7961 167.202 21.5252 166.457 21.5252C165.712 21.5252 165.068 21.7961 164.572 22.3266C164.086 22.8572 163.838 23.5795 163.838 24.4713C163.838 25.363 164.086 26.0854 164.572 26.6272C165.068 27.169 165.689 27.4399 166.457 27.4399C167.224 27.4399 167.834 27.169 168.319 26.6272Z" fill="white"/>
</svg>
