<svg width="268" height="50" viewBox="0 0 268 50" fill="none" xmlns="http://www.w3.org/2000/svg">
<g clip-path="url(#clip0_326_5014)">
<path d="M19.3002 33.1039H7.28958V45.185H0.0761719V22.7512C0.0761719 20.8993 0.781639 19.2767 2.17494 17.8834C3.58587 16.4901 5.20845 15.7847 7.0603 15.7847H19.3002V20.5995H9.63525C9.00033 20.5995 8.43596 20.8288 7.97741 21.2873C7.51885 21.7459 7.28958 22.2926 7.28958 22.9275V28.3067H19.3002V33.1215V33.1039Z" fill="#545452"/>
<path d="M31.3286 45.1853H24.1152V21.1465H31.3286V45.1853Z" fill="#545452"/>
<path d="M60.1648 45.1853H52.9514V28.2894C52.9514 27.6721 52.7221 27.1254 52.2635 26.6492C51.805 26.1906 51.2583 25.9437 50.6233 25.9437H43.3394V45.1677H36.126V21.1289H53.1983C55.0501 21.1289 56.6903 21.8167 58.0836 23.2277C59.4769 24.621 60.1824 26.2435 60.1824 28.113V45.1853H60.1648Z" fill="#545452"/>
<path d="M89.0007 42.9806C89.0007 44.8501 88.2952 46.4903 86.9019 47.9013C85.5086 49.3122 83.8684 50 81.9813 50H66.3376V45.1852H79.4593C80.0765 45.1852 80.6233 44.9559 81.0995 44.4798C81.558 44.0036 81.8049 43.4568 81.8049 42.8395V40.388H72.0166C70.1471 40.388 68.4893 39.6826 67.0783 38.2716C65.6674 36.8607 64.9619 35.2205 64.9619 33.3686V28.1835C64.9619 26.2963 65.6674 24.6561 67.0607 23.2628C68.4716 21.8695 70.1118 21.1641 71.9989 21.1641H88.9831V42.9806H89.0007ZM81.8049 35.5732V25.9612H74.5386C73.9037 25.9612 73.3393 26.1905 72.8808 26.6491C72.4222 27.1076 72.193 27.6544 72.193 28.2893V33.2099C72.193 33.8272 72.4222 34.3916 72.8984 34.8501C73.3746 35.3263 73.9214 35.5556 74.5386 35.5556H81.8049V35.5732Z" fill="#545452"/>
<path d="M117.854 45.1852H100.817C98.9476 45.1852 97.3251 44.4798 95.9318 43.0865C94.5385 41.6932 93.833 40.053 93.833 38.2011V28.1835C93.833 26.2963 94.5385 24.6561 95.9318 23.2628C97.3251 21.8695 98.9829 21.1641 100.87 21.1641H110.852C112.74 21.1641 114.38 21.8519 115.773 23.2628C117.166 24.6561 117.872 26.2963 117.872 28.1835V28.5715C117.872 30.4586 117.184 32.0988 115.791 33.4921C114.397 34.8854 112.757 35.5909 110.852 35.5909H101.046V38.0424C101.046 38.6597 101.276 39.224 101.752 39.6826C102.228 40.1588 102.775 40.388 103.392 40.388H117.854V45.2029V45.1852ZM110.641 28.3598C110.641 27.7073 110.411 27.1429 109.971 26.6667C109.53 26.1905 108.965 25.9612 108.313 25.9612H103.392C102.757 25.9612 102.193 26.1905 101.734 26.6491C101.258 27.1076 101.029 27.6544 101.029 28.2893V30.7584H108.313C108.965 30.7584 109.53 30.5291 109.971 30.053C110.429 29.5768 110.641 29.0124 110.641 28.3598Z" fill="#545452"/>
<path d="M141.893 25.9613H132.228C131.593 25.9613 131.029 26.1906 130.57 26.6491C130.112 27.1077 129.882 27.6544 129.882 28.2893V45.1853H122.669V28.113C122.669 26.2788 123.374 24.6562 124.785 23.2453C126.196 21.8343 127.819 21.1465 129.671 21.1465H141.911V25.9437L141.893 25.9613Z" fill="#545452"/>
<path d="M120.94 24.8679C119.9 18.942 124.133 11.9931 131.522 8.27176C135.632 6.19063 139.97 5.5028 143.727 6.04954C142.827 10.0178 141.558 13.9155 139.847 17.6016C139.847 17.6016 127.184 12.3635 120.94 24.8855V24.8679Z" fill="url(#paint0_linear_326_5014)"/>
<path d="M121.77 17.1429C120.623 13.2275 120.817 8.85361 123.904 4.28571C125.509 1.90476 128.084 0.617284 130.376 0C130.835 2.50441 130.817 3.63316 130.994 6.1552C130.994 6.1552 124.151 8.13051 121.787 17.1429H121.77Z" fill="url(#paint1_linear_326_5014)"/>
<path d="M151.681 41.3226L149.865 45.8376H145.967L154.432 25.9434H158.189L166.69 45.8376H162.704L160.887 41.3226H151.681ZM156.32 29.9116L152.916 38.2714H159.67L156.32 29.9116ZM185.42 32.9275L179.388 43.633H177.678L171.646 33.1568V45.8552H168.101V25.961H171.223L178.577 38.924L185.826 25.961H188.947L188.983 45.8552H185.438L185.402 32.9275H185.42ZM196.831 25.961V42.5748H206.549V45.8376H193.021V25.9434H196.831V25.961ZM230.905 45.8552H227.096V37.4425H217.748V45.8552H213.939V25.961H217.748V34.0562H227.096V25.961H230.905V45.8552ZM248.824 45.8552H245.35V43.7564C244.82 44.4972 244.15 45.0615 243.339 45.4672C242.528 45.8728 241.646 46.0668 240.676 46.0668C238.789 46.0668 237.29 45.5025 236.178 44.3561C235.085 43.2273 234.538 41.5342 234.538 39.2943V30.6524H238.207V38.7476C238.207 40.0704 238.489 41.0757 239.053 41.7282C239.618 42.3808 240.411 42.7159 241.452 42.7159C242.581 42.7159 243.498 42.3279 244.168 41.5695C244.838 40.7935 245.173 39.7 245.173 38.2538V30.6347H248.806V45.8376L248.824 45.8552ZM264.415 31.4107C265.508 32.0633 266.355 32.9628 266.99 34.1444C267.607 35.3261 267.924 36.6841 267.924 38.2185C267.924 39.7529 267.607 41.1462 266.99 42.3279C266.372 43.5095 265.508 44.4266 264.415 45.0615C263.321 45.7141 262.104 46.0316 260.764 46.0316C259.723 46.0316 258.789 45.8376 257.977 45.4319C257.166 45.0263 256.496 44.4619 255.967 43.7035V45.8376H252.439V24.7617H256.126V32.663C257.201 31.1815 258.753 30.4407 260.764 30.4407C262.104 30.4407 263.321 30.7582 264.415 31.4107ZM263.074 41.6048C263.833 40.7582 264.221 39.6471 264.221 38.2361C264.221 36.8252 263.833 35.7141 263.074 34.8852C262.298 34.0563 261.328 33.633 260.164 33.633C259 33.633 257.995 34.0563 257.219 34.8852C256.461 35.7141 256.073 36.8428 256.073 38.2361C256.073 39.6294 256.461 40.7582 257.219 41.6048C257.995 42.4513 258.965 42.8746 260.164 42.8746C261.364 42.8746 262.316 42.4513 263.074 41.6048Z" fill="url(#paint2_linear_326_5014)"/>
</g>
<defs>
<linearGradient id="paint0_linear_326_5014" x1="140.125" y1="32.8257" x2="128.499" y2="9.7907" gradientUnits="userSpaceOnUse">
<stop stop-color="#1A4799"/>
<stop offset="0.65" stop-color="#1B84C8"/>
<stop offset="1" stop-color="#259BD8"/>
</linearGradient>
<linearGradient id="paint1_linear_326_5014" x1="123.816" y1="11.4638" x2="131.452" y2="-1.78131" gradientUnits="userSpaceOnUse">
<stop stop-color="#439035"/>
<stop offset="0.65" stop-color="#42AE39"/>
<stop offset="1" stop-color="#BCDA8C"/>
</linearGradient>
<linearGradient id="paint2_linear_326_5014" x1="267.924" y1="35.4143" x2="145.984" y2="35.4143" gradientUnits="userSpaceOnUse">
<stop stop-color="#004E9D"/>
<stop offset="0.65" stop-color="#1B84C8"/>
<stop offset="1" stop-color="#259BD8"/>
</linearGradient>
<clipPath id="clip0_326_5014">
<rect width="267.848" height="50" fill="white" transform="translate(0.0761719)"/>
</clipPath>
</defs>
</svg>
