<svg width="100" height="100" viewBox="0 0 100 100" fill="none" xmlns="http://www.w3.org/2000/svg">
<path d="M88.2595 19H11.2901C10.0253 19 9 20.0332 9 21.3077V79.5846C9 80.8591 10.0253 81.8923 11.2901 81.8923H88.2595C89.5243 81.8923 90.5496 80.8591 90.5496 79.5846V21.3077C90.5496 20.0332 89.5243 19 88.2595 19Z" fill="#002368"/>
<path d="M83.0076 25.6768H16.542V75.2152H83.0076V25.6768Z" fill="white"/>
<path d="M51.7754 32.9077H22.7754V37.9077H51.7754V32.9077Z" fill="#25BECE"/>
<path d="M46.7754 41.9077H22.7754V44.9077H46.7754V41.9077Z" fill="#002368"/>
<path d="M46.7754 47.9077H22.7754V49.9077H46.7754V47.9077Z" fill="#002368"/>
<path d="M69.3648 61.1196H66.8736V48.3709C66.8736 45.0178 64.1483 42.2925 60.7952 42.2925C57.4422 42.2925 54.7168 45.0178 54.7168 48.3709V61.1229H52.2256V48.3709C52.2256 43.6454 56.0697 39.8013 60.7952 39.8013C65.5207 39.8013 69.3648 43.6454 69.3648 48.3709V61.1229V61.1196Z" fill="#FFC85A"/>
<path d="M72.8159 65.8874C72.8159 72.5252 67.4334 77.9077 60.7956 77.9077C54.1578 77.9077 48.7754 72.5252 48.7754 65.8874C48.7754 59.2496 54.1578 53.8672 60.7956 53.8672C67.4334 53.8672 72.8159 59.2496 72.8159 65.8874Z" fill="#FFC85A"/>
<path d="M60.7945 61.1196C59.3407 61.1196 58.1602 62.3002 58.1602 63.7507C58.1602 65.2012 59.3407 66.385 60.7945 66.385C62.2482 66.385 63.4288 65.2044 63.4288 63.7507C63.4288 62.2969 62.2482 61.1196 60.7945 61.1196Z" fill="#002368"/>
<path d="M61.7642 70.8959H59.8291L60.1055 65.6956H61.4877L61.7642 70.8959Z" fill="#002368"/>
<path d="M76.9873 45.2984C74.9511 45.2984 73.29 43.6373 73.29 41.6011C73.29 39.5649 74.9472 37.9077 76.9873 37.9077C79.0275 37.9077 80.6846 39.5649 80.6846 41.6011C80.6846 43.6373 79.0275 45.2984 76.9873 45.2984ZM76.9873 40.2332C76.2291 40.2332 75.6155 40.8468 75.6155 41.6011C75.6155 42.3554 76.2291 42.9729 76.9834 42.9729C77.7377 42.9729 78.3513 42.3593 78.3513 41.6011C78.3513 40.8429 77.7377 40.2332 76.9834 40.2332H76.9873Z" fill="#25BECE"/>
<path d="M78.1517 54.8033H73.833V52.4739H75.8224V44.1335H78.1517V54.8033Z" fill="#25BECE"/>
<path d="M76.987 49.1951H73.833V51.5244H76.987V49.1951Z" fill="#25BECE"/>
</svg>
