<svg width="100" height="100" viewBox="0 0 100 100" fill="none" xmlns="http://www.w3.org/2000/svg">
<path d="M88.4851 22.0923H11.5157C10.2509 22.0923 9.22559 23.1255 9.22559 24.4V82.6769C9.22559 83.9514 10.2509 84.9846 11.5157 84.9846H88.4851C89.7499 84.9846 90.7752 83.9514 90.7752 82.6769V24.4C90.7752 23.1255 89.7499 22.0923 88.4851 22.0923Z" fill="#002368"/>
<path d="M83.2322 28.769H16.7666V78.3075H83.2322V28.769Z" fill="white"/>
<path d="M79.319 71C77.6724 73.2383 75.0172 74.7138 72 74.8311L76.3707 85L78.681 81.018L84 81.8982L79.3103 71H79.319Z" fill="#25BECE"/>
<path d="M63.6863 71L59 81.8982L64.3065 81.018L66.6238 85L71 74.8311C67.9763 74.7138 65.3317 73.2383 63.6863 71Z" fill="#25BECE"/>
<path d="M80.1147 71.8087C81.2896 70.1686 82 68.1731 82 65.9954C82 60.4738 77.5191 56 72 56C66.4809 56 62 60.4829 62 65.9954C62 68.164 62.7104 70.1595 63.8852 71.8087C65.6248 74.2415 68.4208 75.836 71.6084 75.9636C71.7359 75.9636 71.8634 76 71.9909 76C72.1184 76 72.2459 75.9636 72.3734 75.9636C75.561 75.836 78.357 74.2415 80.0965 71.8087H80.1147Z" fill="#FFC85A"/>
<path d="M61.8964 35.5923H38.1025V40.6692H61.8964V35.5923Z" fill="#25BECE"/>
<path d="M73.622 45.0154H26.3701V47.5692H73.622V45.0154Z" fill="#002368"/>
<path d="M73.622 50.7H26.3701V53.2538H73.622V50.7Z" fill="#002368"/>
<path d="M61.0035 68.8154H38.9883V71.3693H61.0035V68.8154Z" fill="#002368"/>
</svg>
