<svg width="231" height="180" viewBox="0 0 231 180" fill="none" xmlns="http://www.w3.org/2000/svg">
<path d="M189.06 12.157V114.603L115.247 166.256L41.417 114.603V12.157H189.06Z" fill="white"/>
<path d="M87.5661 42.7355C86.1415 42.7355 84.9489 42.2562 84.0047 41.281C83.0439 40.3223 82.5801 39.1322 82.5801 37.7438C82.5801 36.3554 83.0605 35.1488 84.0378 34.1901C84.9985 33.2314 86.1912 32.7521 87.5827 32.7521C88.4937 32.7521 89.322 32.967 90.084 33.4132C90.8459 33.8595 91.4423 34.4546 91.8895 35.1984L90.6306 35.9917C90.3159 35.4132 89.9017 34.967 89.3882 34.6364C88.8747 34.3058 88.2784 34.157 87.5992 34.157C86.5888 34.157 85.744 34.5041 85.0648 35.1984C84.3856 35.8926 84.0378 36.7355 84.0378 37.7438C84.0378 38.7521 84.3856 39.5785 85.0648 40.2727C85.744 40.967 86.5888 41.3141 87.5827 41.3141C88.3115 41.3141 88.941 41.1322 89.4876 40.7686C90.0177 40.405 90.4484 39.9256 90.73 39.3141L92.0386 40.0083C91.6079 40.8347 91.0116 41.5124 90.2165 41.9917C89.4379 42.4876 88.56 42.7355 87.5992 42.7355" fill="#1B2D56"/>
<path d="M93.6631 42.6033V32.8843H99.4939V34.2562H95.1042V37.033H99.4939V38.4049H95.1042V41.2149H99.4939V42.6033H93.6631Z" fill="#1B2D56"/>
<path d="M101.447 42.6033V32.8843H104.479C105.489 32.8843 106.317 33.1818 106.963 33.7934C107.609 34.4049 107.924 35.1487 107.924 36.0578C107.924 36.7355 107.742 37.3471 107.377 37.876C107.013 38.4215 106.5 38.7851 105.82 39L108.139 42.6033H106.466L103.534 37.9752H104.33C105.009 37.9752 105.539 37.7768 105.903 37.3967C106.284 37 106.466 36.5702 106.466 36.0744C106.466 35.5124 106.284 35.0661 105.92 34.752C105.555 34.4215 105.025 34.2562 104.33 34.2562H102.905V42.6198H101.447V42.6033Z" fill="#1B2D56"/>
<path d="M111.271 42.6033V34.2396H108.505V32.8843H115.462V34.2396H112.712V42.6033H111.271Z" fill="#1B2D56"/>
<path d="M118.427 32.8843H116.97V42.6033H118.427V32.8843Z" fill="#1B2D56"/>
<path d="M120.812 42.6033V32.8843H126.311V34.2562H122.269V37.033H126.311V38.4049H122.269V42.6033H120.812Z" fill="#1B2D56"/>
<path d="M129.658 32.8843H128.2V42.6033H129.658V32.8843Z" fill="#1B2D56"/>
<path d="M131.828 42.6033V32.8843H137.676V34.2562H133.286V37.033H137.676V38.4049H133.286V41.2149H137.676V42.6033H131.828Z" fill="#1B2D56"/>
<path d="M142.181 34.2231H141.088V41.2644H142.231C143.324 41.2644 144.235 40.9339 144.931 40.2727C145.626 39.6115 145.974 38.7686 145.974 37.7603C145.974 36.752 145.643 35.8595 144.98 35.2149C144.318 34.5702 143.39 34.2396 142.197 34.2396M139.63 42.6033V32.8843H142.313C143.854 32.8843 145.096 33.3471 146.024 34.2562C146.952 35.1653 147.415 36.3388 147.415 37.7438C147.415 39.1487 146.935 40.2892 145.991 41.2149C145.03 42.1405 143.837 42.6033 142.38 42.6033H139.63Z" fill="#1B2D56"/>
<path d="M196.232 5H34.2441V118.339L115.246 175L196.248 118.339V5H196.232ZM189.059 12.157V114.603L115.23 166.256L41.4167 114.603V12.157H189.059Z" fill="#1B2D56"/>
<path d="M181.075 86.1735H180.362V85.8264H182.135V86.1735H181.439V88.3058H181.075V86.1735Z" fill="#1B2D56"/>
<path d="M182.449 85.8264H182.814L183.658 87L184.536 85.8264H184.884V88.3058H184.52V86.4215L183.658 87.5785L182.83 86.4545V88.3058H182.449V85.8264Z" fill="#1B2D56"/>
<path d="M62.4541 88.6529C60.3007 88.6529 58.3461 88.2728 56.5736 87.5124C54.8012 86.7521 53.2772 85.7108 51.9851 84.3885C50.7097 83.0662 49.6992 81.529 48.9869 79.7769C48.2746 78.0248 47.9268 76.1405 47.9268 74.124C47.9268 72.1075 48.2912 70.1405 49.0366 68.372C49.782 66.6034 50.7925 65.0662 52.1011 63.7604C53.4097 62.4546 54.9503 61.4298 56.7061 60.7025C58.462 59.9587 60.3835 59.5951 62.4541 59.5951C63.7959 59.5951 65.1045 59.7604 66.3634 60.091C67.6224 60.4215 68.7819 60.9009 69.8586 61.529C70.9353 62.1571 71.9127 62.8843 72.7906 63.7604C73.6686 64.6199 74.4305 65.5951 75.0434 66.6529L70.2231 69.6777C69.4776 68.2067 68.4506 67.0496 67.142 66.2067C65.8334 65.3637 64.2928 64.9505 62.5038 64.9505C61.2118 64.9505 60.0025 65.1984 58.9093 65.6612C57.816 66.1406 56.8552 66.7852 56.0601 67.6116C55.265 68.4381 54.6355 69.4133 54.1717 70.5372C53.7245 71.6612 53.4926 72.8513 53.4926 74.124C53.4926 75.3967 53.7079 76.5372 54.1551 77.6447C54.6024 78.7521 55.2153 79.7273 56.027 80.5538C56.8221 81.3802 57.7828 82.0414 58.8596 82.5042C59.9528 82.9835 61.1455 83.2149 62.4376 83.2149C64.3757 83.2149 66.0322 82.7356 67.3905 81.7604C68.7488 80.7852 69.7758 79.529 70.4715 77.9753L75.4907 80.6529C74.8944 81.843 74.1489 82.9339 73.271 83.9091C72.3931 84.9009 71.3992 85.7273 70.3059 86.4381C69.196 87.1323 67.9868 87.6777 66.6782 88.0579C65.353 88.4546 63.9615 88.6364 62.4873 88.6364" fill="#1B2D56"/>
<path d="M84.0711 78.1404H92.2707L88.1958 66.9008L84.0711 78.1404ZM85.4791 59.9586H90.8793L101.597 88.2561H95.9647L94.0929 83.0991H82.249L80.3772 88.2561H74.7451L85.4626 59.9586H85.4791Z" fill="#1B2D56"/>
<path d="M104.197 59.9586H122.468V65.1487H109.713V71.7107H122.468V76.8181H109.713V88.2561H104.197V59.9586Z" fill="#1B2D56"/>
<path d="M140.408 88.6529C138.255 88.6529 136.3 88.2728 134.528 87.5124C132.755 86.7521 131.231 85.7108 129.939 84.3885C128.664 83.0662 127.653 81.529 126.941 79.7769C126.229 78.0248 125.881 76.1405 125.881 74.124C125.881 72.1075 126.245 70.1405 126.991 68.372C127.736 66.6034 128.747 65.0662 130.055 63.7604C131.364 62.4546 132.904 61.4298 134.66 60.7025C136.416 59.9587 138.338 59.5951 140.408 59.5951C141.75 59.5951 143.059 59.7604 144.318 60.091C145.576 60.4215 146.736 60.9009 147.813 61.529C148.889 62.1571 149.867 62.8843 150.745 63.7604C151.623 64.6199 152.368 65.5951 152.998 66.6529L148.177 69.6777C147.432 68.2067 146.388 67.0496 145.096 66.2067C143.787 65.3637 142.247 64.9505 140.458 64.9505C139.166 64.9505 137.957 65.1984 136.863 65.6612C135.77 66.1406 134.809 66.7852 134.014 67.6116C133.219 68.4381 132.59 69.4133 132.126 70.5372C131.679 71.6612 131.447 72.8513 131.447 74.124C131.447 75.3967 131.662 76.5372 132.109 77.6447C132.557 78.7521 133.169 79.7273 133.981 80.5538C134.776 81.3802 135.737 82.0414 136.814 82.5042C137.907 82.9835 139.1 83.2149 140.392 83.2149C142.33 83.2149 143.986 82.7356 145.345 81.7604C146.703 80.7852 147.73 79.529 148.426 77.9753L153.445 80.6529C152.848 81.843 152.103 82.9339 151.225 83.9091C150.347 84.9009 149.353 85.7273 148.26 86.4381C147.15 87.1323 145.941 87.6777 144.632 88.0579C143.307 88.4546 141.916 88.6364 140.441 88.6364" fill="#1B2D56"/>
<path d="M162.025 78.1404H170.225L166.15 66.9008L162.025 78.1404ZM163.417 59.9586H168.817L179.534 88.2561H173.902L172.03 83.0991H160.186L158.315 88.2561H152.683L163.4 59.9586H163.417Z" fill="#1B2D56"/>
<path d="M55.0161 108.934H52.6639L53.8234 105.909L54.9995 108.934H55.0161ZM54.2707 104.818H53.4259L50.8252 111.364H51.7363L52.3492 109.76H55.3308L55.9603 111.364H56.8548L54.2707 104.868V104.835V104.818Z" fill="#1B2D56"/>
<path d="M61.0459 107.926L58.8097 104.835L58.7931 104.818H57.9814V111.347H58.8097V106.256L61.0459 109.281L63.3485 106.19V111.347H64.1767V104.818H63.3982L61.0459 107.926Z" fill="#1B2D56"/>
<path d="M66.6446 104.818H65.7832V111.347H69.9576V110.521H66.6446V104.818Z" fill="#1B2D56"/>
<path d="M73.6689 111.347H74.5303V108.57H77.8267V107.744H74.5303V105.628H77.8267V104.818H73.6689V111.347Z" fill="#1B2D56"/>
<path d="M80.0792 104.818H79.2344V111.364H80.0792V104.818Z" fill="#1B2D56"/>
<path d="M86.2079 109.959L82.6631 104.818H81.7686V111.347H82.5968V106.157L86.1914 111.347H87.0527V104.818H86.2079V109.959Z" fill="#1B2D56"/>
<path d="M90.316 111.347H91.1608V105.595H93.132V104.818H88.3613V105.595H90.316V111.347Z" fill="#1B2D56"/>
<path d="M98.8311 110.537H95.2862V108.471H98.8311V107.661H95.2862V105.628H98.8311V104.818H94.4248V111.347H98.8311V110.537Z" fill="#1B2D56"/>
<path d="M103.436 111.446C103.767 111.446 104.082 111.397 104.38 111.314C104.678 111.231 104.96 111.099 105.208 110.95C105.457 110.785 105.689 110.603 105.904 110.372C106.103 110.157 106.285 109.909 106.418 109.645L106.451 109.595L105.689 109.198L105.656 109.248C105.457 109.645 105.159 109.992 104.778 110.24C104.397 110.488 103.949 110.62 103.419 110.62C103.071 110.62 102.724 110.554 102.425 110.421C102.127 110.289 101.862 110.107 101.63 109.876C101.415 109.645 101.233 109.38 101.1 109.066C100.968 108.769 100.918 108.438 100.918 108.074C100.918 107.711 100.984 107.397 101.117 107.083C101.249 106.769 101.415 106.504 101.647 106.273C101.862 106.041 102.144 105.859 102.442 105.727C102.74 105.595 103.071 105.529 103.436 105.529C103.916 105.529 104.33 105.645 104.711 105.876C105.076 106.107 105.374 106.421 105.589 106.802L105.622 106.851L106.351 106.405L106.318 106.355C106.169 106.107 106.003 105.876 105.788 105.678C105.589 105.479 105.357 105.298 105.109 105.165C104.86 105.017 104.595 104.901 104.314 104.835C104.032 104.752 103.734 104.719 103.419 104.719C102.955 104.719 102.508 104.802 102.111 104.983C101.697 105.149 101.349 105.397 101.034 105.694C100.736 105.992 100.487 106.355 100.322 106.769C100.139 107.182 100.057 107.628 100.057 108.091C100.057 108.554 100.139 109 100.322 109.397C100.487 109.793 100.736 110.157 101.034 110.455C101.332 110.752 101.697 111 102.094 111.182C102.508 111.364 102.955 111.446 103.436 111.446Z" fill="#1B2D56"/>
<path d="M108.521 108.471H111.85V111.347H112.711V104.818H111.85V107.661H108.521V104.818H107.659V111.347H108.521V108.471Z" fill="#1B2D56"/>
<path d="M122.087 109.248C121.888 109.661 121.59 109.992 121.209 110.24C120.828 110.488 120.381 110.62 119.851 110.62C119.503 110.62 119.155 110.554 118.857 110.421C118.559 110.289 118.294 110.107 118.062 109.876C117.847 109.645 117.664 109.38 117.532 109.066C117.416 108.769 117.35 108.421 117.35 108.074C117.35 107.727 117.416 107.397 117.548 107.083C117.681 106.769 117.863 106.504 118.079 106.273C118.294 106.041 118.575 105.859 118.874 105.727C119.172 105.595 119.503 105.529 119.868 105.529C120.348 105.529 120.762 105.645 121.143 105.876C121.507 106.107 121.806 106.421 122.021 106.802L122.054 106.851L122.8 106.405L122.766 106.355C122.617 106.107 122.452 105.893 122.236 105.678C122.038 105.479 121.806 105.298 121.557 105.165C121.309 105.017 121.044 104.901 120.762 104.835C120.48 104.752 120.182 104.719 119.868 104.719C119.404 104.719 118.956 104.802 118.559 104.983C118.145 105.149 117.797 105.397 117.482 105.694C117.184 105.992 116.936 106.355 116.77 106.752C116.588 107.165 116.505 107.612 116.505 108.074C116.505 108.537 116.588 108.983 116.77 109.38C116.936 109.777 117.184 110.14 117.482 110.438C117.78 110.736 118.145 110.983 118.542 111.165C118.956 111.347 119.404 111.43 119.884 111.43C120.215 111.43 120.53 111.38 120.828 111.297C121.126 111.215 121.408 111.083 121.657 110.934C121.905 110.769 122.137 110.587 122.352 110.372C122.551 110.157 122.733 109.909 122.866 109.645L122.899 109.595L122.137 109.198L122.104 109.248H122.087Z" fill="#1B2D56"/>
<path d="M127.106 105.545C127.454 105.545 127.785 105.612 128.083 105.744C128.381 105.876 128.663 106.058 128.878 106.289C129.11 106.521 129.276 106.785 129.408 107.099C129.541 107.397 129.607 107.744 129.607 108.091C129.607 108.438 129.541 108.769 129.408 109.083C129.276 109.38 129.11 109.661 128.878 109.892C128.663 110.124 128.381 110.306 128.083 110.438C127.785 110.57 127.454 110.636 127.106 110.636C126.758 110.636 126.41 110.57 126.112 110.438C125.814 110.306 125.549 110.124 125.317 109.892C125.085 109.661 124.919 109.397 124.787 109.083C124.654 108.769 124.588 108.438 124.588 108.091C124.588 107.744 124.654 107.413 124.787 107.099C124.919 106.785 125.101 106.521 125.317 106.289C125.549 106.058 125.814 105.876 126.112 105.744C126.41 105.612 126.741 105.545 127.089 105.545M127.106 111.446C127.57 111.446 128 111.364 128.414 111.182C128.812 111 129.176 110.752 129.491 110.454C129.806 110.157 130.038 109.793 130.22 109.397C130.402 109 130.485 108.554 130.485 108.091C130.485 107.628 130.402 107.182 130.22 106.785C130.038 106.388 129.806 106.025 129.508 105.727C129.21 105.43 128.845 105.182 128.431 105C128.033 104.818 127.586 104.735 127.122 104.735C126.659 104.735 126.228 104.818 125.814 105C125.416 105.182 125.052 105.413 124.737 105.727C124.422 106.041 124.19 106.388 124.008 106.785C123.826 107.182 123.743 107.628 123.743 108.091C123.743 108.554 123.826 109 124.008 109.397C124.174 109.793 124.406 110.157 124.704 110.454C125.002 110.752 125.367 111 125.764 111.182C126.178 111.364 126.625 111.446 127.106 111.446Z" fill="#1B2D56"/>
<path d="M138.073 111.347V104.818H137.278L134.942 107.926L132.706 104.835L132.69 104.818H131.861V111.347H132.706V106.256L134.926 109.281L137.228 106.19V111.347H138.073Z" fill="#1B2D56"/>
<path d="M140.524 105.595H142.098C142.347 105.595 142.578 105.628 142.777 105.711C142.976 105.777 143.142 105.892 143.291 106.025C143.423 106.157 143.539 106.322 143.606 106.504C143.672 106.686 143.721 106.901 143.721 107.099C143.721 107.297 143.688 107.512 143.606 107.694C143.539 107.876 143.423 108.041 143.291 108.173C143.158 108.306 142.993 108.421 142.794 108.488C142.595 108.57 142.363 108.603 142.115 108.603H140.541V105.578L140.524 105.595ZM143.904 105.479C143.688 105.281 143.44 105.116 143.142 105C142.844 104.884 142.512 104.818 142.148 104.818H139.663V111.364H140.524V109.43H142.148C142.512 109.43 142.844 109.364 143.125 109.248C143.423 109.132 143.672 108.967 143.887 108.752C144.102 108.554 144.268 108.306 144.384 108.008C144.5 107.727 144.566 107.413 144.566 107.099C144.566 106.785 144.5 106.471 144.384 106.19C144.268 105.909 144.102 105.661 143.887 105.463" fill="#1B2D56"/>
<path d="M146.819 104.818H145.958V111.347H150.132V110.521H146.819V104.818Z" fill="#1B2D56"/>
<path d="M152.368 104.818H151.523V111.364H152.368V104.818Z" fill="#1B2D56"/>
<path d="M157.752 108.934H155.4L156.56 105.909L157.736 108.934H157.752ZM157.007 104.818H156.162L153.562 111.364H154.473L155.085 109.76H158.067L158.697 111.364H159.591L157.007 104.868V104.835V104.818Z" fill="#1B2D56"/>
<path d="M165.156 109.959L161.611 104.818H160.717V111.347H161.562V106.157L165.14 111.347H166.001V104.818H165.156V109.959Z" fill="#1B2D56"/>
<path d="M172.975 109.248C172.776 109.661 172.478 109.992 172.097 110.24C171.716 110.488 171.269 110.62 170.739 110.62C170.391 110.62 170.043 110.554 169.745 110.421C169.447 110.289 169.182 110.107 168.95 109.876C168.734 109.645 168.552 109.38 168.42 109.066C168.304 108.769 168.237 108.421 168.237 108.074C168.237 107.727 168.304 107.397 168.436 107.083C168.569 106.769 168.751 106.504 168.966 106.273C169.182 106.041 169.463 105.859 169.761 105.727C170.06 105.595 170.391 105.529 170.755 105.529C171.236 105.529 171.65 105.645 172.031 105.876C172.395 106.107 172.693 106.421 172.909 106.802L172.942 106.851L173.687 106.405L173.654 106.355C173.505 106.107 173.339 105.893 173.124 105.678C172.925 105.479 172.693 105.298 172.445 105.165C172.196 105.017 171.931 104.901 171.65 104.835C171.368 104.752 171.07 104.719 170.755 104.719C170.291 104.719 169.844 104.802 169.447 104.983C169.033 105.149 168.685 105.397 168.37 105.694C168.072 105.992 167.823 106.355 167.658 106.752C167.475 107.165 167.393 107.612 167.393 108.074C167.393 108.537 167.475 108.983 167.658 109.38C167.823 109.777 168.072 110.14 168.37 110.438C168.668 110.736 169.033 110.983 169.43 111.165C169.844 111.347 170.291 111.43 170.772 111.43C171.103 111.43 171.418 111.38 171.716 111.297C172.014 111.215 172.296 111.083 172.544 110.934C172.793 110.769 173.025 110.587 173.24 110.372C173.439 110.157 173.621 109.909 173.753 109.645L173.787 109.595L173.025 109.198L172.992 109.248H172.975Z" fill="#1B2D56"/>
<path d="M179.386 105.628V104.818H174.996V111.347H179.386V110.537H175.841V108.471H179.386V107.661H175.841V105.628H179.386Z" fill="#1B2D56"/>
<path d="M92.9497 120.752H90.5975L91.757 117.727L92.9331 120.752H92.9497ZM92.2043 116.636H91.3595L88.7588 123.182H89.6699L90.2828 121.578H93.2644L93.8939 123.182H94.7884L92.2043 116.686V116.653V116.636Z" fill="#1B2D56"/>
<path d="M99.8076 119.926C99.5923 119.793 99.3438 119.694 99.0622 119.612C98.7972 119.545 98.5321 119.479 98.2837 119.413C98.0517 119.364 97.8364 119.314 97.6211 119.264C97.4223 119.215 97.2401 119.165 97.091 119.083C96.9419 119.017 96.8259 118.917 96.7431 118.802C96.6603 118.686 96.6272 118.554 96.6272 118.372C96.6272 118.058 96.7266 117.826 96.9419 117.628C97.1572 117.43 97.5051 117.331 97.9855 117.331C98.4162 117.331 98.764 117.413 99.0456 117.579C99.3272 117.744 99.5591 117.959 99.7579 118.256L99.7911 118.306L100.487 117.76L100.454 117.711C100.172 117.364 99.8242 117.083 99.4432 116.868C99.0456 116.653 98.5653 116.554 98.0021 116.554C97.6708 116.554 97.356 116.603 97.091 116.702C96.8259 116.802 96.5775 116.934 96.3953 117.083C96.1965 117.248 96.0474 117.446 95.9314 117.661C95.8321 117.893 95.7658 118.124 95.7658 118.372C95.7658 118.702 95.8321 118.967 95.948 119.165C96.0805 119.364 96.2296 119.529 96.445 119.661C96.6437 119.793 96.8756 119.893 97.1241 119.959C97.3726 120.025 97.6211 120.091 97.8695 120.14C98.118 120.19 98.3499 120.24 98.5653 120.306C98.7806 120.355 98.9794 120.421 99.145 120.504C99.3107 120.587 99.4432 120.702 99.5426 120.818C99.642 120.934 99.6917 121.099 99.6917 121.298C99.6917 121.645 99.5757 121.909 99.3272 122.124C99.0788 122.339 98.7143 122.455 98.234 122.455C97.3395 122.455 96.6272 122.074 96.1634 121.331L96.1302 121.281L95.4014 121.859L95.4345 121.909C95.7327 122.322 96.1302 122.653 96.5775 122.901C97.0413 123.149 97.6045 123.264 98.2671 123.264C98.615 123.264 98.9462 123.215 99.2278 123.116C99.5095 123.017 99.7579 122.868 99.9567 122.686C100.155 122.504 100.305 122.289 100.421 122.058C100.536 121.81 100.586 121.562 100.586 121.298C100.586 120.95 100.52 120.669 100.371 120.455C100.222 120.24 100.04 120.058 99.8242 119.909" fill="#1B2D56"/>
<path d="M105.854 119.926C105.638 119.793 105.39 119.694 105.108 119.612C104.843 119.545 104.578 119.479 104.33 119.413C104.098 119.364 103.882 119.314 103.667 119.264C103.468 119.215 103.286 119.165 103.137 119.083C102.988 119.017 102.872 118.917 102.789 118.802C102.706 118.686 102.673 118.554 102.673 118.372C102.673 118.058 102.772 117.826 102.988 117.628C103.203 117.43 103.551 117.331 104.031 117.331C104.462 117.331 104.81 117.413 105.092 117.579C105.373 117.744 105.605 117.959 105.804 118.256L105.837 118.306L106.533 117.76L106.5 117.711C106.218 117.364 105.87 117.083 105.489 116.868C105.092 116.653 104.611 116.554 104.048 116.554C103.717 116.554 103.402 116.603 103.137 116.702C102.872 116.802 102.623 116.934 102.441 117.083C102.242 117.248 102.093 117.446 101.977 117.661C101.861 117.893 101.812 118.124 101.812 118.372C101.812 118.702 101.878 118.967 101.994 119.165C102.126 119.364 102.276 119.529 102.491 119.661C102.69 119.793 102.922 119.893 103.17 119.959C103.418 120.025 103.667 120.091 103.915 120.14C104.164 120.19 104.396 120.24 104.611 120.306C104.826 120.355 105.025 120.421 105.191 120.504C105.357 120.587 105.489 120.702 105.588 120.818C105.688 120.934 105.738 121.099 105.738 121.298C105.738 121.645 105.622 121.909 105.373 122.124C105.125 122.339 104.76 122.455 104.28 122.455C103.385 122.455 102.673 122.074 102.209 121.331L102.176 121.281L101.447 121.859L101.48 121.909C101.779 122.322 102.176 122.653 102.623 122.901C103.087 123.149 103.65 123.264 104.313 123.264C104.661 123.264 104.992 123.215 105.274 123.116C105.555 123.017 105.804 122.868 106.003 122.686C106.201 122.504 106.35 122.289 106.466 122.058C106.582 121.81 106.632 121.562 106.632 121.298C106.632 120.95 106.566 120.669 106.417 120.455C106.268 120.24 106.085 120.058 105.87 119.909" fill="#1B2D56"/>
<path d="M111.038 122.438C110.691 122.438 110.359 122.372 110.045 122.24C109.746 122.107 109.481 121.926 109.249 121.694C109.018 121.463 108.852 121.198 108.719 120.884C108.587 120.57 108.521 120.24 108.521 119.893C108.521 119.545 108.587 119.215 108.719 118.901C108.852 118.603 109.034 118.322 109.249 118.091C109.481 117.859 109.746 117.678 110.045 117.545C110.343 117.413 110.674 117.347 111.022 117.347C111.37 117.347 111.701 117.413 112.016 117.545C112.331 117.678 112.596 117.859 112.811 118.091C113.043 118.322 113.208 118.587 113.341 118.901C113.473 119.198 113.54 119.545 113.54 119.893C113.54 120.24 113.473 120.57 113.341 120.884C113.208 121.182 113.043 121.463 112.811 121.694C112.596 121.926 112.314 122.107 112.016 122.24C111.718 122.372 111.37 122.438 111.022 122.438M113.424 117.545C113.126 117.248 112.761 117 112.347 116.818C111.933 116.636 111.502 116.554 111.038 116.554C110.575 116.554 110.144 116.636 109.73 116.818C109.316 117 108.968 117.231 108.67 117.545C108.372 117.843 108.123 118.207 107.941 118.62C107.759 119.017 107.676 119.463 107.676 119.926C107.676 120.388 107.759 120.835 107.924 121.231C108.09 121.628 108.322 121.992 108.62 122.289C108.918 122.587 109.283 122.835 109.68 123.017C110.094 123.198 110.542 123.281 111.005 123.281C111.469 123.281 111.9 123.198 112.314 123.017C112.728 122.835 113.076 122.587 113.391 122.289C113.689 121.992 113.937 121.628 114.12 121.231C114.302 120.835 114.385 120.388 114.385 119.926C114.385 119.463 114.302 119.017 114.12 118.62C113.954 118.223 113.705 117.859 113.407 117.545" fill="#1B2D56"/>
<path d="M121.226 121.066C121.027 121.479 120.729 121.81 120.348 122.058C119.967 122.306 119.52 122.438 118.99 122.438C118.642 122.438 118.294 122.372 117.996 122.24C117.698 122.107 117.433 121.926 117.201 121.694C116.985 121.463 116.803 121.198 116.671 120.884C116.555 120.587 116.488 120.256 116.488 119.892C116.488 119.529 116.555 119.215 116.687 118.901C116.82 118.587 117.002 118.322 117.217 118.091C117.449 117.859 117.714 117.678 118.012 117.545C118.31 117.413 118.642 117.347 119.006 117.347C119.487 117.347 119.901 117.463 120.282 117.694C120.646 117.926 120.944 118.24 121.16 118.62L121.193 118.669L121.938 118.223L121.905 118.173C121.756 117.926 121.59 117.711 121.375 117.496C121.176 117.297 120.944 117.116 120.696 116.983C120.447 116.835 120.182 116.719 119.901 116.653C119.619 116.57 119.321 116.537 119.006 116.537C118.542 116.537 118.095 116.62 117.698 116.802C117.283 116.967 116.936 117.215 116.621 117.512C116.323 117.81 116.074 118.173 115.909 118.57C115.726 118.983 115.644 119.43 115.644 119.892C115.644 120.355 115.726 120.802 115.909 121.198C116.074 121.595 116.323 121.959 116.621 122.256C116.919 122.554 117.283 122.802 117.681 122.983C118.095 123.165 118.542 123.248 119.023 123.248C119.354 123.248 119.669 123.198 119.967 123.116C120.265 123.033 120.547 122.901 120.795 122.752C121.044 122.587 121.276 122.405 121.491 122.19C121.69 121.975 121.872 121.727 122.004 121.463L122.038 121.413L121.276 121.016L121.242 121.066H121.226Z" fill="#1B2D56"/>
<path d="M124.158 116.636H123.313V123.182H124.158V116.636Z" fill="#1B2D56"/>
<path d="M129.541 120.752H127.189L128.349 117.727L129.525 120.752H129.541ZM128.779 116.636H127.935L125.334 123.182H126.245L126.858 121.578H129.84L130.469 123.182H131.364L128.779 116.686V116.653V116.636Z" fill="#1B2D56"/>
<path d="M131.165 117.43H133.12V123.182H133.965V117.43H135.936V116.636H131.165V117.43Z" fill="#1B2D56"/>
<path d="M137.228 123.182H141.634V122.355H138.089V120.306H141.634V119.496H138.089V117.463H141.634V116.636H137.228V123.182Z" fill="#1B2D56"/>
</svg>
