<svg width="232" height="180" viewBox="0 0 232 180" fill="none" xmlns="http://www.w3.org/2000/svg">
<path d="M47.623 145.424C92.085 157.251 139.012 157.251 183.474 145.424V36.5003C138.981 24.6741 92.085 24.6741 47.623 36.5003V145.424Z" fill="white"/>
<path d="M213.61 99.717C212.901 99.2563 207.509 102.912 205.691 104.908C204.335 106.383 203.288 107.796 202.456 109.086C203.072 106.874 203.627 104.57 204.058 102.174C205.291 101.959 208.341 100.669 212.531 93.9115C213.764 91.9148 215.767 84.942 214.473 84.4198C213.702 84.1126 209.019 88.6281 207.601 90.9011C206.4 92.8363 205.537 94.618 204.921 96.1845C205.167 93.6964 205.352 91.1162 205.383 88.4437C206.554 88.0444 209.358 86.2935 212.316 78.7985C213.178 76.6175 213.949 69.4296 212.593 69.1225C211.761 68.9382 207.94 74.1908 206.954 76.679C206.153 78.6449 205.629 80.4572 205.291 81.9931C205.198 79.9043 205.044 77.7541 204.798 75.5731C204.767 75.266 204.736 74.9281 204.674 74.6209C205.722 74.068 208.248 71.9485 209.912 63.9005C210.375 61.5967 209.912 54.3781 208.495 54.3167C207.663 54.2859 204.798 60.1223 204.243 62.7332C203.842 64.5763 203.657 66.2043 203.565 67.6787C203.103 65.4057 202.548 63.1633 201.87 60.9209C202.887 59.9994 204.736 57.2655 204.952 49.6169C205.013 47.2516 203.257 40.2481 201.87 40.4324C201.038 40.5552 199.251 46.7909 199.159 49.4633C199.097 50.9685 199.159 52.3507 199.251 53.5794C198.389 51.5214 197.464 49.494 196.447 47.5588C197.249 46.6987 198.882 43.842 197.68 35.6712C197.341 33.3366 194.383 26.7324 193.058 27.1624C192.257 27.4082 191.579 33.8896 191.949 36.5313C192.257 38.6815 192.719 40.4938 193.212 42.0297C191.887 39.9716 190.439 37.975 188.868 36.1012C189.484 35.0875 190.593 31.9544 188.005 24.2136C187.265 21.9712 183.198 15.9813 181.966 16.6263C181.226 17.0257 181.688 23.4763 182.52 26.0566C183.291 28.4526 184.215 30.3878 185.078 31.8929C183.26 30.0499 181.288 28.3297 179.223 26.7324C179.593 26.0259 180.579 23.1692 176.666 15.9506C175.649 14.0461 171.027 9.31559 170.041 10.0835C169.425 10.5443 170.873 16.2885 172.044 18.4694C173.646 21.4797 175.372 23.5685 176.697 24.8893C174.448 23.3535 172.075 21.9712 169.579 20.7732C169.209 19.6981 167.761 17.3328 161.969 14.5068C160.181 13.6467 154.173 12.5409 153.834 13.6775C153.619 14.3533 157.809 17.8858 159.843 18.8994C164.218 21.0804 167.607 21.4183 168.994 21.449V21.6026C170.688 22.5241 172.26 23.4763 173.8 24.4593C172.106 23.8142 169.887 23.292 168.84 23.2306C160.151 22.8927 158.887 25.3808 158.887 25.3808C158.887 25.3808 162.153 27.3467 168.47 27.5618C170.688 27.6232 175.957 26.6402 176.111 26.0259C178.884 27.9611 181.442 30.0499 183.753 32.2308C181.997 31.1864 178.207 30.0499 176.604 29.927C172.013 29.6198 169.271 30.0806 167.669 30.6642C172.63 31.6472 177.59 32.7837 182.489 34.0739C183.691 33.8281 184.585 33.5209 184.646 33.2445C184.646 33.1831 184.646 33.1523 184.646 33.0909C187.543 35.9783 190.1 39.0808 192.288 42.429C190.47 41.1389 187.481 39.6952 186.095 39.3573C185.91 39.2958 185.725 39.2651 185.54 39.2344V44.4256C188.066 44.825 192.442 44.8557 193.551 44.4256C195.184 47.1595 196.663 50.0469 197.896 53.1187C196.324 51.4599 193.335 49.2483 191.918 48.6339C189.268 47.4667 187.173 46.8216 185.54 46.453V51.2449C186.711 51.9514 188.067 52.6579 189.638 53.3337C191.918 54.3167 197.557 55.4225 198.666 55.0539C199.868 58.1871 200.854 61.5045 201.686 64.9756C200.33 63.1633 198.296 61.1052 197.156 60.368C189.422 55.2075 186.218 55.9447 185.509 56.2211V56.559C186.095 57.542 188.436 61.1052 193.982 64.7299C195.893 65.9893 200.607 67.8323 202.363 68.0474C202.826 70.2897 203.226 72.6243 203.565 74.9895C203.719 76.0646 203.842 77.1397 203.966 78.2148C202.887 76.1568 201.223 73.7915 200.237 72.8393C192.257 65.2214 188.96 66.5422 188.96 66.5422C188.96 66.5422 190.377 71.1498 196.232 76.679C197.988 78.3377 202.548 81.133 204.243 81.5938C204.489 85.372 204.489 89.0888 204.212 92.6827C203.565 90.3482 202.148 87.1536 201.223 85.9249C194.691 77.0476 191.209 77.7848 191.209 77.7848C191.209 77.7848 191.826 82.5767 196.632 89.0274C198.173 91.1162 202.702 95.048 203.966 95.3552C203.534 99.3792 202.795 103.311 201.747 107.089C201.747 104.724 200.73 100.546 199.96 98.9798C195.061 89.0888 191.517 89.2117 191.517 89.2117C191.517 89.2117 191.271 94.0343 194.907 101.222C196.17 103.741 200.484 108.994 201.254 108.779C200.052 112.741 198.543 116.581 196.694 120.236C197.156 117.994 196.91 113.386 196.386 111.635C193.305 101.069 189.761 100.577 189.761 100.577C189.761 100.577 188.683 105.277 190.994 112.987C191.795 115.659 195.122 121.588 195.954 121.557C195.985 121.557 196.016 121.557 196.047 121.557C194.198 125.09 192.041 128.469 189.638 131.694C190.408 129.421 190.901 125.274 190.686 123.554C189.484 112.588 186.095 111.513 186.095 111.513C186.095 111.513 185.817 112.188 185.509 113.478V125.858C186.249 128.868 187.789 132.923 188.467 133.199C187.512 134.397 186.526 135.534 185.509 136.67V139.035C185.509 139.035 185.571 138.974 185.602 138.913C186.957 139.312 190.254 139.435 196.848 135.902C198.943 134.766 204.15 129.759 203.288 128.653C202.764 128.008 196.447 129.574 194.075 130.834C192.781 131.51 191.672 132.216 190.686 132.892C191.887 131.295 193.058 129.605 194.137 127.885C195.615 127.977 198.882 127.424 204.551 122.939C206.4 121.465 210.652 115.629 209.635 114.676C209.019 114.124 203.072 116.765 200.946 118.424C199.775 119.346 198.758 120.236 197.896 121.096C198.758 119.315 199.59 117.441 200.33 115.506C201.686 115.444 204.859 114.523 209.943 108.84C211.515 107.089 214.688 100.577 213.517 99.8399" fill="#4B5155"/>
<path d="M45.3427 138.82C45.3427 138.82 45.4044 138.882 45.4352 138.943V136.578C44.4184 135.441 43.4324 134.274 42.4772 133.107C43.1551 132.83 44.6957 128.776 45.4352 125.765V113.386C45.1579 112.096 44.8498 111.42 44.8498 111.42C44.8498 111.42 41.4604 112.496 40.2587 123.462C40.0739 125.182 40.536 129.359 41.3063 131.633C38.903 128.438 36.7462 125.028 34.8975 121.496C34.9283 121.496 34.9591 121.496 34.9899 121.496C35.791 121.557 39.1495 115.629 39.9506 112.926C42.2615 105.246 41.1832 100.516 41.1832 100.516C41.1832 100.516 37.6705 101.007 34.5585 111.574C34.0347 113.356 33.7882 117.933 34.2504 120.206C32.4325 116.55 30.8919 112.711 29.6902 108.748C30.4913 108.963 34.805 103.68 36.0683 101.192C39.6734 94.0036 39.4269 89.181 39.4269 89.181C39.4269 89.181 35.8835 89.0581 30.9843 98.9491C30.214 100.516 29.1972 104.693 29.1972 107.059C28.1496 103.25 27.4101 99.3485 26.9787 95.3245C28.242 94.9866 32.7714 91.0548 34.312 88.9967C39.1187 82.546 39.735 77.7541 39.735 77.7541C39.735 77.7541 36.2532 77.0169 29.721 85.8942C28.7967 87.1536 27.3793 90.3175 26.7322 92.6521C26.4549 89.0274 26.4549 85.3413 26.7014 81.5323C28.3653 81.0716 32.9563 78.2763 34.7126 76.6175C40.5669 71.1191 41.9842 66.4808 41.9842 66.4808C41.9842 66.4808 38.6873 65.1599 30.7069 72.7779C29.721 73.7301 28.0571 76.0953 26.9787 78.1534C27.1019 77.0783 27.2252 76.0339 27.3793 74.9588C27.7182 72.5628 28.1187 70.259 28.5809 67.9859C30.3372 67.8016 35.0207 65.9279 36.9618 64.6684C42.4772 61.0438 44.8497 57.4806 45.4352 56.4976V56.1597C44.7265 55.8833 41.522 55.146 33.7882 60.3066C32.6789 61.0438 30.6453 63.1019 29.2588 64.9142C30.0907 61.4431 31.0767 58.1256 32.2784 54.9925C33.3876 55.3611 39.0571 54.2552 41.3372 53.2723C42.9086 52.5965 44.2643 51.89 45.4352 51.1835V46.3916C43.7713 46.7602 41.6762 47.4052 39.0571 48.5725C37.6089 49.2176 34.6201 51.3985 33.0487 53.0573C34.312 49.9855 35.7602 47.0981 37.4241 44.3642C38.5333 44.7943 42.9086 44.7328 45.4352 44.3642V39.173C45.2503 39.2037 45.0654 39.2651 44.8806 39.2958C43.4632 39.6337 40.5053 41.0774 38.6874 42.3676C40.9059 39.0194 43.4324 35.9169 46.3288 33.0295C46.3288 33.0909 46.3288 33.1523 46.3288 33.1831C46.3904 33.4288 47.284 33.736 48.4856 34.0124C53.4156 32.7223 58.3455 31.5857 63.3063 30.6028C61.7041 30.0499 58.9618 29.5584 54.3708 29.8656C52.7686 29.9577 48.9478 31.125 47.2223 32.1694C49.5332 29.9577 52.0907 27.8997 54.8638 25.9645C55.0179 26.5788 60.2867 27.5925 62.5052 27.5003C68.8525 27.2853 72.0878 25.3194 72.0878 25.3194C72.0878 25.3194 70.8553 22.8313 62.1663 23.1692C61.0878 23.1999 58.9001 23.7528 57.2055 24.3979C58.7461 23.4149 60.3175 22.4627 61.9814 21.5719V21.4183C63.3988 21.3876 66.7572 21.0497 71.1634 18.8687C73.197 17.855 77.3567 14.3533 77.1718 13.6775C76.8329 12.5409 70.8553 13.6775 69.0682 14.5068C63.2755 17.3328 61.8273 19.6674 61.4576 20.7732C58.9618 22.0019 56.5892 23.3842 54.3399 24.8893C55.6649 23.5378 57.3904 21.4797 58.9926 18.4694C60.1327 16.3192 61.5808 10.5443 60.9954 10.0835C59.9786 9.31559 55.3876 14.0461 54.3708 15.9506C50.4576 23.1692 51.4436 26.0259 51.8133 26.7324C49.7489 28.3297 47.7769 30.0499 45.959 31.8929C46.8218 30.357 47.7461 28.4219 48.5164 26.0566C49.3483 23.5071 49.8106 17.0257 49.0711 16.6263C47.8386 15.9813 43.7713 21.9712 43.0318 24.2136C40.4436 31.9544 41.5528 35.0875 42.1691 36.1012C40.5977 37.975 39.1803 39.9716 37.8246 42.0297C38.3176 40.4938 38.7797 38.6815 39.0879 36.5313C39.4576 33.8896 38.7798 27.4082 37.9787 27.1624C36.6537 26.7324 33.6958 33.3366 33.3568 35.6712C32.1552 43.8113 33.819 46.668 34.5893 47.5281C33.5725 49.494 32.6173 51.5214 31.7854 53.5487C31.9086 52.32 31.9395 50.9377 31.8778 49.4326C31.7854 46.7602 29.9983 40.4938 29.1663 40.4017C27.7798 40.2174 26.0235 47.2209 26.0851 49.5862C26.3008 57.2348 28.1495 59.9687 29.1663 60.8902C28.4885 63.1019 27.9339 65.375 27.4717 67.648C27.3793 66.2043 27.1944 64.5456 26.7938 62.7025C26.2392 60.0915 23.4045 54.2245 22.5417 54.2552C21.1552 54.3167 20.6314 61.5353 21.1244 63.8391C22.7883 71.8871 25.3149 74.0066 26.3625 74.5595C26.3317 74.8974 26.27 75.2045 26.2392 75.5117C25.9927 77.6927 25.8695 79.8429 25.7462 81.9317C25.4073 80.3651 24.8835 78.5835 24.0823 76.6175C23.0655 74.1294 19.2449 68.8767 18.4438 69.061C17.088 69.3682 17.8275 76.5561 18.721 78.7371C21.679 86.2321 24.5138 87.9523 25.6846 88.3823C25.7463 91.0547 25.9003 93.635 26.1468 96.1231C25.5306 94.5565 24.6678 92.8056 23.4662 90.8397C22.0488 88.5666 17.3653 84.0512 16.595 84.3583C15.3009 84.8805 17.3037 91.8227 18.5362 93.85C22.7266 100.608 25.7771 101.898 27.0095 102.144C27.4409 104.54 27.9955 106.844 28.6117 109.055C27.7798 107.765 26.7322 106.352 25.4072 104.878C23.6201 102.881 18.2281 99.2563 17.4886 99.6864C16.3177 100.424 19.4914 106.936 21.0628 108.687C26.1468 114.369 29.3205 115.291 30.6762 115.352C31.4157 117.287 32.2168 119.131 33.0795 120.943C32.2168 120.083 31.1999 119.161 30.0291 118.27C27.903 116.612 21.9563 113.97 21.3401 114.523C20.3233 115.475 24.5754 121.311 26.4241 122.786C32.0935 127.271 35.3288 127.824 36.8386 127.731C37.9479 129.482 39.0879 131.141 40.2896 132.738C39.3036 132.063 38.1635 131.356 36.9002 130.68C34.5277 129.421 28.2112 127.854 27.6874 128.499C26.8247 129.605 32.0319 134.612 34.1271 135.749C40.721 139.312 44.0178 139.158 45.3736 138.759" fill="#4B5155"/>
<path d="M52.3376 148.834C50.0267 148.281 47.7466 147.698 45.4665 147.053V141.585C42.6625 140.848 36.8391 140.448 36.4693 141.155C35.8223 142.384 41.8307 146.438 44.08 147.175C47.8082 148.404 50.4581 148.804 52.3376 148.804" fill="#4B5155"/>
<path d="M185.629 141.585V147.053C183.349 147.667 181.038 148.251 178.758 148.804C180.637 148.804 183.287 148.404 187.015 147.176C189.265 146.438 195.273 142.384 194.626 141.155C194.256 140.448 188.433 140.848 185.629 141.585Z" fill="#4B5155"/>
<path d="M174.138 151.015C172.536 151.23 171.149 151.537 169.886 151.906C170.656 151.415 171.426 150.892 172.197 150.37C170.841 150.677 169.485 150.954 168.129 151.23C168.129 151.261 168.129 151.292 168.129 151.322C164.709 153.503 161.073 155.5 157.253 157.312C158.516 156.206 160.18 154.179 161.258 152.49C159.471 152.797 157.653 153.104 155.866 153.38C155.404 155.654 155.188 157.773 155.558 158.049C152.2 159.555 148.687 160.906 145.082 162.104C146.931 160.599 149.087 158.357 149.827 157.128C150.536 155.991 151.121 154.947 151.614 153.995C149.365 154.302 147.085 154.578 144.805 154.824C143.572 157.251 142.093 161.643 142.093 163.026C141.877 163.087 141.631 163.179 141.415 163.241C141.169 163.302 138.365 164.039 134.359 164.715C135.992 163.271 137.687 161.459 138.334 160.415C139.567 158.387 140.46 156.667 141.076 155.223C138.95 155.438 136.855 155.592 134.729 155.746C134.39 156.237 134.051 156.759 133.712 157.312C132.634 159.094 131.186 163.056 130.723 165.237C130.446 165.268 130.138 165.299 129.861 165.36C129.676 165.36 129.491 165.391 129.275 165.422C113.869 168.432 101.698 165.422 101.698 165.422C101.483 165.422 101.298 165.391 101.113 165.36C100.836 165.33 100.527 165.299 100.25 165.237C99.788 163.056 98.3398 159.063 97.2614 157.312C96.9224 156.759 96.5835 156.237 96.2446 155.746C94.1186 155.592 92.0233 155.408 89.8973 155.223C90.5135 156.667 91.407 158.387 92.6395 160.415C93.2866 161.459 94.9813 163.302 96.6143 164.715C92.6087 164.039 89.774 163.302 89.5583 163.241C89.3426 163.179 89.0961 163.087 88.8804 163.026C88.8804 161.643 87.4323 157.251 86.169 154.824C83.8888 154.578 81.6088 154.302 79.3595 153.995C79.8525 154.947 80.438 155.991 81.1466 157.128C81.9169 158.357 84.0429 160.63 85.8917 162.104C82.2866 160.906 78.7741 159.555 75.4155 158.049C75.7853 157.804 75.5696 155.684 75.1074 153.38C73.3203 153.104 71.5024 152.797 69.7152 152.49C70.8245 154.148 72.4576 156.176 73.7209 157.312C69.9002 155.5 66.2643 153.503 62.8442 151.322C62.8442 151.292 62.8442 151.261 62.8442 151.23C61.4884 150.954 60.1327 150.677 58.777 150.37C59.5473 150.892 60.3176 151.415 61.0879 151.906C59.8246 151.568 58.4072 151.261 56.8358 151.015C54.1859 150.647 47.6846 151.322 47.4381 152.121C47.0067 153.442 53.6313 156.391 55.973 156.729C63.368 157.804 66.4183 156.575 67.5892 155.746C70.085 157.097 72.55 158.295 74.9225 159.37C73.2278 159.094 71.1635 158.94 68.7909 159.032C66.1103 159.125 59.8246 160.906 59.7321 161.736C59.5472 163.118 66.5724 164.869 68.9449 164.807C76.8637 164.592 79.5136 162.626 80.3763 161.643C83.5192 162.872 86.4463 163.824 88.9729 164.562C87.2782 164.285 85.2138 164.132 82.8413 164.224C80.1606 164.316 73.8749 166.097 73.7825 166.927C73.5976 168.309 80.6228 170.06 82.9953 169.999C93.5639 169.691 94.7656 166.282 94.7656 166.282C94.7656 166.282 94.5191 166.128 94.0261 165.944C96.7684 166.62 98.4939 166.896 98.802 166.958C99.5107 167.08 100.497 167.203 101.698 167.326C116.827 169.999 129.275 167.326 129.275 167.326C130.477 167.203 131.463 167.08 132.172 166.958C132.48 166.927 134.205 166.62 136.947 165.944C136.454 166.159 136.208 166.282 136.208 166.282C136.208 166.282 137.41 169.691 147.978 169.999C150.351 170.06 157.376 168.309 157.191 166.927C157.068 166.097 150.813 164.316 148.132 164.224C145.76 164.132 143.695 164.316 142.001 164.562C144.558 163.824 147.454 162.841 150.597 161.643C151.429 162.626 154.079 164.592 161.998 164.807C164.37 164.869 171.396 163.118 171.211 161.736C171.087 160.906 164.833 159.125 162.152 159.032C159.748 158.94 157.715 159.125 156.02 159.37C158.393 158.295 160.858 157.097 163.354 155.746C164.524 156.575 167.575 157.834 174.939 156.729C177.281 156.391 183.905 153.442 183.474 152.121C183.227 151.322 176.726 150.647 174.076 151.015" fill="#4B5155"/>
<path d="M47.6213 145.425C92.0833 157.251 139.01 157.251 183.472 145.425V36.5006C139.01 24.6743 92.1141 24.6743 47.6213 36.5006V145.425ZM115.531 158.572C91.7751 158.572 67.9881 155.408 44.879 149.111L43.3076 148.681V33.2138L44.879 32.7838C91.0973 20.1896 139.965 20.1896 186.184 32.7838L187.755 33.2138V148.681L186.184 149.111C163.075 155.408 139.318 158.572 115.531 158.572Z" fill="#4B5155"/>
<path d="M87.8626 60.6135H89.927L88.9102 57.6339L87.8626 60.6135ZM88.1399 55.4836H89.6805L92.5152 63.4395H90.913L90.42 62.0572H87.3696L86.8766 63.4395H85.2744L88.1091 55.4836H88.1399Z" fill="#4B5155"/>
<path d="M95.7223 56.8966V62.0572H96.2768C98.0023 62.0572 99.0808 60.9514 99.0808 59.4769C99.0808 58.0025 98.1564 56.8966 96.2153 56.8966H95.7223ZM94.1816 55.4836H96.3693C99.0808 55.4836 100.591 57.2038 100.591 59.4769C100.591 61.75 98.8651 63.4395 96.431 63.4395H94.1816V55.4836Z" fill="#4B5155"/>
<path d="M101.575 55.4836H103.147L104.995 61.1357L106.844 55.4836H108.446L105.766 63.4395H104.225L101.575 55.4836Z" fill="#4B5155"/>
<path d="M110.943 60.6135H113.007L111.99 57.6339L110.943 60.6135ZM111.189 55.4836H112.73L115.565 63.4395H113.962L113.469 62.0572H110.388L109.895 63.4395H108.293L111.128 55.4836H111.189Z" fill="#4B5155"/>
<path d="M117.228 55.4836H118.953L122.373 60.8285V55.4836H123.883V63.4395H122.25L118.768 57.9103V63.4395H117.228V55.4836Z" fill="#4B5155"/>
<path d="M125.64 59.4463C125.64 57.081 127.427 55.3608 129.738 55.3608C131.248 55.3608 132.542 56.1595 133.25 57.3268L131.925 58.1868C131.463 57.3575 130.785 56.866 129.769 56.866C128.29 56.866 127.18 58.0025 127.18 59.4463C127.18 60.89 128.259 62.0265 129.738 62.0265C130.847 62.0265 131.586 61.4122 132.018 60.5521L133.404 61.2893C132.696 62.6409 131.371 63.5624 129.769 63.5624C127.304 63.5624 125.67 61.7501 125.67 59.477" fill="#4B5155"/>
<path d="M134.975 55.4836H139.72V56.9274H136.515V58.709H139.72V60.1834H136.515V61.9957H139.72V63.4395H134.975V55.4836Z" fill="#4B5155"/>
<path d="M143.109 56.8966V62.0572H143.664C145.389 62.0572 146.468 60.9514 146.468 59.4769C146.468 58.0025 145.544 56.8966 143.572 56.8966H143.079H143.109ZM141.6 55.4836H143.787C146.499 55.4836 148.009 57.2038 148.009 59.4769C148.009 61.75 146.283 63.4395 143.849 63.4395H141.6V55.4836Z" fill="#4B5155"/>
<path d="M63.3359 90.9625C63.3359 83.3139 69.0978 77.8154 76.5236 77.8154C81.3303 77.8154 85.5207 80.3343 87.77 84.1432L83.487 86.8771C82.0389 84.2047 79.7896 82.6074 76.5236 82.6074C71.7477 82.6074 68.2042 86.2627 68.2042 90.9318C68.2042 95.6008 71.7169 99.1948 76.4311 99.1948C79.9437 99.1948 82.4086 97.1674 83.7028 94.4336L88.1706 96.7681C85.9213 101.099 81.6384 104.048 76.5236 104.048C68.574 104.048 63.3359 98.2118 63.3359 90.9011" fill="#4B5155"/>
<path d="M97.5701 94.6486H104.164L100.867 85.1262L97.5701 94.6486ZM98.4329 78.1841H103.332L112.422 103.741H107.338L105.797 99.287H95.9371L94.3965 103.741H89.3125L98.402 78.1841H98.4329Z" fill="#4B5155"/>
<path d="M115.996 78.1841H120.864L128.537 88.8123L136.517 78.1841H141.139V103.741H136.24V86.017L128.506 96.4302L120.895 86.1399V103.741H115.996V78.1841Z" fill="#4B5155"/>
<path d="M144.618 99.502L149.086 96.0002C150.349 98.1811 152.352 99.4405 154.632 99.4405C157.128 99.4405 158.453 97.8432 158.453 96.0923C158.453 94.0035 155.895 93.3277 153.153 92.4677C149.702 91.4233 145.881 90.1024 145.881 85.1876C145.881 81.1022 149.456 77.8154 154.417 77.8154C158.607 77.8154 160.98 79.382 163.075 81.5323L159.038 84.5733C157.991 83.0067 156.481 82.1466 154.478 82.1466C152.198 82.1466 150.965 83.3753 150.965 84.9726C150.965 86.9385 153.43 87.6143 156.173 88.5051C159.655 89.6109 163.598 91.1775 163.598 96.0616C163.598 100.116 160.363 104.048 154.725 104.048C150.072 104.048 146.991 102.082 144.68 99.4712" fill="#4B5155"/>
<path d="M103.083 122.816H105.147L104.131 119.837L103.114 122.816H103.083ZM103.329 117.687H104.87L107.705 125.642H106.133L105.64 124.26H102.559L102.066 125.642H100.464L103.299 117.687H103.329Z" fill="#4B5155"/>
<path d="M108.354 122.909V117.717H109.864V123.031C109.864 123.799 110.45 124.383 111.22 124.383C111.99 124.383 112.607 123.799 112.607 123.031V117.717H114.116V122.909C114.116 124.813 112.884 125.765 111.22 125.765C109.556 125.765 108.354 124.782 108.354 122.909Z" fill="#4B5155"/>
<path d="M117.043 119.1V124.26H117.598C119.323 124.26 120.402 123.154 120.402 121.68C120.402 120.205 119.477 119.1 117.536 119.1H117.043ZM115.533 117.687H117.721C120.432 117.687 121.942 119.407 121.942 121.68C121.942 123.953 120.217 125.642 117.783 125.642H115.533V117.687Z" fill="#4B5155"/>
<path d="M124.716 117.687H123.206V125.642H124.716V117.687Z" fill="#4B5155"/>
<path d="M128.135 119.13H126.04V117.687H131.802V119.13H129.676V125.642H128.135V119.13Z" fill="#4B5155"/>
<path d="M164.739 102.604H164.585V102.236H164.739C164.739 102.236 164.955 102.328 164.955 102.42C164.955 102.512 164.862 102.574 164.739 102.574M164.955 102.789C164.955 102.789 165.201 102.604 165.201 102.451C165.201 102.236 165.047 102.082 164.801 102.082H164.369V103.25H164.585V102.819H164.677L164.924 103.25H165.201L164.924 102.819L164.955 102.789Z" fill="#4B5155"/>
<path d="M164.738 103.526C164.214 103.526 163.875 103.157 163.875 102.635C163.875 102.113 164.245 101.744 164.738 101.744C165.2 101.744 165.57 102.113 165.57 102.635C165.57 103.157 165.2 103.526 164.738 103.526ZM164.738 101.56C164.122 101.56 163.629 102.051 163.629 102.666C163.629 103.28 164.122 103.771 164.738 103.771C165.354 103.771 165.847 103.28 165.847 102.666C165.847 102.051 165.354 101.56 164.738 101.56Z" fill="#4B5155"/>
</svg>
