<svg width="232" height="180" viewBox="0 0 232 180" fill="none" xmlns="http://www.w3.org/2000/svg">
<path d="M183.789 144.627C139.243 156.509 92.2395 156.509 47.6934 144.627V35.4206C92.2395 23.5694 139.243 23.5694 183.789 35.4206V144.627Z" fill="white"/>
<path d="M87.136 90.464C87.136 88.0749 89.0262 86.2202 91.389 86.2202C92.9327 86.2202 94.3188 87.069 95.0434 88.2949L93.9723 88.9551C93.4682 88.012 92.5546 87.3833 91.389 87.3833C89.6563 87.3833 88.3646 88.735 88.3646 90.4325C88.3646 92.1301 89.6563 93.4503 91.3575 93.4503C92.6491 93.4503 93.5627 92.7588 94.0353 91.7528L95.1379 92.3501C94.4133 93.7333 93.0587 94.6763 91.3575 94.6763C88.9002 94.6763 87.1045 92.7902 87.1045 90.4325" fill="#827A2B"/>
<path d="M96.5557 86.3457H101.533V87.5088H97.7843V89.8665H101.533V91.0296H97.7843V93.3872H101.533V94.5817H96.5557V86.3457Z" fill="#827A2B"/>
<path d="M103.234 86.3459H105.818C107.582 86.3459 108.748 87.5404 108.748 89.0179C108.748 90.1181 108.149 91.1555 106.952 91.5013L108.905 94.5505H107.487L104.999 90.6211H105.66C106.889 90.6211 107.487 89.7409 107.487 88.9865C107.487 88.0748 106.889 87.4461 105.66 87.4461H104.463V94.5505H103.234V86.3145V86.3459Z" fill="#827A2B"/>
<path d="M112.181 87.4774H109.85V86.3457H115.741V87.4774H113.41V94.5817H112.181V87.4774Z" fill="#827A2B"/>
<path d="M118.671 86.3457H117.442V94.5817H118.671V86.3457Z" fill="#827A2B"/>
<path d="M120.562 86.3457H125.256V87.5088H121.822V89.8665H125.256V91.0296H121.822V94.5817H120.562V86.3457Z" fill="#827A2B"/>
<path d="M128.311 86.3457H127.082V94.5817H128.311V86.3457Z" fill="#827A2B"/>
<path d="M130.201 86.3457H135.179V87.5088H131.461V89.8665H135.179V91.0296H131.461V93.3872H135.179V94.5817H130.201V86.3457Z" fill="#827A2B"/>
<path d="M138.109 87.4459V93.4186H139.085C140.975 93.4186 142.267 92.1298 142.267 90.4323C142.267 88.7348 141.133 87.4459 139.054 87.4459H138.14H138.109ZM136.88 86.3457H139.18C141.857 86.3457 143.496 88.1375 143.496 90.4637C143.496 92.7899 141.668 94.5817 139.211 94.5817H136.88V86.3457Z" fill="#827A2B"/>
<path d="M80.237 105.584H82.8519L81.5287 101.969L80.2055 105.584H80.237ZM80.9301 100.271H82.1903L85.2146 108.508H83.923L83.2614 106.747H79.7645L79.1344 108.508H77.8428L80.8671 100.271H80.9301Z" fill="#827A2B"/>
<path d="M86.6943 100.271H88.0805L92.2705 106.527V100.271H93.4991V108.539H92.176L87.923 102.189V108.539H86.6943V100.271Z" fill="#827A2B"/>
<path d="M97.4377 101.435H95.1064V100.271H100.998V101.435H98.6664V108.539H97.4377V101.435Z" fill="#827A2B"/>
<path d="M103.896 100.271H102.667V108.508H103.896V100.271Z" fill="#827A2B"/>
<path d="M109.881 104.547H105.691V105.616H109.881V104.547Z" fill="#827A2B"/>
<path d="M111.551 100.271H112.779L115.583 104.169L118.482 100.271H119.647V108.539H118.419V102.252L115.552 106.087L112.779 102.346V108.539H111.551V100.271Z" fill="#827A2B"/>
<path d="M128.468 104.421C128.468 102.755 127.145 101.372 125.475 101.372C123.806 101.372 122.483 102.755 122.483 104.421C122.483 106.087 123.806 107.47 125.475 107.47C127.145 107.47 128.468 106.087 128.468 104.421ZM121.254 104.421C121.254 102.095 123.144 100.177 125.475 100.177C127.807 100.177 129.728 102.063 129.728 104.421C129.728 106.779 127.838 108.665 125.475 108.665C123.113 108.665 121.254 106.779 121.254 104.421Z" fill="#827A2B"/>
<path d="M131.304 100.271H132.69L136.88 106.527V100.271H138.108V108.539H136.817L132.532 102.189V108.539H131.304V100.271Z" fill="#827A2B"/>
<path d="M139.936 100.271H144.913V101.435H141.164V103.824H144.913V104.987H141.164V107.344H144.913V108.539H139.936V100.271Z" fill="#827A2B"/>
<path d="M148.914 104.61L146.236 100.271H147.591L149.513 103.446L151.466 100.271H152.821L150.143 104.641V108.539H148.914V104.61Z" fill="#827A2B"/>
<path d="M79.1025 114.229H80.3312V121.302H83.6706V122.496H79.1025V114.229Z" fill="#827A2B"/>
<path d="M87.4516 119.542H90.0664L88.7433 115.927L87.4201 119.542H87.4516ZM88.1447 114.229H89.4049L92.4292 122.465H91.1376L90.5075 120.705H87.0106L86.3805 122.465H85.0889L88.1132 114.229H88.1447Z" fill="#827A2B"/>
<path d="M93.4678 119.699V114.229H94.6964V119.762C94.6964 120.673 95.421 121.428 96.3346 121.428C97.2482 121.428 98.0358 120.673 98.0358 119.762V114.229H99.2644V119.699C99.2644 121.459 98.0358 122.591 96.3661 122.591C94.6964 122.591 93.4678 121.459 93.4678 119.699Z" fill="#827A2B"/>
<path d="M101.092 114.229H102.478L106.668 120.485V114.229H107.897V122.496H106.573L102.32 116.147V122.496H101.092V114.229Z" fill="#827A2B"/>
<path d="M110.953 115.361V121.333H111.93C113.82 121.333 115.112 120.045 115.112 118.347C115.112 116.65 113.978 115.361 111.898 115.361H110.985H110.953ZM109.725 114.229H112.024C114.702 114.229 116.372 116.021 116.372 118.347C116.372 120.673 114.545 122.465 112.087 122.465H109.756V114.229H109.725Z" fill="#827A2B"/>
<path d="M117.946 114.229H122.892V115.392H119.175V117.75H122.892V118.913H119.175V121.302H122.892V122.496H117.946V114.229Z" fill="#827A2B"/>
<path d="M124.594 114.229H127.177C128.941 114.229 130.107 115.423 130.107 116.901C130.107 118.001 129.508 119.039 128.311 119.384L130.264 122.434H128.847L126.358 118.504H127.02C128.248 118.504 128.847 117.624 128.847 116.87C128.847 115.958 128.248 115.329 127.02 115.329H125.822V122.434H124.594V114.198V114.229Z" fill="#827A2B"/>
<path d="M133.1 114.229H131.871V122.465H133.1V114.229Z" fill="#827A2B"/>
<path d="M134.99 114.229H136.408L140.598 120.485V114.229H141.795V122.496H140.503L136.25 116.147V122.496H134.99V114.229Z" fill="#827A2B"/>
<path d="M143.401 118.347C143.401 115.989 145.197 114.103 147.686 114.103C149.324 114.103 150.679 114.952 151.403 116.241L150.332 116.869C149.797 115.863 148.883 115.266 147.686 115.266C145.89 115.266 144.63 116.649 144.63 118.315C144.63 119.981 145.922 121.365 147.686 121.365C149.261 121.365 150.238 120.422 150.49 119.101H147.528V117.938H151.781V118.378C151.781 120.61 150.269 122.559 147.686 122.559C145.103 122.559 143.401 120.642 143.401 118.315" fill="#827A2B"/>
<path d="M83.1038 135.039L84.1749 134.19C84.6474 134.976 85.309 135.385 86.1596 135.385C87.0732 135.385 87.6403 134.788 87.6403 134.065C87.6403 133.216 86.7267 132.933 85.7816 132.65C84.679 132.273 83.4503 131.833 83.4503 130.324C83.4503 129.066 84.5844 128.061 86.0966 128.061C87.3568 128.061 88.1444 128.532 88.7744 129.287L87.7663 130.041C87.3883 129.475 86.8527 129.161 86.0966 129.161C85.246 129.161 84.7105 129.664 84.7105 130.292C84.7105 131.078 85.5926 131.33 86.5377 131.644C87.6718 132.021 88.9004 132.524 88.9004 134.065C88.9004 135.322 87.8608 136.548 86.1596 136.548C84.742 136.548 83.7653 135.951 83.0723 135.039" fill="#827A2B"/>
<path d="M91.7667 129.318V132.839H93.1529C94.287 132.839 94.9801 132.084 94.9801 131.078C94.9801 130.072 94.2555 129.318 93.1529 129.318H91.7667ZM90.5381 128.186H93.2474C95.0116 128.186 96.2402 129.444 96.2402 131.078C96.2402 132.713 95.0116 133.97 93.2474 133.97H91.7667V136.422H90.5381V128.186Z" fill="#827A2B"/>
<path d="M97.8789 128.186H102.825V129.349H99.1075V131.707H102.825V132.87H99.1075V135.259H102.825V136.422H97.8789V128.186Z" fill="#827A2B"/>
<path d="M104.368 132.304C104.368 129.915 106.258 128.061 108.621 128.061C110.165 128.061 111.551 128.909 112.276 130.135L111.204 130.795C110.7 129.852 109.787 129.224 108.621 129.224C106.888 129.224 105.597 130.575 105.597 132.273C105.597 133.97 106.888 135.291 108.59 135.291C109.85 135.291 110.763 134.599 111.267 133.593L112.37 134.19C111.646 135.574 110.291 136.517 108.621 136.517C106.164 136.517 104.368 134.631 104.368 132.273" fill="#827A2B"/>
<path d="M115.079 128.186H113.851V136.422H115.079V128.186Z" fill="#827A2B"/>
<path d="M118.986 133.499H121.601L120.278 129.884L118.955 133.499H118.986ZM119.679 128.186H120.939L123.964 136.422H122.672L122.01 134.662H118.514L117.883 136.422H116.592L119.616 128.186H119.679Z" fill="#827A2B"/>
<path d="M125.444 128.186H126.673V135.259H130.012V136.422H125.444V128.186Z" fill="#827A2B"/>
<path d="M133.036 128.186H131.808V136.422H133.036V128.186Z" fill="#827A2B"/>
<path d="M134.486 135.039L135.557 134.19C136.029 134.976 136.691 135.385 137.541 135.385C138.455 135.385 139.022 134.788 139.022 134.065C139.022 133.216 138.109 132.933 137.163 132.65C136.061 132.273 134.832 131.833 134.832 130.324C134.832 129.066 135.966 128.061 137.478 128.061C138.739 128.061 139.526 128.532 140.156 129.287L139.148 130.041C138.77 129.475 138.235 129.161 137.478 129.161C136.628 129.161 136.092 129.664 136.092 130.292C136.092 131.078 136.974 131.33 137.919 131.644C139.054 132.021 140.282 132.524 140.282 134.065C140.282 135.322 139.243 136.548 137.541 136.548C136.124 136.548 135.147 135.951 134.454 135.039" fill="#827A2B"/>
<path d="M143.748 129.349H141.385V128.186H147.307V129.349H144.945V136.422H143.748V129.349Z" fill="#827A2B"/>
<path d="M195.005 101.246C196.265 103.761 200.581 109.011 201.368 108.822C200.171 112.783 198.659 116.618 196.832 120.296C197.305 118.064 197.052 113.443 196.517 111.683C193.43 101.089 189.901 100.617 189.901 100.617C189.901 100.617 188.83 105.333 191.13 113.034C191.917 115.706 195.257 121.648 196.076 121.585C196.107 121.585 196.139 121.585 196.17 121.585C194.312 125.137 192.169 128.501 189.744 131.707C190.5 129.444 191.004 125.263 190.783 123.534C190.153 117.844 188.956 114.795 187.916 113.223V59.5315C189.271 61.009 191.256 62.8637 194.091 64.7184C196.013 65.9758 200.707 67.8305 202.471 68.0505C202.944 70.2824 203.322 72.6086 203.668 74.9977C203.826 76.0665 203.952 77.1353 204.046 78.2041C202.975 76.1608 201.305 73.7717 200.329 72.8287C192.358 65.2213 189.051 66.5416 189.051 66.5416C189.051 66.5416 190.468 71.1626 196.328 76.6638C198.092 78.3298 202.66 81.0962 204.33 81.5677C204.582 85.3399 204.55 89.0493 204.298 92.6643C203.668 90.3381 202.251 87.1632 201.337 85.9058C194.816 77.0096 191.319 77.764 191.319 77.764C191.319 77.764 191.917 82.5736 196.737 89.0178C198.281 91.0926 202.786 95.022 204.078 95.3678C203.637 99.3915 202.881 103.321 201.841 107.125C201.841 104.735 200.833 100.586 200.045 99.0143C195.162 89.1122 191.602 89.2693 191.602 89.2693C191.602 89.2693 191.35 94.1104 194.973 101.278M187.979 133.939V132.273C188.231 132.744 188.452 133.09 188.641 133.122C188.42 133.404 188.2 133.656 187.979 133.939ZM187.979 52.4586C188.546 52.7415 189.145 53.0244 189.775 53.3074C192.043 54.2818 197.714 55.3821 198.817 55.0363C200.014 58.1798 200.99 61.4805 201.841 64.9698C200.486 63.178 198.439 61.1033 197.336 60.3489C192.799 57.3311 189.838 56.3251 188.011 56.0737V52.4586H187.979ZM187.979 44.6312C190.311 44.7884 192.863 44.7255 193.713 44.4112C195.351 47.146 196.832 50.0381 198.061 53.0873C196.517 51.4212 193.524 49.2208 192.075 48.5921C190.531 47.9005 189.177 47.3975 187.979 47.0203V44.6312ZM187.979 36.5209C189.586 38.407 191.098 40.356 192.453 42.3993C191.193 41.5191 189.429 40.5761 187.979 39.9473V36.5209ZM183.663 144.627C139.117 156.478 92.1139 156.478 47.5677 144.627V35.4207C92.1454 23.5696 139.117 23.5696 183.663 35.4207V144.627ZM157.358 157.358C158.271 156.572 159.343 155.346 160.288 154.089C161.926 153.806 163.564 153.523 165.234 153.209C162.714 154.686 160.099 156.069 157.389 157.358M155.657 158.113C152.286 159.622 148.82 160.973 145.166 162.168C147.025 160.69 149.167 158.396 149.923 157.17C150.301 156.572 150.616 156.006 150.931 155.472C152.538 155.252 154.113 155.032 155.688 154.812C155.436 156.509 155.342 157.893 155.625 158.081M142.236 163.111C142.016 163.174 141.795 163.268 141.575 163.331C141.354 163.394 138.519 164.148 134.518 164.808C136.156 163.362 137.826 161.539 138.487 160.502C139.369 159.087 140.062 157.83 140.598 156.698C141.827 156.572 143.087 156.447 144.315 156.321C143.244 158.773 142.236 162.011 142.268 163.142M133.856 157.39C132.785 159.15 131.336 163.142 130.863 165.311C130.58 165.343 130.265 165.374 129.981 165.406C129.792 165.406 129.603 165.437 129.414 165.468C114.009 168.486 101.848 165.468 101.848 165.468C101.628 165.468 101.439 165.437 101.281 165.406C100.966 165.374 100.683 165.343 100.399 165.311C99.9268 163.142 98.4776 159.15 97.4065 157.39C97.375 157.327 97.312 157.264 97.2805 157.201C103.392 157.61 109.504 157.83 115.647 157.83C121.79 157.83 127.902 157.61 134.014 157.201C133.982 157.264 133.919 157.327 133.888 157.39M89.6566 163.331C89.4361 163.268 89.2155 163.205 88.9635 163.111C88.9635 161.948 87.9554 158.741 86.9158 156.289C88.1444 156.415 89.4046 156.541 90.6332 156.667C91.1688 157.798 91.8618 159.056 92.7439 160.47C93.4055 161.539 95.0752 163.362 96.7134 164.777C92.6809 164.117 89.8771 163.362 89.6566 163.299M75.543 158.113C75.8265 157.893 75.7635 156.541 75.4799 154.843C77.0551 155.063 78.6618 155.315 80.237 155.503C80.552 156.038 80.8671 156.604 81.2451 157.201C82.0012 158.427 84.1434 160.69 86.0022 162.199C82.3792 161.005 78.8823 159.653 75.5114 158.144M66.0289 153.209C67.667 153.523 69.3052 153.806 70.9749 154.089C71.92 155.346 72.9912 156.572 73.9048 157.358C71.1954 156.069 68.5807 154.686 66.0604 153.209M54.9711 25.9901C55.1286 26.5873 59.8541 27.499 62.2169 27.5304C57.8379 28.4106 53.4589 29.4165 49.1114 30.5168C50.9386 28.9136 52.8603 27.4047 54.9396 25.9586M176.26 26.0215C178.339 27.4675 180.293 29.0079 182.088 30.5796C177.741 29.4794 173.362 28.4735 168.983 27.5933C171.377 27.5618 176.103 26.6188 176.229 26.0529M43.2517 39.9473C41.8026 40.5761 40.0384 41.5191 38.7782 42.3993C40.1329 40.3246 41.645 38.3756 43.2517 36.5209V39.9473ZM43.2517 47.0517C42.0546 47.4289 40.6999 47.9319 39.1563 48.6235C37.7071 49.2522 34.7142 51.4527 33.1706 53.1187C34.4307 50.0381 35.8799 47.1775 37.5181 44.4426C38.3372 44.7569 40.9205 44.8198 43.2517 44.6626V47.0517ZM43.2517 56.0737C41.4245 56.3251 38.4632 57.3311 33.9266 60.3489C32.7925 61.1033 30.7763 63.1466 29.4216 64.9698C30.2407 61.4805 31.2488 58.1798 32.4145 55.0363C33.5171 55.4135 39.1878 54.2818 41.456 53.3074C42.0861 53.0244 42.6847 52.7415 43.2517 52.4586V56.0737ZM43.2517 113.16C42.2436 114.763 41.015 117.781 40.3849 123.471C40.1959 125.2 40.6684 129.381 41.456 131.644C39.0302 128.438 36.888 125.043 35.0293 121.522C35.0293 121.522 35.0923 121.522 35.1238 121.522C35.9429 121.585 39.2823 115.644 40.0699 112.972C42.3696 105.27 41.2985 100.555 41.2985 100.555C41.2985 100.555 37.7701 101.026 34.6827 111.62C34.1787 113.38 33.8951 118.001 34.3677 120.233C32.5405 116.587 31.0283 112.751 29.8312 108.759C30.6188 108.948 34.9348 103.698 36.1949 101.183C39.8178 94.0161 39.5658 89.175 39.5658 89.175C39.5658 89.175 36.0059 89.0493 31.1228 98.92C30.3352 100.492 29.3586 104.673 29.3271 107.03C28.2875 103.227 27.5314 99.2972 27.0904 95.2735C28.3505 94.9277 32.887 90.9983 34.4307 88.9235C39.2508 82.4793 39.8493 77.6697 39.8493 77.6697C39.8493 77.6697 36.3839 76.9153 29.8312 85.8114C28.9176 87.0689 27.4999 90.2438 26.8698 92.57C26.6178 88.955 26.5863 85.2456 26.8383 81.4734C28.508 81.0018 33.076 78.2041 34.8403 76.5695C40.6999 71.0683 42.1176 66.4473 42.1176 66.4473C42.1176 66.4473 38.8412 65.127 30.8393 72.7344C29.8312 73.6774 28.193 76.0665 27.1219 78.1098C27.2479 77.041 27.3739 75.9722 27.4999 74.9034C27.8464 72.5143 28.2245 70.1881 28.697 67.9562C30.4297 67.7362 35.1553 65.9129 37.077 64.6241C39.8808 62.7694 41.8971 60.9461 43.2517 59.4372V113.066V113.16ZM43.2517 133.939C43.0312 133.687 42.8107 133.404 42.5901 133.122C42.7792 133.059 42.9997 132.744 43.2517 132.273V133.939ZM205.779 104.956C204.424 106.433 203.385 107.848 202.566 109.136C203.196 106.905 203.731 104.61 204.172 102.221C205.432 102.001 208.457 100.712 212.647 93.9218C213.875 91.9099 215.892 84.9627 214.6 84.4283C213.812 84.1139 209.15 88.6406 207.732 90.904C206.504 92.853 205.653 94.6133 205.054 96.1851C205.306 93.7017 205.464 91.124 205.527 88.452C206.693 88.0434 209.496 86.3144 212.489 78.8014C213.371 76.6009 214.127 69.4022 212.741 69.1193C211.922 68.9307 208.11 74.2118 207.102 76.6952C206.283 78.6756 205.779 80.4674 205.432 82.0078C205.338 79.933 205.18 77.7954 204.96 75.595C204.928 75.2806 204.897 74.9663 204.834 74.6205C205.873 74.0546 208.394 71.9485 210.063 63.901C210.536 61.5748 210.063 54.3761 208.646 54.3133C207.795 54.2818 204.96 60.1288 204.393 62.7379C204.015 64.5612 203.794 66.2273 203.7 67.6733C203.227 65.4099 202.66 63.1466 201.999 60.9147C203.007 60.0031 204.865 57.2682 205.086 49.598C205.149 47.2403 203.385 40.2303 201.999 40.4189C201.148 40.5446 199.384 46.7688 199.289 49.4722C199.226 50.9811 199.289 52.3643 199.384 53.5903C198.533 51.547 197.588 49.5037 196.58 47.5547C197.368 46.7059 199.037 43.8453 197.84 35.6721C197.494 33.3459 194.564 26.7131 193.209 27.1532C192.421 27.4047 191.728 33.8803 192.106 36.5209C192.421 38.6585 192.863 40.4817 193.367 42.0221C192.043 39.9788 190.594 37.9669 189.019 36.0808C189.649 35.0749 190.752 31.9313 188.168 24.1983C187.412 21.9664 183.38 15.9622 182.12 16.6224C181.395 16.9996 181.836 23.5067 182.687 26.0529C183.348 28.1277 184.136 29.8566 184.892 31.2712C184.766 31.2398 184.609 31.2083 184.483 31.1769C182.876 29.6051 181.175 28.1277 179.379 26.7445C179.757 26.0529 180.734 23.1609 176.827 15.9622C175.788 14.0761 171.219 9.32937 170.211 10.0838C169.613 10.5553 171.062 16.308 172.196 18.477C173.803 21.4948 175.504 23.5696 176.859 24.9213C174.622 23.3809 172.259 21.9978 169.739 20.8033C169.392 19.703 167.912 17.3454 162.146 14.5476C160.351 13.6674 154.365 12.5986 154.019 13.6989C153.829 14.359 157.988 17.9112 160.036 18.9171C164.415 21.0862 167.786 21.432 169.172 21.4634V21.6206C170.873 22.5322 172.448 23.4753 173.96 24.4497C172.259 23.821 170.054 23.2552 168.983 23.2238C160.288 22.878 159.028 25.3928 159.028 25.3928C159.028 25.3928 159.437 25.6129 160.193 25.9586C130.706 20.9919 100.557 20.9919 71.0694 25.9586C71.8255 25.6443 72.2351 25.3928 72.2351 25.3928C72.2351 25.3928 70.9749 22.878 62.2799 23.2238C61.2088 23.2552 59.0035 23.7896 57.3023 24.4497C58.8145 23.4753 60.4212 22.5322 62.0594 21.6206V21.4634C63.4771 21.432 66.848 21.0862 71.227 18.9171C73.2432 17.9112 77.4332 14.3905 77.2126 13.6989C76.8661 12.5672 70.8804 13.6989 69.0847 14.5476C63.288 17.3768 61.8389 19.7345 61.4923 20.8033C59.0035 22.0292 56.6093 23.4124 54.3725 24.9213C55.7272 23.5696 57.4284 21.4948 59.035 18.477C60.1692 16.308 61.6498 10.5553 61.0198 10.0838C60.0117 9.29793 55.4121 14.0447 54.404 15.9622C50.4976 23.1923 51.4742 26.0529 51.8522 26.7445C50.0565 28.1277 48.3553 29.6051 46.7486 31.1769C46.6226 31.2083 46.4651 31.2398 46.3391 31.2712C47.0952 29.8566 47.8828 28.1277 48.5443 26.0529C49.3634 23.5067 49.836 17.031 49.1114 16.6224C47.8828 15.9622 43.8188 21.9664 43.0627 24.1983C40.4794 31.9628 41.582 35.0749 42.2121 36.0808C40.6684 37.9669 39.2193 39.9473 37.8646 42.0221C38.3687 40.4817 38.8097 38.6585 39.1247 36.5209C39.5028 33.8489 38.8412 27.4047 38.0221 27.1532C36.699 26.7131 33.7376 33.3459 33.3911 35.6721C32.1939 43.8453 33.8636 46.6745 34.6512 47.5547C33.6116 49.5351 32.698 51.547 31.8474 53.5903C31.9419 52.3643 32.0049 50.9811 31.9419 49.4722C31.8474 46.8002 30.0832 40.5446 29.2326 40.4189C27.8464 40.2303 26.0822 47.2403 26.1453 49.598C26.3658 57.2368 28.2245 59.9716 29.2326 60.9147C28.571 63.1466 28.004 65.4099 27.5314 67.6733C27.4369 66.2273 27.2479 64.5612 26.8383 62.7379C26.2713 60.1288 23.4359 54.2504 22.5853 54.3133C21.1992 54.3761 20.6951 61.5748 21.1677 63.901C22.8374 71.9485 25.3577 74.0861 26.3973 74.6205C26.3658 74.9348 26.3028 75.2492 26.2713 75.595C26.0507 77.7954 25.8932 79.933 25.7987 82.0078C25.4522 80.436 24.9481 78.6756 24.129 76.6952C23.1209 74.2118 19.309 68.9307 18.4899 69.1193C17.1352 69.4337 17.8913 76.6009 18.7419 78.8014C21.7032 86.283 24.5071 88.0434 25.6727 88.452C25.7357 91.124 25.8932 93.7017 26.1453 96.1851C25.5467 94.6448 24.6961 92.853 23.4674 90.904C22.0498 88.6406 17.3557 84.1139 16.5996 84.4283C15.308 84.9627 17.2927 91.9099 18.5529 93.9218C22.7429 100.68 25.7672 101.969 27.0274 102.221C27.4684 104.61 28.004 106.905 28.634 109.136C27.8149 107.848 26.7438 106.433 25.4207 104.956C23.625 102.975 18.2378 99.3286 17.5133 99.7687C16.3161 100.523 19.498 106.999 21.0732 108.791C26.1453 114.48 29.3271 115.392 30.6818 115.486C31.4064 117.404 32.2255 119.29 33.1076 121.082C32.2255 120.202 31.2488 119.321 30.0517 118.41C27.941 116.775 21.9868 114.103 21.3567 114.669C20.3171 115.612 24.6016 121.459 26.4288 122.937C32.0994 127.432 35.3443 127.966 36.825 127.872C37.9276 129.632 39.0617 131.298 40.2904 132.902C39.3138 132.21 38.1796 131.518 36.888 130.827C34.5252 129.569 28.193 127.998 27.6889 128.658C26.8383 129.758 32.0364 134.788 34.1157 135.919C38.4002 138.246 41.2985 138.969 43.1887 139.094V141.263C40.3219 140.855 36.7935 140.729 36.5099 141.263C35.9429 142.364 40.5739 145.633 43.1887 146.89V147.928L44.7639 148.368C48.2608 149.311 51.7577 150.191 55.2546 151.008C52.1988 150.977 47.7567 151.543 47.5362 152.203C47.1267 153.523 53.7424 156.478 56.0737 156.824C63.4456 157.924 66.5014 156.667 67.667 155.818C70.1558 157.17 72.6131 158.364 75.0074 159.433C73.3062 159.15 71.2585 158.993 68.8642 159.087C66.1864 159.181 59.9171 160.973 59.7911 161.791C59.6021 163.174 66.6274 164.903 68.9902 164.84C76.9291 164.62 79.5754 162.639 80.3945 161.665C83.5449 162.891 86.4747 163.834 88.995 164.588C87.2938 164.305 85.2461 164.148 82.8518 164.243C80.174 164.337 73.9048 166.129 73.7788 166.946C73.5897 168.329 80.615 170.058 82.9778 169.995C93.563 169.681 94.7602 166.286 94.7602 166.286C94.7602 166.286 94.5081 166.16 94.0041 165.94C96.7449 166.6 98.4776 166.915 98.7611 166.946C99.4542 167.072 100.462 167.197 101.659 167.323C116.781 169.995 129.225 167.323 129.225 167.323C130.422 167.197 131.43 167.072 132.123 166.946C132.407 166.915 134.14 166.6 136.912 165.94C136.408 166.16 136.156 166.286 136.156 166.286C136.156 166.286 137.353 169.681 147.907 169.995C150.27 170.058 157.295 168.298 157.106 166.946C156.98 166.097 150.711 164.337 148.033 164.243C145.639 164.148 143.591 164.337 141.89 164.588C144.41 163.834 147.34 162.859 150.49 161.665C151.341 162.639 153.987 164.62 161.894 164.84C164.257 164.903 171.283 163.142 171.093 161.791C170.967 160.973 164.698 159.181 162.02 159.087C159.626 158.993 157.578 159.181 155.877 159.433C158.271 158.364 160.729 157.17 163.218 155.818C164.383 156.635 167.439 157.893 174.811 156.824C177.142 156.478 183.789 153.555 183.348 152.203C183.128 151.543 178.686 150.977 175.63 151.008C179.158 150.191 182.655 149.342 186.121 148.368L187.696 147.928V146.89C190.342 145.633 194.973 142.332 194.375 141.263C194.091 140.729 190.563 140.823 187.696 141.263V139.094C189.555 138.969 192.453 138.214 196.769 135.919C198.848 134.788 204.078 129.758 203.196 128.658C202.692 127.998 196.359 129.569 193.997 130.827C192.705 131.518 191.571 132.21 190.594 132.902C191.791 131.298 192.957 129.632 194.06 127.872C195.54 127.966 198.785 127.432 204.456 122.937C206.315 121.459 210.568 115.612 209.528 114.669C208.898 114.103 202.975 116.775 200.833 118.41C199.667 119.321 198.659 120.233 197.777 121.082C198.659 119.29 199.447 117.435 200.203 115.486C201.589 115.423 204.739 114.512 209.811 108.791C211.387 107.03 214.568 100.523 213.371 99.7687C212.647 99.3286 207.26 102.975 205.464 104.956" fill="#827A2B"/>
<path d="M77.1172 69.088C72.4861 69.088 69.0207 65.4729 69.0207 60.9462C69.0207 56.4195 72.5176 52.7416 77.2117 52.7416C80.425 52.7416 82.6303 54.3448 84.048 56.9539L88.2694 54.2505C86.0642 50.5097 81.9372 47.9949 77.2117 47.9949C69.9028 47.9949 64.2637 53.4017 64.2637 60.9148C64.2637 68.4278 69.3988 73.8661 77.2117 73.8661C82.2207 73.8661 86.4422 70.9741 88.6475 66.6989L84.2685 64.3727C83.0083 67.0761 80.5826 69.0565 77.1172 69.0565" fill="#827A2B"/>
<path d="M97.9736 64.5612L101.219 55.162L104.463 64.5612H97.9736ZM98.7927 48.3406L89.8457 73.5203H94.8548L96.367 69.1193H106.039L107.551 73.5203H112.56L103.613 48.3406H98.7612H98.7927Z" fill="#827A2B"/>
<path d="M120.908 56.168L128.406 66.3216L136.029 56.0737V73.5203H140.818V48.3406H136.281L128.437 58.84L120.876 48.3406H116.119V73.5203H120.908V56.168Z" fill="#827A2B"/>
<path d="M154.112 69.2764C151.876 69.2764 149.891 68.0505 148.662 65.9129L144.283 69.3707C146.551 71.9484 149.607 73.8974 154.175 73.8974C159.751 73.8974 162.933 70.0309 162.933 66.0386C162.933 61.1976 159.058 59.6887 155.625 58.5884C152.915 57.6768 150.521 57.0167 150.521 55.0991C150.521 53.4959 151.75 52.3014 153.986 52.3014C155.971 52.3014 157.452 53.1187 158.491 54.6905L162.461 51.7041C160.413 49.5979 158.082 48.0576 153.955 48.0576C149.072 48.0576 145.543 51.264 145.543 55.3192C145.543 60.1602 149.324 61.4491 152.695 62.4864C155.404 63.3037 157.924 63.9639 157.924 66.0386C157.924 67.7675 156.601 69.3393 154.144 69.3393" fill="#827A2B"/>
<path d="M164.194 71.697H164.383C164.54 71.697 164.635 71.7913 164.635 71.9171C164.635 72.0428 164.54 72.1371 164.383 72.1371H164.194V71.697ZM164.194 72.3572H164.288L164.603 72.8916H164.918L164.603 72.3257C164.792 72.2629 164.918 72.1057 164.918 71.8856C164.918 71.6342 164.698 71.4456 164.414 71.4456H163.91V72.8916H164.194V72.3572Z" fill="#827A2B"/>
<path d="M164.383 71.1311C164.95 71.1311 165.422 71.6027 165.422 72.1999C165.422 72.7972 164.95 73.2687 164.383 73.2687C163.816 73.2687 163.343 72.7972 163.343 72.1999C163.343 71.6027 163.784 71.1311 164.383 71.1311ZM164.383 73.5202C165.107 73.5202 165.706 72.9229 165.706 72.1999C165.706 71.4769 165.107 70.8796 164.383 70.8796C163.658 70.8796 163.06 71.4769 163.06 72.1999C163.06 72.9229 163.627 73.5202 164.383 73.5202Z" fill="#827A2B"/>
</svg>
