<svg width="232" height="180" viewBox="0 0 232 180" fill="none" xmlns="http://www.w3.org/2000/svg">
<path d="M189.395 12.5741V115.025L115.736 166.651L42.0771 115.025V12.5741H189.395Z" fill="white"/>
<path d="M87.9047 42.7472C86.4888 42.7472 85.3025 42.2508 84.3458 41.2961C83.3891 40.3415 82.8916 39.1578 82.8916 37.7449C82.8916 36.3321 83.3891 35.1483 84.3458 34.1937C85.3025 33.2391 86.4888 32.7427 87.9047 32.7427C88.8232 32.7427 89.6268 32.9718 90.3922 33.43C91.1575 33.8882 91.7315 34.461 92.1908 35.2247L90.9279 36.0266C90.6218 35.4538 90.2008 34.9956 89.6651 34.6901C89.1293 34.3464 88.5553 34.1937 87.8665 34.1937C86.8715 34.1937 86.0296 34.5374 85.3408 35.2247C84.6519 35.912 84.3075 36.7521 84.3075 37.7831C84.3075 38.8141 84.6519 39.616 85.3408 40.3033C86.0296 40.9907 86.8715 41.3343 87.8665 41.3343C88.5936 41.3343 89.2441 41.1434 89.7416 40.7997C90.2773 40.4179 90.6983 39.9597 91.0044 39.3487L92.3056 40.036C91.8846 40.8761 91.2723 41.5252 90.507 42.0217C89.7416 42.5181 88.8614 42.7472 87.8665 42.7472" fill="#202E5B"/>
<path d="M93.9893 42.6326V32.8954H99.8443V34.27H95.4434V37.0576H99.8443V38.4322H95.4434V41.2197H99.8443V42.6326H93.9893Z" fill="#202E5B"/>
<path d="M101.796 42.6325V32.9335H104.819C105.852 32.9335 106.656 33.239 107.307 33.8499C107.957 34.4609 108.263 35.2246 108.263 36.1028C108.263 36.7902 108.072 37.3629 107.689 37.9357C107.307 38.4703 106.809 38.8522 106.12 39.0431L108.455 42.6325H106.771L103.824 38.0121H104.628C105.317 38.0121 105.814 37.8212 106.197 37.4393C106.579 37.0575 106.771 36.5992 106.771 36.1028C106.771 35.5301 106.579 35.11 106.235 34.7664C105.852 34.4227 105.355 34.2699 104.666 34.2699H103.25V42.6325H101.796Z" fill="#202E5B"/>
<path d="M111.592 42.6326V34.27H108.837V32.8954H115.802V34.27H113.046V42.6326H111.592Z" fill="#202E5B"/>
<path d="M118.748 32.8954H117.294V42.5944H118.748V32.8954Z" fill="#202E5B"/>
<path d="M121.16 42.6326V32.8954H126.632V34.27H122.614V37.0576H126.632V38.4322H122.614V42.6326H121.16Z" fill="#202E5B"/>
<path d="M129.999 32.8954H128.545V42.5944H129.999V32.8954Z" fill="#202E5B"/>
<path d="M132.181 42.6326V32.8954H137.997V34.27H133.635V37.0576H137.997V38.4322H133.635V41.2197H137.997V42.6326H132.181Z" fill="#202E5B"/>
<path d="M139.987 42.6325V32.9335H142.666C144.197 32.9335 145.46 33.3917 146.378 34.3081C147.297 35.2246 147.756 36.3701 147.756 37.783C147.756 39.1958 147.297 40.3414 146.34 41.2578C145.383 42.1743 144.197 42.6325 142.743 42.6325H139.987ZM142.513 34.2318H141.403V41.2578H142.551C143.661 41.2578 144.541 40.9142 145.23 40.265C145.919 39.6159 146.263 38.7758 146.263 37.7448C146.263 36.7138 145.919 35.8355 145.268 35.1864C144.618 34.5372 143.661 34.1936 142.475 34.1936" fill="#202E5B"/>
<path d="M170.18 108.846C170.984 108.578 171.481 107.776 171.481 106.974C171.481 105.829 170.563 104.912 169.3 104.912H166.774V111.289H167.502V109.036H169.491L170.754 111.289H171.558L170.18 108.846ZM169.224 108.387H167.463V105.6H169.224C170.18 105.6 170.754 106.173 170.754 106.974C170.754 107.7 170.18 108.387 169.224 108.387Z" fill="#202E5B"/>
<path d="M170.18 108.846C170.984 108.578 171.481 107.776 171.481 106.974C171.481 105.829 170.563 104.912 169.3 104.912H166.774V111.289H167.502V109.036H169.491L170.754 111.289H171.558L170.18 108.846ZM169.224 108.387H167.463V105.6H169.224C170.18 105.6 170.754 106.173 170.754 106.974C170.754 107.7 170.18 108.387 169.224 108.387Z" stroke="#202E5B" stroke-width="0.0377693" stroke-miterlimit="10"/>
<path d="M165.321 105.676V104.836H160.92V111.366H165.321V110.526H161.8V108.54H165.321V107.7H161.8V105.714H165.321V105.676ZM131.071 117.59H133.023V123.279H133.903V117.59H135.855V116.788H131.109V117.59H131.071ZM70.1866 109.915L66.7042 104.836H65.7858V111.366H66.666V106.249L70.1866 111.327H71.0668V104.798H70.2249V109.876L70.1866 109.915ZM75.6972 104.76C73.8604 104.76 72.3679 106.249 72.3679 108.12C72.3679 109.991 73.8221 111.442 75.6972 111.442C77.5724 111.442 79.0266 109.953 79.0266 108.12C79.0266 106.287 77.5341 104.76 75.6972 104.76ZM75.6972 110.564C74.3196 110.564 73.2481 109.456 73.2481 108.082C73.2481 106.707 74.3579 105.6 75.6972 105.6C77.0366 105.6 78.1464 106.707 78.1464 108.082C78.1464 109.456 77.0749 110.564 75.6972 110.564ZM156.29 107.929L154.07 104.836H153.228V111.366H154.109V106.363L156.29 109.342L158.548 106.325V111.404H159.39V104.874H158.586L156.29 107.967V107.929ZM86.1062 109.953L84.4606 104.836H83.6953L81.9732 109.915L80.6338 104.874V104.798H79.7154L81.4757 111.251L82.3176 111.289L84.0397 106.172L85.6852 111.289H86.5271L88.4405 104.874V104.76H87.5603L86.0679 109.876L86.1062 109.953ZM94.2573 111.327H95.1374V108.654L97.4718 104.798H96.4768L94.6782 107.776L92.9179 104.798H91.9229L94.2573 108.654V111.327ZM130.842 111.442C132.372 111.442 133.367 110.411 133.367 108.922V104.836H132.487V108.922C132.487 109.915 131.837 110.602 130.842 110.602C129.847 110.602 129.196 109.915 129.196 108.922V104.836H128.316V108.922C128.316 110.449 129.311 111.442 130.842 111.442ZM137.041 110.602C136.161 110.602 135.472 110.22 135.013 109.495V109.418L134.209 109.991H134.247C134.936 110.946 135.855 111.404 137.041 111.404C138.533 111.404 139.337 110.411 139.337 109.456C139.337 108.044 137.959 107.776 137.079 107.585H136.964C136.123 107.356 135.472 107.242 135.472 106.554C135.472 105.867 135.931 105.523 136.811 105.523C137.577 105.523 138.113 105.791 138.533 106.44V106.516L139.299 105.943V105.867C138.61 105.065 137.845 104.721 136.811 104.721C135.51 104.721 134.592 105.485 134.592 106.554C134.592 107.891 135.816 108.12 136.697 108.311H136.811C137.692 108.54 138.495 108.693 138.495 109.456C138.495 110.144 137.959 110.602 137.041 110.602ZM108.072 111.442C109.603 111.442 110.598 110.411 110.598 108.922V104.836H109.718V108.922C109.718 109.915 109.067 110.602 108.072 110.602C107.077 110.602 106.465 109.915 106.465 108.922V104.836H105.585V108.922C105.585 110.449 106.58 111.442 108.11 111.442M100.954 111.442C102.791 111.442 104.284 109.953 104.284 108.12C104.284 106.287 102.791 104.76 100.954 104.76C99.1173 104.76 97.6249 106.249 97.6249 108.12C97.6249 109.991 99.079 111.442 100.954 111.442ZM100.954 105.6C102.332 105.6 103.403 106.707 103.403 108.082C103.403 109.456 102.332 110.564 100.954 110.564C99.5765 110.564 98.505 109.456 98.505 108.082C98.505 106.707 99.6148 105.6 100.954 105.6ZM64.5995 104.836H63.528L60.5813 108.273V104.836H59.7012V111.366H60.5813V109.456L61.8059 108.005L63.7959 111.366H64.8291L62.4565 107.394L64.6378 104.836H64.5995ZM127.283 109.647V109.571L126.517 109.151V109.227C126.058 110.067 125.254 110.564 124.298 110.564C122.92 110.564 121.849 109.456 121.849 108.082C121.849 106.707 122.92 105.562 124.298 105.562C125.178 105.562 125.982 106.02 126.402 106.822V106.898L127.206 106.44V106.363C126.556 105.371 125.484 104.721 124.298 104.721C122.423 104.721 120.93 106.172 120.93 108.082C120.93 109.991 122.384 111.404 124.298 111.404C125.561 111.404 126.67 110.755 127.244 109.609M123.379 123.279H124.259V116.788H123.379V123.279ZM117.065 111.327L115.649 108.845C116.414 108.54 116.912 107.814 116.912 106.936C116.912 105.714 115.955 104.798 114.654 104.798H112.052V111.327H112.932V109.075H114.807L116.07 111.327H117.065ZM114.616 108.311H112.932V105.676H114.616C115.458 105.676 116.07 106.172 116.07 106.974C116.07 107.662 115.573 108.311 114.616 108.311ZM121.351 121.179C120.93 122.019 120.126 122.516 119.17 122.516C117.792 122.516 116.721 121.408 116.721 120.034C116.721 118.659 117.792 117.552 119.17 117.552C120.05 117.552 120.854 118.01 121.275 118.812V118.888L122.078 118.43V118.354C121.428 117.361 120.318 116.712 119.17 116.712C117.295 116.712 115.84 118.201 115.84 120.072C115.84 121.943 117.295 123.432 119.17 123.432C120.433 123.432 121.542 122.745 122.155 121.637V121.561L121.428 121.141V121.217L121.351 121.179ZM137.041 123.279H141.404V122.439H137.883V120.454H141.404V119.614H137.883V117.628H141.404V116.788H137.041V123.279ZM127.933 116.75L125.331 123.241H126.249L126.862 121.637H129.808L130.421 123.241H131.339L128.737 116.75H127.895H127.933ZM127.206 120.836L128.354 117.895L129.502 120.836H127.244H127.206ZM91.9229 116.75L89.3207 123.241H90.2391L90.8514 121.637H93.798L94.4103 123.241H95.3288L92.7648 116.75H91.9229ZM91.2341 120.836L92.3821 117.895L93.5302 120.836H91.2724H91.2341ZM104.704 119.499H104.59C103.709 119.27 103.097 119.155 103.097 118.468C103.097 117.781 103.556 117.437 104.437 117.437C105.202 117.437 105.738 117.704 106.159 118.354V118.43L106.924 117.857H106.886C106.235 117.017 105.47 116.635 104.437 116.635C103.135 116.635 102.217 117.399 102.217 118.468C102.217 119.805 103.442 120.034 104.322 120.225H104.437C105.355 120.454 106.12 120.606 106.12 121.37C106.12 122.057 105.585 122.516 104.666 122.516C103.748 122.516 103.097 122.134 102.638 121.408V121.332L101.834 121.905V121.981C102.561 122.898 103.48 123.318 104.666 123.318C106.159 123.318 106.962 122.325 106.962 121.332C106.962 119.919 105.585 119.652 104.704 119.461M140.102 105.638H142.054V111.327H142.934V105.638H144.886V104.836H140.141V105.638H140.102ZM98.7729 119.499H98.6198C97.7779 119.27 97.1274 119.155 97.1274 118.468C97.1274 117.781 97.5866 117.437 98.4668 117.437C99.2321 117.437 99.7679 117.704 100.189 118.354V118.43L100.954 117.857H100.916C100.265 117.017 99.5 116.635 98.4668 116.635C97.1656 116.635 96.2472 117.399 96.2472 118.468C96.2472 119.805 97.4718 120.034 98.352 120.225H98.4668C99.3469 120.454 100.151 120.606 100.151 121.37C100.151 122.057 99.6148 122.516 98.6964 122.516C97.7779 122.516 97.1274 122.134 96.6682 121.408V121.332L95.8645 121.905V121.981C96.5916 122.898 97.5101 123.318 98.6964 123.318C100.189 123.318 100.992 122.325 100.992 121.332C100.992 119.919 99.6148 119.652 98.7346 119.461M111.325 116.673C109.488 116.673 107.996 118.163 107.996 120.034C107.996 121.905 109.45 123.394 111.325 123.394C113.2 123.394 114.654 121.905 114.654 120.034C114.654 118.163 113.162 116.673 111.325 116.673ZM111.325 122.516C109.947 122.516 108.876 121.408 108.876 120.034C108.876 118.659 109.985 117.552 111.325 117.552C112.664 117.552 113.774 118.659 113.774 120.034C113.774 121.408 112.702 122.516 111.325 122.516ZM148.598 104.76C146.761 104.76 145.269 106.249 145.269 108.12C145.269 109.991 146.723 111.442 148.598 111.442C150.473 111.442 151.927 109.953 151.927 108.12C151.927 106.287 150.435 104.76 148.598 104.76ZM148.598 110.564C147.22 110.564 146.111 109.456 146.111 108.082C146.111 106.707 147.22 105.6 148.598 105.6C149.976 105.6 151.047 106.707 151.047 108.082C151.047 109.456 149.976 110.564 148.598 110.564Z" fill="#202E5B"/>
<path d="M181.393 86.2017H180.704V85.858H182.464V86.2017H181.776V88.3401H181.393V86.2017Z" fill="#202E5B"/>
<path d="M182.771 85.858H183.153L183.995 87.0036L184.875 85.858H185.22V88.3019H184.837V86.4308L183.995 87.5764L183.153 86.469V88.3019H182.771V85.858Z" fill="#202E5B"/>
<path d="M47.1877 73.7534C47.1877 65.3145 53.6167 58.8994 62.0357 58.8994C67.5846 58.8994 72.3298 61.8015 74.8938 66.1164L69.9572 69.2094C68.4265 66.2309 65.6712 64.3599 62.0357 64.3599C56.7164 64.3599 52.8131 68.5221 52.8131 73.7534C52.8131 78.9848 56.6782 83.0706 61.9592 83.0706C65.939 83.0706 68.7709 80.8558 70.1868 77.7247L75.3147 80.4358C72.8656 85.2853 68.0821 88.6074 61.9974 88.6074C53.2723 88.6074 47.1494 81.925 47.1494 73.7534" fill="#202E5B"/>
<path d="M87.6748 73.9445L83.0444 79.5577V88.2257H77.4189V59.3196H83.0444V72.7225L93.9508 59.3196H100.609L91.7312 70.0878L100.916 88.2257H94.7161L87.6748 73.9445Z" fill="#202E5B"/>
<path d="M111.975 76.0447L102.102 59.3196H108.263L114.807 70.8133L121.389 59.3196H127.512L117.6 76.1592V88.2257H111.975V76.0447Z" fill="#202E5B"/>
<path d="M124.908 73.7534C124.908 65.3145 131.337 58.8994 139.756 58.8994C145.305 58.8994 150.051 61.8015 152.614 66.1164L147.678 69.2094C146.109 66.2309 143.392 64.3599 139.756 64.3599C134.437 64.3599 130.534 68.5221 130.534 73.7534C130.534 78.9848 134.399 83.0706 139.68 83.0706C143.66 83.0706 146.453 80.8558 147.908 77.7247L153.035 80.4358C150.586 85.2853 145.803 88.6074 139.718 88.6074C130.993 88.6074 124.87 81.925 124.87 73.7534" fill="#202E5B"/>
<path d="M163.254 59.3196H168.764L179.709 88.2639H173.93L172.017 82.9943H159.886L157.973 88.2639H152.232L163.177 59.3196H163.254ZM161.799 77.8775H170.18L166.009 66.3838L161.799 77.8775Z" fill="#202E5B"/>
<path d="M189.391 12.1609V114.611L115.572 166.238L41.7528 114.611V12.1609H189.391ZM196.586 5.02026H34.5967V118.354L115.572 175.02L196.547 118.354V5.02026H196.586Z" fill="#202E5B"/>
</svg>
