<svg width="231" height="180" viewBox="0 0 231 180" fill="none" xmlns="http://www.w3.org/2000/svg">
<path d="M47.1963 145.28C91.5175 157.077 138.222 157.077 182.543 145.28V36.6628C138.222 24.8653 91.5175 24.8653 47.1963 36.6628V145.28Z" fill="white"/>
<path d="M52.4887 148.832C50.0126 148.245 47.5366 147.596 45.0605 146.917V141.667C42.3679 140.895 36.2706 140.462 35.8682 141.203C35.2183 142.439 41.2227 146.485 43.4821 147.226C47.7533 148.646 50.6317 148.955 52.4887 148.832Z" fill="#4A5155"/>
<path d="M44.7513 138.825C44.7513 138.825 44.937 139.042 45.0608 139.134V136.787C43.9776 135.583 42.9252 134.347 41.9039 133.081C42.6467 132.772 44.4418 127.862 45.0608 124.866V114.335C44.7204 112.42 44.2871 111.401 44.2871 111.401C44.2871 111.401 40.9134 112.482 39.7064 123.445C39.5207 125.175 39.9849 129.344 40.7587 131.599C38.3446 128.387 36.209 125.02 34.321 121.469C34.3519 121.469 34.3829 121.469 34.4138 121.469C35.2185 121.531 38.5612 115.601 39.3659 112.914C41.6563 105.224 40.6039 100.499 40.6039 100.499C40.6039 100.499 37.0756 100.993 33.9805 111.555C33.4544 113.316 33.2068 117.917 33.671 120.172C31.8449 116.497 30.3284 112.698 29.1213 108.714C29.8951 108.93 34.2281 103.649 35.4662 101.148C39.0874 93.9826 38.8398 89.1339 38.8398 89.1339C38.8398 89.1339 35.2804 89.0104 30.4212 98.8931C29.6474 100.468 28.657 104.637 28.6261 107.015C27.5738 103.217 26.8309 99.2946 26.3976 95.2797C27.6666 94.94 32.1854 91.0178 33.7329 88.9486C38.5303 82.494 39.1493 77.7071 39.1493 77.7071C39.1493 77.7071 35.6828 76.9659 29.1522 85.8603C28.2237 87.0956 26.8 90.2766 26.181 92.6237C25.9334 89.0104 25.9024 85.3044 26.181 81.5057C27.8523 81.0425 32.433 78.263 34.1662 76.5953C40.0159 71.098 41.4396 66.4655 41.4396 66.4655C41.4396 66.4655 38.1588 65.1375 30.1736 72.7657C29.1832 73.7231 27.5119 76.1011 26.4286 78.1394C26.5524 77.0585 26.6762 76.0085 26.8309 74.9276C27.1714 72.5495 27.5738 70.2333 28.038 67.9788C29.7712 67.7626 34.4757 65.9405 36.3947 64.6743C42.8943 60.4123 44.9989 56.2431 44.9989 56.2431C44.9989 56.2431 42.0896 54.3901 33.2377 60.3197C32.1235 61.0609 30.0808 63.1301 28.7189 64.9213C29.5546 61.4315 30.545 58.127 31.7211 55.0078C32.8354 55.3784 38.4993 54.2665 40.7587 53.2783C42.43 52.568 43.8537 51.7959 45.0608 51.0856V46.3604C43.3895 46.7001 41.223 47.3795 38.4684 48.584C37.0137 49.2017 34.0424 51.3944 32.4949 53.093C33.7639 50.0355 35.1876 47.1325 36.8589 44.4147C38.0041 44.8471 42.5538 44.7853 45.0608 44.353V39.1646C44.8132 39.2263 44.5656 39.2881 44.2871 39.3499C42.8633 39.6896 39.923 41.1411 38.0969 42.4382C40.2944 39.1028 42.8324 35.9836 45.7417 33.1114C45.7417 33.1732 45.7417 33.2349 45.7417 33.2658C45.8346 33.5438 46.9179 33.8835 48.3416 34.1923C53.2318 32.9261 58.122 31.8143 63.074 30.826C61.5265 30.2084 58.71 29.6525 53.7889 29.9613C52.1795 30.0539 48.3725 31.1966 46.6393 32.2467C48.9606 30.054 51.4985 27.9848 54.2841 26.0391C54.4388 26.6568 59.7004 27.645 61.9289 27.5833C68.2737 27.3671 71.5235 25.3906 71.5235 25.3906C71.5235 25.3906 70.2855 22.889 61.5884 23.2287C60.5051 23.2905 58.3386 23.8155 56.6363 24.4641C58.1529 23.4758 59.7314 22.5493 61.4027 21.6228V21.4684C62.8264 21.4375 66.2001 21.0978 70.5641 18.905C72.5759 17.9168 76.7542 14.3652 76.5685 13.7166C76.228 12.6048 70.2546 13.7166 68.4594 14.5505C62.6717 17.3609 61.217 19.7389 60.8456 20.8198C58.3386 22.0243 55.9554 23.414 53.727 24.9582C55.0578 23.6302 56.7601 21.5301 58.3696 18.5344C59.5147 16.3726 60.9694 10.6283 60.3504 10.165C59.36 9.39294 54.7483 14.1181 53.727 16.0329C49.8272 23.2596 50.7867 26.1318 51.189 26.8112C49.1153 28.4171 47.1655 30.1466 45.3394 31.9687C46.206 30.4246 47.1345 28.5098 47.9083 26.1009C48.7439 23.5375 49.2082 17.0829 48.4654 16.6814C47.2274 16.0329 43.1728 22.0243 42.43 24.2788C39.8611 32.0305 40.9444 35.1497 41.5634 36.1689C40.0159 38.0528 38.5612 40.0602 37.2303 42.0985C37.7255 40.5543 38.1898 38.7322 38.4993 36.6012C38.8707 33.9453 38.1898 27.4906 37.416 27.2127C36.0852 26.7803 33.1449 33.3894 32.8044 35.7365C31.5973 43.8897 33.2687 46.7619 34.0424 47.5957C33.0211 49.5723 32.0616 51.5797 31.2259 53.618C31.3497 52.3827 31.3807 51.0238 31.3188 49.5105C31.2259 46.8236 29.4308 40.5852 28.5951 40.4617C27.2024 40.2764 25.4691 47.2869 25.531 49.6649C25.7477 57.324 27.6047 60.0417 28.5951 60.9683C27.9142 63.1919 27.3571 65.4463 26.8928 67.7317C26.8 66.2802 26.6143 64.6125 26.2119 62.7904C25.6548 60.1653 22.8074 54.3283 21.9717 54.3592C20.5789 54.421 20.0837 61.6168 20.548 63.9331C22.1884 71.9627 24.7263 74.1246 25.7786 74.6496C25.7477 74.9584 25.6858 75.2982 25.6548 75.607C25.4382 77.7997 25.2834 79.9307 25.1596 82.0307C24.8192 80.4557 24.324 78.6953 23.5192 76.7188C22.5288 74.2481 18.691 68.9671 17.8862 69.1524C16.5244 69.4612 17.2982 76.6261 18.1338 78.8497C21.1051 86.3235 23.9216 88.0839 25.0668 88.4854C25.1287 91.1413 25.2834 93.7355 25.531 96.2062C24.912 94.6621 24.0763 92.8708 22.8693 90.9252C21.4455 88.6398 16.772 84.1308 15.9983 84.4396C14.6983 84.9647 16.7101 91.9134 17.9481 93.9209C22.1265 100.684 25.1596 101.981 26.4286 102.198C26.8619 104.607 27.3881 106.892 28.0071 109.116C27.1714 107.818 26.15 106.429 24.7882 104.946C22.9931 102.939 17.6077 99.2946 16.8958 99.7578C15.7197 100.499 18.8767 106.985 20.4551 108.776C25.531 114.458 28.688 115.385 30.0808 115.447C30.8236 117.392 31.6283 119.245 32.4949 121.036C31.6283 120.172 30.6069 119.276 29.4617 118.35C27.3262 116.713 21.4146 114.057 20.7956 114.613C19.7433 115.539 24.0144 121.407 25.8715 122.859C31.5354 127.337 34.7852 127.893 36.2709 127.8C37.3541 129.56 38.5303 131.228 39.7373 132.803C38.7469 132.124 37.6327 131.413 36.3328 130.734C33.9496 129.468 27.6357 127.893 27.1405 128.541C26.2738 129.653 31.5045 134.656 33.5782 135.799C40.1706 139.35 43.4514 139.196 44.8132 138.825" fill="#4A5155"/>
<path d="M184.678 141.666V146.917C182.202 147.596 179.726 148.214 177.25 148.831C179.138 148.955 181.985 148.646 186.288 147.225C188.516 146.484 194.52 142.439 193.901 141.203C193.53 140.493 187.433 140.894 184.709 141.666" fill="#4A5155"/>
<path d="M173.413 151.024C171.834 151.24 170.411 151.549 169.173 151.889C170.07 151.302 170.999 150.684 171.896 150.036C170.38 150.376 168.863 150.684 167.347 150.993C167.347 151.117 167.409 151.209 167.44 151.271C164.035 153.464 160.383 155.44 156.576 157.263C157.907 156.089 159.64 153.927 160.754 152.229C158.928 152.537 157.102 152.846 155.245 153.155C154.781 155.502 154.533 157.757 154.905 158.035C151.562 159.548 148.064 160.907 144.443 162.08C146.3 160.598 148.436 158.313 149.21 157.108C149.952 155.873 150.571 154.761 151.098 153.773C148.838 154.082 146.548 154.36 144.288 154.607C143.02 156.985 141.472 161.586 141.503 163.038C141.286 163.1 141.039 163.192 140.822 163.254C140.574 163.316 137.789 164.057 133.765 164.736C135.406 163.285 137.077 161.463 137.727 160.413C139.027 158.313 139.924 156.521 140.543 155.039C138.439 155.255 136.365 155.41 134.261 155.564C133.889 156.12 133.487 156.707 133.115 157.324C132.032 159.085 130.577 163.069 130.113 165.261C129.835 165.292 129.525 165.323 129.247 165.385C129.061 165.385 128.875 165.416 128.658 165.447C113.276 168.473 101.112 165.447 101.112 165.447C100.896 165.447 100.71 165.416 100.524 165.385C100.215 165.354 99.9364 165.323 99.6578 165.261C99.1935 163.069 97.7389 159.116 96.6865 157.324C96.3151 156.707 95.9128 156.12 95.5414 155.564C93.4367 155.41 91.363 155.224 89.2584 155.039C89.8774 156.552 90.775 158.313 92.0749 160.413C92.7249 161.463 94.3962 163.285 96.0366 164.736C92.013 164.057 89.2275 163.347 88.9799 163.254C88.7632 163.192 88.5156 163.13 88.2989 163.038C88.2989 161.617 86.7514 157.016 85.4824 154.607C83.2231 154.36 80.9327 154.082 78.6733 153.773C79.1995 154.792 79.7875 155.904 80.5613 157.108C81.3041 158.344 83.4707 160.598 85.3277 162.08C81.7065 160.876 78.2091 159.517 74.8664 158.035C75.2378 157.757 74.9902 155.533 74.5259 153.155C72.6999 152.877 70.8738 152.568 69.0168 152.229C70.1 153.927 71.8333 156.089 73.1951 157.263C69.3882 155.471 65.736 153.464 62.3314 151.271C62.3314 151.179 62.3933 151.086 62.4243 150.993C60.9077 150.684 59.3911 150.376 57.8746 150.036C58.7721 150.654 59.7006 151.271 60.5982 151.889C59.3292 151.549 57.9365 151.24 56.327 151.024C53.6653 150.654 47.1966 151.333 46.949 152.105C46.5157 153.433 53.1391 156.367 55.4914 156.707C62.8576 157.788 65.9217 156.552 67.0669 155.718C69.5739 157.077 72.019 158.282 74.4021 159.332C72.6999 159.054 70.6571 158.899 68.2739 158.992C65.5812 159.085 59.3292 160.876 59.2054 161.71C59.0197 163.1 66.0455 164.829 68.4287 164.767C76.352 164.551 78.9828 162.575 79.8185 161.617C82.9754 162.822 85.8848 163.81 88.4227 164.551C86.7205 164.273 84.6777 164.119 82.2945 164.211C79.6018 164.304 73.3498 166.095 73.226 166.929C73.0403 168.319 80.0661 170.048 82.4493 169.987C93.0344 169.678 94.2105 166.281 94.2105 166.281C94.2105 166.281 93.9629 166.126 93.4677 165.941C96.2223 166.62 97.9555 166.898 98.2341 166.96C98.9459 167.084 99.9363 167.207 101.143 167.331C116.247 170.017 128.689 167.331 128.689 167.331C129.896 167.207 130.887 167.084 131.599 166.96C131.908 166.898 133.642 166.62 136.365 165.941C135.87 166.157 135.622 166.281 135.622 166.281C135.622 166.281 136.798 169.678 147.384 169.987C149.736 170.048 156.793 168.319 156.576 166.929C156.452 166.095 150.2 164.335 147.507 164.211C145.124 164.119 143.081 164.304 141.379 164.551C143.917 163.81 146.826 162.822 149.983 161.617C150.819 162.605 153.481 164.551 161.373 164.767C163.725 164.829 170.782 163.1 170.596 161.71C170.473 160.876 164.221 159.116 161.528 158.992C159.145 158.899 157.071 159.085 155.4 159.332C157.783 158.282 160.228 157.077 162.735 155.718C163.88 156.552 166.944 157.788 174.311 156.707C176.663 156.367 183.255 153.433 182.853 152.105C182.605 151.302 176.137 150.654 173.475 151.024" fill="#4A5155"/>
<path d="M212.875 99.7268C212.163 99.2945 206.777 102.939 204.982 104.915C203.621 106.398 202.599 107.818 201.763 109.085C202.382 106.861 202.909 104.545 203.342 102.167C204.58 101.95 207.644 100.653 211.822 93.8899C213.06 91.8825 215.041 84.9337 213.772 84.4087C212.999 84.0998 208.325 88.6088 206.901 90.8942C205.694 92.8398 204.828 94.6002 204.24 96.1752C204.487 93.6737 204.673 91.1104 204.704 88.4544C205.88 88.0529 208.665 86.2926 211.637 78.8188C212.503 76.626 213.277 69.4302 211.884 69.1214C211.049 68.9361 207.242 74.2171 206.251 76.6878C205.447 78.6643 204.92 80.4556 204.611 81.9998C204.518 79.8997 204.363 77.7687 204.147 75.576C204.116 75.2672 204.085 74.9275 204.023 74.6186C205.075 74.0627 207.582 71.9318 209.254 63.9021C209.718 61.5858 209.223 54.39 207.83 54.3282C206.994 54.2973 204.147 60.1343 203.59 62.7594C203.187 64.5815 203.002 66.2492 202.909 67.7007C202.444 65.4154 201.887 63.1609 201.206 60.9373C202.228 60.0108 204.054 57.293 204.301 49.6339C204.363 47.2868 202.599 40.2454 201.237 40.4616C200.402 40.5851 198.637 46.8235 198.545 49.5104C198.483 51.0237 198.545 52.3826 198.637 53.6179C197.802 51.5487 196.842 49.5413 195.821 47.5647C196.595 46.7 198.266 43.8587 197.059 35.7055C196.719 33.3584 193.778 26.7802 192.416 27.1817C191.612 27.4288 190.962 33.8834 191.333 36.5394C191.643 38.7012 192.076 40.5233 192.602 42.0366C191.271 39.9674 189.817 37.9909 188.269 36.107C188.888 35.0878 190.002 31.9686 187.402 24.2169C186.66 21.9624 182.605 15.971 181.367 16.6196C180.624 17.021 181.089 23.4757 181.924 26.039C182.698 28.417 183.596 30.3627 184.493 31.876C182.667 30.023 180.717 28.2935 178.643 26.7184C179.015 26.0081 180.005 23.136 176.105 15.9401C175.084 14.0562 170.503 9.30019 169.482 10.0723C168.894 10.5355 170.318 16.2798 171.463 18.4417C173.072 21.4683 174.775 23.5374 176.105 24.8654C173.877 23.3213 171.494 21.9624 168.987 20.7271C168.615 19.6461 167.161 17.2681 161.373 14.4577C159.578 13.593 153.604 12.4812 153.264 13.6239C153.047 14.3033 157.226 17.824 159.268 18.8123C163.632 20.9741 167.006 21.3138 168.399 21.3756V21.53C170.101 22.4256 171.68 23.383 173.196 24.3713C171.494 23.7227 169.296 23.1977 168.244 23.1668C159.547 22.8271 158.309 25.3287 158.309 25.3287C158.309 25.3287 161.559 27.3052 167.904 27.5214C170.101 27.5832 175.394 26.5949 175.548 25.9772C178.334 27.9229 180.872 29.9921 183.193 32.1848C181.46 31.1348 177.653 29.9921 176.044 29.8994C171.091 29.5597 168.306 30.1465 166.758 30.7642C171.68 31.7524 176.601 32.8642 181.491 34.1305C182.915 33.8525 184.029 33.5128 184.091 33.204C184.091 33.1422 184.091 33.1113 184.091 33.0495C187 35.9217 189.538 39.0409 191.736 42.3763C189.909 41.0792 186.938 39.6586 185.545 39.288C185.298 39.2262 185.019 39.1645 184.772 39.1027V44.2911C187.279 44.7235 191.828 44.7852 193.004 44.3529C194.645 47.1015 196.1 49.9736 197.369 53.0311C195.821 51.3634 192.819 49.1707 191.364 48.553C188.64 47.3486 186.474 46.6691 184.772 46.3294V51.0546C185.979 51.7958 187.402 52.537 189.074 53.2473C191.333 54.2356 196.997 55.3165 198.111 54.9768C199.287 58.096 200.278 61.4314 201.114 64.8903C199.752 63.0991 197.709 61.0299 196.595 60.2887C187.743 54.39 184.834 56.2121 184.834 56.2121C184.834 56.2121 186.938 60.3814 193.438 64.6433C195.357 65.9095 200.061 67.7625 201.794 67.9478C202.259 70.2023 202.661 72.5185 203.002 74.8966C203.156 75.9775 203.28 77.0584 203.373 78.1085C202.29 76.0393 200.649 73.6612 199.628 72.7347C191.643 65.1065 188.362 66.4345 188.362 66.4345C188.362 66.4345 189.786 71.0361 195.635 76.5643C197.399 78.232 201.949 81.0115 203.621 81.4747C203.868 85.2734 203.837 88.9794 203.59 92.5928C202.971 90.2456 201.516 87.0646 200.618 85.8293C194.088 76.9349 190.621 77.6761 190.621 77.6761C190.621 77.6761 191.24 82.463 196.038 88.9176C197.585 90.9868 202.104 94.909 203.373 95.2487C202.94 99.2945 202.197 103.217 201.144 106.984C201.144 104.606 200.123 100.468 199.349 98.8621C194.459 88.9794 190.931 89.1029 190.931 89.1029C190.931 89.1029 190.683 93.9208 194.304 101.117C195.573 103.618 199.876 108.868 200.649 108.683C199.442 112.636 197.926 116.466 196.1 120.141C196.564 117.886 196.316 113.285 195.79 111.524C192.695 100.931 189.167 100.468 189.167 100.468C189.167 100.468 188.083 105.193 190.405 112.883C191.209 115.57 194.552 121.5 195.357 121.438C195.388 121.438 195.419 121.438 195.45 121.438C193.593 124.989 191.457 128.356 189.043 131.568C189.817 129.313 190.312 125.144 190.095 123.414C188.888 112.451 185.514 111.37 185.514 111.37C185.514 111.37 185.081 112.389 184.741 114.304V124.804C185.36 127.8 187.155 132.741 187.898 133.019C186.907 134.285 185.824 135.521 184.741 136.725V139.072C184.741 139.072 184.957 138.856 185.05 138.763C186.412 139.134 189.693 139.288 196.285 135.737C198.359 134.625 203.59 129.591 202.723 128.479C202.197 127.831 195.914 129.406 193.531 130.672C192.262 131.351 191.117 132.062 190.126 132.741C191.333 131.135 192.478 129.468 193.593 127.738C195.078 127.831 198.328 127.275 203.992 122.797C205.849 121.314 210.12 115.477 209.068 114.551C208.449 113.995 202.506 116.651 200.371 118.288C199.195 119.214 198.204 120.11 197.338 120.975C198.204 119.183 199.009 117.33 199.752 115.385C201.114 115.323 204.301 114.396 209.377 108.714C210.956 106.954 214.113 100.437 212.937 99.696" fill="#4A5155"/>
<path d="M47.1967 145.28C91.5179 157.077 138.222 157.077 182.543 145.28V36.663C138.222 24.8655 91.5179 24.8655 47.1967 36.663V145.28ZM114.855 158.405C91.1774 158.405 67.5002 155.255 44.473 148.986L42.8945 148.554V33.3893L44.473 32.9569C90.5274 20.3874 139.182 20.3874 185.236 32.9569L186.815 33.3893V148.523L185.236 148.955C162.209 155.255 138.532 158.374 114.855 158.374" fill="#4A5155"/>
<path d="M87.3082 56.2739H89.3509L88.3295 53.3091L87.3082 56.2739ZM87.5867 51.1472H89.1033L91.9198 59.0843H90.3413L89.8771 57.6945H86.8129L86.3177 59.0843H84.7393L87.5558 51.1472H87.5867Z" fill="#4A5155"/>
<path d="M95.1074 52.5679V57.6945H95.6336C97.3668 57.6945 98.4501 56.5827 98.4501 55.1312C98.4501 53.6797 97.5215 52.5679 95.5717 52.5679H95.1074ZM93.5908 51.1472H95.7574C98.4501 51.1472 99.9666 52.8767 99.9666 55.1312C99.9666 57.3857 98.2644 59.1151 95.8193 59.1151H93.5908V51.1781V51.1472Z" fill="#4A5155"/>
<path d="M100.957 51.1472H102.536L104.362 56.7989L106.219 51.1472H107.797L105.135 59.1151H103.619L100.957 51.1472Z" fill="#4A5155"/>
<path d="M110.274 56.2739H112.316L111.295 53.3091L110.274 56.2739ZM110.552 51.1472H112.069L114.885 59.0843H113.307L112.812 57.6945H109.748L109.252 59.0843H107.674L110.49 51.1472H110.552Z" fill="#4A5155"/>
<path d="M116.557 51.1472H118.29L121.663 56.49V51.1472H123.18V59.1151H121.571L118.073 53.587V59.1151H116.557V51.1472Z" fill="#4A5155"/>
<path d="M124.913 55.1313C124.913 52.7533 126.708 51.0547 128.999 51.0547C130.484 51.0547 131.784 51.8268 132.496 53.0312L131.165 53.8651C130.701 53.0312 130.02 52.5371 128.999 52.5371C127.513 52.5371 126.43 53.6798 126.43 55.1313C126.43 56.5828 127.513 57.6946 128.968 57.6946C130.051 57.6946 130.825 57.077 131.227 56.2122L132.62 56.9225C131.939 58.2814 130.577 59.177 128.999 59.177C126.523 59.177 124.913 57.3549 124.913 55.1004" fill="#4A5155"/>
<path d="M134.261 51.1472H138.965V52.5987H135.777V54.39H138.965V55.8415H135.777V57.6636H138.965V59.1151H134.261V51.1472Z" fill="#4A5155"/>
<path d="M142.37 52.5679V57.6945H142.896C144.629 57.6945 145.713 56.5827 145.713 55.1312C145.713 53.6797 144.784 52.5679 142.834 52.5679H142.37ZM140.854 51.1472H143.02C145.713 51.1472 147.229 52.8767 147.229 55.1312C147.229 57.3857 145.527 59.1151 143.082 59.1151H140.854V51.1781V51.1472Z" fill="#4A5155"/>
<path d="M62.3311 84.0072C62.3311 76.379 68.0569 70.9126 75.4541 70.9126C80.2514 70.9126 84.4297 73.445 86.6582 77.2437L82.387 79.9614C80.9633 77.3055 78.7039 75.6995 75.4541 75.6995C70.6877 75.6995 67.1593 79.3438 67.1593 84.0072C67.1593 88.6706 70.6568 92.253 75.3612 92.253C78.8586 92.253 81.3037 90.2147 82.6037 87.497L87.0605 89.8441C84.8321 94.1678 80.5609 97.1017 75.485 97.1017C67.5617 97.1017 62.362 91.2648 62.362 84.0072" fill="#4A5155"/>
<path d="M96.4699 87.6824H103.062L99.7816 78.1703L96.5008 87.6824H96.4699ZM97.3055 71.2524H102.196L111.264 96.7621H106.188L104.641 92.3149H94.8295L93.2819 96.7621H88.2061L97.2746 71.2524H97.3055Z" fill="#4A5155"/>
<path d="M114.823 71.2524H119.652L127.327 81.8763L135.251 71.2524H139.862V96.7621H134.972V79.0968L127.296 89.4737L119.682 79.1895V96.7621H114.823V71.2524Z" fill="#4A5155"/>
<path d="M143.328 92.5311L147.785 89.0413C149.054 91.2031 151.035 92.4693 153.325 92.4693C155.801 92.4693 157.132 90.8634 157.132 89.103C157.132 87.003 154.563 86.3544 151.84 85.4897C148.404 84.4397 144.597 83.1117 144.597 78.2321C144.597 74.1555 148.156 70.8818 153.109 70.8818C157.256 70.8818 159.639 72.4569 161.713 74.5878L157.689 77.6144C156.637 76.0394 155.12 75.2055 153.139 75.2055C150.88 75.2055 149.642 76.4408 149.642 78.0468C149.642 79.9924 152.087 80.6719 154.811 81.5675C158.277 82.6793 162.208 84.2235 162.208 89.103C162.208 93.1488 158.989 97.071 153.356 97.071C148.744 97.071 145.649 95.1253 143.359 92.5002" fill="#4A5155"/>
<path d="M64.3428 110.042H68.8615V111.494H65.8593V113.285H68.8615V114.736H65.8593V118.01H64.3428V110.042Z" fill="#4A5155"/>
<path d="M71.7705 110.042H70.2539V117.979H71.7705V110.042Z" fill="#4A5155"/>
<path d="M73.2568 110.042H74.9901L78.3637 115.385V110.042H79.8803V118.01H78.2708L74.7734 112.482V118.01H73.2568V110.042Z" fill="#4A5155"/>
<path d="M83.5637 115.169H85.6065L84.5851 112.204L83.5637 115.169ZM83.8113 110.042H85.3279L88.1444 117.979H86.5659L86.1017 116.589H83.0376L82.5423 117.979H80.9639L83.7804 110.042H83.8113Z" fill="#4A5155"/>
<path d="M89.3203 110.042H91.0226L94.3962 115.385V110.042H95.9128V118.01H94.3033L90.8369 112.482V118.01H89.3203V110.042Z" fill="#4A5155"/>
<path d="M97.1191 114.026C97.1191 111.648 98.9143 109.949 101.205 109.949C102.69 109.949 103.99 110.721 104.702 111.926L103.371 112.76C102.907 111.926 102.226 111.432 101.205 111.432C99.719 111.432 98.6357 112.574 98.6357 114.026C98.6357 115.477 99.719 116.589 101.174 116.589C102.257 116.589 103.031 115.971 103.433 115.107L104.826 115.848C104.145 117.207 102.783 118.102 101.205 118.102C98.7286 118.102 97.1191 116.28 97.1191 114.026Z" fill="#4A5155"/>
<path d="M107.458 110.042H105.941V117.979H107.458V110.042Z" fill="#4A5155"/>
<path d="M111.202 115.169H113.244L112.223 112.204L111.202 115.169ZM111.48 110.042H112.997L115.813 117.979H114.235L113.771 116.589H110.706L110.211 117.979H108.633L111.449 110.042H111.48Z" fill="#4A5155"/>
<path d="M116.959 110.042H118.476V116.558H121.354V118.01H116.959V110.042Z" fill="#4A5155"/>
<path d="M125.718 114.026C125.718 111.648 127.513 109.949 129.803 109.949C131.289 109.949 132.589 110.721 133.301 111.926L131.97 112.76C131.506 111.926 130.825 111.432 129.803 111.432C128.318 111.432 127.234 112.574 127.234 114.026C127.234 115.477 128.318 116.589 129.772 116.589C130.856 116.589 131.629 115.971 132.032 115.107L133.424 115.848C132.744 117.207 131.382 118.102 129.803 118.102C127.327 118.102 125.718 116.28 125.718 114.026Z" fill="#4A5155"/>
<path d="M134.478 110.042H136.985C138.811 110.042 139.925 111.216 139.925 112.698C139.925 113.686 139.43 114.644 138.408 115.045L140.203 117.979H138.47L136.087 114.057H136.83C138.006 114.057 138.408 113.285 138.408 112.698C138.408 111.895 137.975 111.463 136.83 111.463H136.025V117.979H134.508V110.042H134.478Z" fill="#4A5155"/>
<path d="M142.834 110.042H141.317V117.979H142.834V110.042Z" fill="#4A5155"/>
<path d="M144.318 110.042H145.835L148.218 113.377L150.694 110.042H152.118V118.01H150.601V112.482L148.187 115.725L145.835 112.513V118.01H144.318V110.042Z" fill="#4A5155"/>
<path d="M153.512 110.042H158.247V111.494H155.028V113.285H158.247V114.736H155.028V116.558H158.247V118.01H153.512V110.042Z" fill="#4A5155"/>
<path d="M159.176 116.682L160.569 115.601C160.971 116.28 161.59 116.682 162.302 116.682C163.076 116.682 163.478 116.188 163.478 115.632C163.478 114.983 162.673 114.767 161.838 114.52C160.754 114.18 159.578 113.779 159.578 112.266C159.578 110.999 160.692 109.98 162.24 109.98C163.54 109.98 164.283 110.474 164.933 111.123L163.664 112.08C163.323 111.586 162.859 111.339 162.24 111.339C161.528 111.339 161.157 111.71 161.157 112.235C161.157 112.852 161.93 113.038 162.766 113.316C163.849 113.655 165.056 114.149 165.056 115.663C165.056 116.929 164.066 118.133 162.302 118.133C160.878 118.133 159.919 117.516 159.176 116.713" fill="#4A5155"/>
<path d="M71.957 121.809H70.4404V129.746H71.957V121.809Z" fill="#4A5155"/>
<path d="M73.4424 121.809H75.1447L78.5183 127.151V121.809H80.0349V129.777H78.4254L74.959 124.248V129.777H73.4424V121.809Z" fill="#4A5155"/>
<path d="M81.1797 121.809H82.7582L84.6152 127.46L86.4722 121.809H88.0198L85.358 129.777H83.8414L81.1797 121.809Z" fill="#4A5155"/>
<path d="M89.165 121.809H93.8695V123.26H90.6816V125.051H93.8695V126.503H90.6816V128.325H93.8695V129.777H89.165V121.809Z" fill="#4A5155"/>
<path d="M94.7988 128.449L96.1916 127.368C96.594 128.047 97.213 128.449 97.9248 128.449C98.6986 128.449 99.101 127.954 99.101 127.399C99.101 126.75 98.2962 126.534 97.4606 126.287C96.3773 125.947 95.2012 125.545 95.2012 124.032C95.2012 122.766 96.3154 121.747 97.8629 121.747C99.1629 121.747 99.9057 122.241 100.556 122.89L99.2867 123.847C98.9462 123.353 98.4819 123.106 97.8629 123.106C97.1511 123.106 96.7797 123.476 96.7797 124.001C96.7797 124.619 97.5534 124.804 98.3891 125.082C99.4724 125.422 100.679 125.916 100.679 127.429C100.679 128.696 99.689 129.9 97.9248 129.9C96.5011 129.9 95.5107 129.282 94.7988 128.479" fill="#4A5155"/>
<path d="M103.558 123.26H101.453V121.809H107.21V123.26H105.074V129.777H103.558V123.26Z" fill="#4A5155"/>
<path d="M110.026 121.809H108.51V129.746H110.026V121.809Z" fill="#4A5155"/>
<path d="M111.264 125.792C111.264 123.538 112.967 121.716 115.319 121.716C116.959 121.716 118.259 122.55 118.94 123.754L117.609 124.557C117.114 123.661 116.371 123.198 115.319 123.198C113.864 123.198 112.75 124.372 112.75 125.823C112.75 127.275 113.864 128.448 115.381 128.448C116.557 128.448 117.362 127.8 117.64 126.781H115.133V125.329H119.25V125.947C119.25 128.078 117.733 129.931 115.35 129.931C112.874 129.931 111.233 128.047 111.233 125.854" fill="#4A5155"/>
<path d="M122.19 126.935H124.232L123.211 123.97L122.19 126.935ZM122.437 121.809H123.954L126.77 129.746H125.192L124.728 128.356H121.664L121.168 129.746H119.59L122.406 121.809H122.437Z" fill="#4A5155"/>
<path d="M128.442 123.26H126.337V121.809H132.094V123.26H129.958V129.777H128.442V123.26Z" fill="#4A5155"/>
<path d="M134.91 121.809H133.394V129.746H134.91V121.809Z" fill="#4A5155"/>
<path d="M142.803 125.792C142.803 124.372 141.658 123.198 140.234 123.198C138.81 123.198 137.665 124.372 137.665 125.792C137.665 127.213 138.779 128.387 140.234 128.387C141.689 128.387 142.803 127.213 142.803 125.792ZM136.148 125.792C136.148 123.538 137.944 121.716 140.203 121.716C142.462 121.716 144.288 123.538 144.288 125.792C144.288 128.047 142.462 129.869 140.203 129.869C137.944 129.869 136.148 128.047 136.148 125.792Z" fill="#4A5155"/>
<path d="M145.495 121.809H147.228L150.602 127.151V121.809H152.119V129.777H150.509L147.012 124.248V129.777H145.495V121.809Z" fill="#4A5155"/>
<path d="M153.109 128.449L154.502 127.368C154.904 128.047 155.523 128.449 156.235 128.449C157.009 128.449 157.411 127.954 157.411 127.399C157.411 126.75 156.606 126.534 155.771 126.287C154.688 125.947 153.511 125.545 153.511 124.032C153.511 122.766 154.626 121.747 156.142 121.747C157.442 121.747 158.185 122.241 158.835 122.89L157.566 123.847C157.226 123.353 156.761 123.106 156.142 123.106C155.43 123.106 155.059 123.476 155.059 124.001C155.059 124.619 155.833 124.804 156.668 125.082C157.752 125.422 158.959 125.916 158.959 127.429C158.959 128.696 157.968 129.9 156.204 129.9C154.749 129.9 153.79 129.282 153.078 128.479" fill="#4A5155"/>
<path d="M163.261 95.6195H163.138V95.2489H163.261C163.261 95.2489 163.478 95.3415 163.478 95.4342C163.478 95.5268 163.385 95.5886 163.261 95.5886M163.478 95.8048C163.478 95.8048 163.726 95.6195 163.726 95.4651C163.726 95.2489 163.571 95.0945 163.354 95.0945H162.921V96.2681H163.138V95.8357H163.23L163.478 96.2681H163.757L163.478 95.8357V95.8048Z" fill="#4B5155"/>
<path d="M163.261 96.5458C162.766 96.5458 162.394 96.1752 162.394 95.681C162.394 95.1869 162.766 94.8163 163.261 94.8163C163.725 94.8163 164.097 95.1869 164.097 95.681C164.097 96.1752 163.725 96.5458 163.261 96.5458ZM163.261 94.6001C162.642 94.6001 162.178 95.0942 162.178 95.681C162.178 96.2678 162.642 96.7619 163.261 96.7619C163.88 96.7619 164.344 96.2678 164.344 95.681C164.344 95.0942 163.88 94.6001 163.261 94.6001Z" fill="#4B5155"/>
</svg>
