<svg width="231" height="180" viewBox="0 0 231 180" fill="none" xmlns="http://www.w3.org/2000/svg">
<path d="M188.754 12.134V114.593L114.909 166.269L41.0645 114.593V12.134H188.754Z" fill="white"/>
<path d="M87.2017 42.7356C85.7599 42.7356 84.5908 42.269 83.6166 41.2969C82.6424 40.3248 82.1748 39.1583 82.1748 37.7585C82.1748 36.3587 82.6424 35.1533 83.6166 34.2201C84.5908 33.248 85.7599 32.7814 87.1627 32.7814C88.059 32.7814 88.9163 33.0147 89.6567 33.4424C90.3971 33.8701 91.0206 34.4923 91.4493 35.2311L90.1633 36.0087C89.8516 35.4255 89.4229 34.9977 88.9163 34.6478C88.4097 34.3367 87.7862 34.1812 87.1238 34.1812C86.1106 34.1812 85.2923 34.5311 84.5908 35.2311C83.8894 35.931 83.5777 36.7864 83.5777 37.7585C83.5777 38.7306 83.9284 39.586 84.5908 40.2859C85.2533 40.9859 86.1106 41.3358 87.1238 41.3358C87.8642 41.3358 88.4877 41.1414 89.0332 40.7914C89.5788 40.4415 89.9685 39.936 90.2802 39.3139L91.6051 40.0138C91.1765 40.8303 90.592 41.4913 89.8126 41.9968C89.0332 42.5023 88.137 42.7356 87.2017 42.7356Z" fill="#202E5B"/>
<path d="M93.3203 42.5802V32.8593H99.1656V34.2591H94.7621V37.0198H99.1656V38.3808H94.7621V41.2193H99.1656V42.5802H93.3203Z" fill="#202E5B"/>
<path d="M101.114 42.5802V32.8593H104.154C105.167 32.8593 105.985 33.1703 106.648 33.7536C107.271 34.3368 107.622 35.1145 107.622 36.0088C107.622 36.6699 107.427 37.292 107.076 37.8364C106.726 38.3808 106.18 38.7307 105.518 38.964L107.817 42.5802H106.141L103.219 37.953H103.998C104.66 37.953 105.206 37.7586 105.596 37.3698C105.985 36.9809 106.141 36.5532 106.141 36.0477C106.141 35.5034 105.946 35.0367 105.596 34.7257C105.245 34.4146 104.699 34.2202 103.998 34.2202H102.595V42.5802H101.153H101.114Z" fill="#202E5B"/>
<path d="M110.934 42.5802V34.2202H108.167V32.8593H115.142V34.2202H112.376V42.5802H110.934Z" fill="#202E5B"/>
<path d="M118.066 32.8593H116.624V42.5802H118.066V32.8593Z" fill="#202E5B"/>
<path d="M120.48 42.5802V32.8593H125.975V34.2591H121.922V37.0198H125.975V38.3808H121.922V42.5802H120.48Z" fill="#202E5B"/>
<path d="M129.289 32.8593H127.847V42.5802H129.289V32.8593Z" fill="#202E5B"/>
<path d="M131.51 42.5802V32.8593H137.355V34.2591H132.952V37.0198H137.355V38.3808H132.952V41.2193H137.355V42.5802H131.51Z" fill="#202E5B"/>
<path d="M139.304 42.5802V32.8593H141.993C143.551 32.8593 144.759 33.3259 145.695 34.2202C146.63 35.1534 147.097 36.281 147.097 37.7197C147.097 39.1584 146.63 40.2472 145.656 41.1804C144.681 42.1136 143.473 42.5802 142.031 42.5802H139.304ZM141.837 34.2202H140.746V41.2582H141.876C142.967 41.2582 143.863 40.9082 144.564 40.2472C145.266 39.5861 145.617 38.7307 145.617 37.7197C145.617 36.7087 145.266 35.8144 144.603 35.1923C143.941 34.5313 143.006 34.2202 141.837 34.2202Z" fill="#202E5B"/>
<path d="M77.8499 107.555H77.733C76.8756 107.361 76.2522 107.205 76.2522 106.544C76.2522 105.883 76.7198 105.533 77.5771 105.533C78.3564 105.533 78.902 105.805 79.3307 106.427V106.505L80.11 105.961V105.883C79.4086 105.105 78.6292 104.716 77.616 104.716C76.3301 104.716 75.3948 105.494 75.3948 106.544C75.3948 107.866 76.6029 108.138 77.4991 108.294H77.616C78.5123 108.527 79.2917 108.683 79.2917 109.421C79.2917 110.121 78.7461 110.549 77.8499 110.549C76.9536 110.549 76.2911 110.199 75.8235 109.46V109.382L75.0441 109.966H75.0831C75.7456 110.938 76.6808 111.366 77.8888 111.366C79.4086 111.366 80.188 110.355 80.188 109.421C80.188 108.022 78.8241 107.71 77.9278 107.555M73.1347 109.888L69.6275 104.833H68.6923V111.327H69.5496V106.194L73.0567 111.288H73.9141V104.794H73.0567V109.849L73.1347 109.888ZM91.3719 116.77L88.8 123.264H89.7352L90.3587 121.67H93.2813L93.9048 123.264H94.84L92.2681 116.77H91.4108H91.3719ZM90.6315 120.814L91.7616 117.898L92.8916 120.814H90.6315ZM93.5541 109.616V109.538L92.8137 109.11V109.188C92.3461 110.044 91.5667 110.549 90.5925 110.549C89.2286 110.549 88.1375 109.46 88.1375 108.06C88.1375 106.661 89.2286 105.572 90.5925 105.572C91.4888 105.572 92.2681 106.038 92.6968 106.816V106.894L93.4762 106.427V106.35C92.8527 105.339 91.7226 104.716 90.5535 104.716C88.6831 104.716 87.2023 106.194 87.2023 108.06C87.2023 109.927 88.6831 111.404 90.5535 111.404C91.8005 111.404 92.9306 110.743 93.5151 109.616M83.3834 104.833L80.8114 111.327H81.7467L82.3702 109.732H85.2928L85.9163 111.327H86.8515L84.2796 104.833H83.4223H83.3834ZM82.6819 108.916L83.812 105.961L84.9421 108.916H82.6819ZM121.066 106.311L123.248 109.266L125.508 106.233V111.327H126.365V104.833H125.547L123.248 107.905L121.027 104.833H120.208V111.327H121.066V106.311ZM105.868 111.404C107.7 111.404 109.219 109.927 109.219 108.06C109.219 106.194 107.7 104.716 105.868 104.716C104.037 104.716 102.517 106.233 102.517 108.06C102.517 109.888 103.998 111.404 105.868 111.404ZM105.868 105.572C107.271 105.572 108.323 106.661 108.323 108.06C108.323 109.46 107.232 110.549 105.868 110.549C104.504 110.549 103.413 109.46 103.413 108.06C103.413 106.661 104.504 105.572 105.868 105.572ZM131.042 111.404C132.873 111.404 134.393 109.927 134.393 108.06C134.393 106.194 132.873 104.716 131.042 104.716C129.21 104.716 127.69 106.233 127.69 108.06C127.69 109.888 129.171 111.404 131.042 111.404ZM131.042 105.572C132.406 105.572 133.497 106.661 133.497 108.06C133.497 109.46 132.406 110.549 131.042 110.549C129.678 110.549 128.587 109.46 128.587 108.06C128.587 106.661 129.678 105.572 131.042 105.572ZM60.8986 106.972C60.8986 105.727 59.9634 104.833 58.6385 104.833H56.0276V111.327H56.8849V109.071H58.7554L60.0024 111.327H61.0155L59.6127 108.877C60.392 108.566 60.8986 107.827 60.8986 106.972ZM58.5995 108.294H56.9239V105.65H58.5995C59.4568 105.65 60.0413 106.194 60.0413 106.933C60.0413 107.594 59.5347 108.294 58.5995 108.294ZM64.2889 104.833L61.717 111.327H62.6522L63.2757 109.732H66.1983L66.8218 111.327H67.7571L65.1851 104.833H64.3278H64.2889ZM63.5485 108.916L64.6786 105.961L65.8086 108.916H63.5095H63.5485ZM50.0654 105.65H52.0138V111.366H52.8711V105.65H54.8196V104.833H50.0654V105.65ZM96.165 111.327H97.0223V105.611H98.9707V104.794H94.2166V105.611H96.165V111.327ZM127.379 116.77L124.807 123.264H125.742L126.365 121.67H129.288L129.912 123.264H130.847L128.275 116.77H127.418H127.379ZM126.638 120.814L127.768 117.898L128.898 120.814H126.638ZM162.762 106.972C162.762 105.727 161.827 104.833 160.502 104.833H157.891V111.327H158.748V109.071H160.619L161.866 111.327H162.879L161.476 108.877C162.255 108.566 162.762 107.827 162.762 106.972ZM160.424 108.294H158.748V105.65H160.424C161.281 105.65 161.866 106.194 161.866 106.933C161.866 107.594 161.359 108.294 160.424 108.294ZM153.215 104.716C151.383 104.716 149.863 106.233 149.863 108.06C149.863 109.888 151.344 111.404 153.215 111.404C155.085 111.404 156.566 109.927 156.566 108.06C156.566 106.194 155.085 104.716 153.215 104.716ZM153.215 110.549C151.812 110.549 150.76 109.46 150.76 108.06C150.76 106.661 151.851 105.572 153.215 105.572C154.579 105.572 155.67 106.661 155.67 108.06C155.67 109.46 154.579 110.549 153.215 110.549ZM98.1913 119.492H98.0355C97.1782 119.259 96.5547 119.142 96.5547 118.481C96.5547 117.82 97.0223 117.47 97.8796 117.47C98.659 117.47 99.2045 117.743 99.6332 118.365V118.442L100.413 117.898H100.374C99.7501 117.043 98.9707 116.693 97.9186 116.693C96.6326 116.693 95.6973 117.47 95.6973 118.52C95.6973 119.842 96.9054 120.114 97.8016 120.27H97.9186C98.8148 120.503 99.5942 120.659 99.5942 121.398C99.5942 122.097 99.0486 122.525 98.1524 122.525C97.2561 122.525 96.5936 122.175 96.126 121.436V121.359L95.3466 121.942H95.3856C96.0481 122.914 96.9833 123.342 98.1913 123.342C99.7111 123.342 100.49 122.331 100.49 121.359C100.49 119.959 99.1266 119.648 98.2303 119.492M142.537 111.327H143.395V104.833H142.537V111.327ZM176.362 107.788V108.644H178.856C178.661 109.849 177.765 110.588 176.518 110.588C175.076 110.588 173.985 109.499 173.985 108.099C173.985 106.7 175.037 105.611 176.479 105.611C177.375 105.611 178.115 106 178.583 106.738V106.816L179.362 106.35V106.272C178.7 105.3 177.687 104.794 176.479 104.794C174.569 104.794 173.127 106.233 173.127 108.138C173.127 110.044 174.608 111.482 176.518 111.482C178.661 111.482 179.752 109.81 179.752 108.138V107.827H176.323L176.362 107.788ZM140.121 109.888L136.614 104.833H135.718V111.327H136.575V106.194L140.082 111.288H140.94V104.794H140.082V109.849L140.121 109.888ZM170.984 109.888L167.477 104.833H166.581V111.327H167.438V106.194L170.945 111.288H171.803V104.794H170.945V109.849L170.984 109.888ZM164.087 111.327H164.944V104.833H164.087V111.327ZM144.72 105.65H146.668V111.366H147.525V105.65H149.474V104.833H144.72V105.65ZM104.153 119.492H104.037C103.179 119.259 102.556 119.142 102.556 118.481C102.556 117.82 103.023 117.47 103.881 117.47C104.66 117.47 105.206 117.743 105.634 118.365V118.442L106.375 117.898H106.336C105.712 117.043 104.933 116.693 103.881 116.693C102.595 116.693 101.66 117.47 101.66 118.52C101.66 119.842 102.868 120.114 103.764 120.27H103.881C104.777 120.503 105.556 120.659 105.556 121.398C105.556 122.097 105.011 122.525 104.115 122.525C103.218 122.525 102.556 122.175 102.088 121.436V121.359L101.309 121.942H101.348C102.01 122.914 102.945 123.342 104.153 123.342C105.634 123.342 106.453 122.331 106.453 121.359C106.453 119.959 105.089 119.648 104.192 119.492M110.739 116.654C108.908 116.654 107.388 118.17 107.388 119.998C107.388 121.825 108.869 123.342 110.739 123.342C112.61 123.342 114.09 121.825 114.09 119.998C114.09 118.17 112.571 116.654 110.739 116.654ZM110.739 122.486C109.375 122.486 108.284 121.398 108.284 119.998C108.284 118.598 109.375 117.509 110.739 117.509C112.103 117.509 113.194 118.598 113.194 119.998C113.194 121.398 112.103 122.486 110.739 122.486ZM115.805 104.833H114.948V109.888L111.441 104.833H110.544V111.327H111.402V106.194L114.909 111.288H115.766V104.794L115.805 104.833ZM100.296 111.327H101.153V104.833H100.296V111.327ZM120.793 121.164C120.364 122.02 119.546 122.525 118.611 122.525C117.247 122.525 116.156 121.436 116.156 120.037C116.156 118.637 117.247 117.548 118.611 117.548C119.507 117.548 120.286 118.015 120.715 118.792V118.87L121.494 118.404V118.326C120.871 117.315 119.741 116.693 118.572 116.693C116.701 116.693 115.22 118.17 115.22 120.037C115.22 121.903 116.701 123.381 118.572 123.381C119.819 123.381 120.949 122.72 121.533 121.592V121.514L120.793 121.087V121.164ZM130.496 117.548H132.445V123.264H133.341V117.548H135.289V116.732H130.535V117.548H130.496ZM122.819 123.264H123.677V116.77H122.819V123.264ZM136.497 123.264H140.862V122.409H137.355V120.425H140.862V119.57H137.355V117.587H140.862V116.77H136.497V123.264Z" fill="#202E5B"/>
<path d="M169.971 86.1688H169.27V85.8188H171.062V86.1688H170.361V88.3074H169.971V86.1688Z" fill="#202E5B"/>
<path d="M171.374 85.8188H171.725L172.582 86.9854L173.439 85.8188H173.79V88.3074H173.439V86.4021L172.582 87.5686L171.725 86.441V88.3074H171.374V85.8188Z" fill="#202E5B"/>
<path d="M57.2352 73.7649C57.2352 65.3271 63.6649 58.9113 72.0821 58.9113C77.6546 58.9113 82.3697 61.7887 84.9417 66.1436L79.9927 69.2543C78.4339 66.2992 75.7062 64.4328 72.0821 64.4328C66.7434 64.4328 62.8466 68.5933 62.8466 73.8426C62.8466 79.0919 66.7045 83.1748 71.9652 83.1748C75.94 83.1748 78.7457 80.9584 80.1875 77.8088L85.2924 80.5307C82.8374 85.3522 78.0832 88.6963 72.0042 88.6963C63.2753 88.6963 57.1572 82.0471 57.1572 73.8426" fill="#202E5B"/>
<path d="M94.6446 64.4328H86.5781V59.2612H108.128V64.4328H100.139V88.2297H94.6446V64.4328Z" fill="#202E5B"/>
<path d="M110.896 59.2612H116.312L124.924 71.1986L133.887 59.2612H139.07V88.2297H133.614V67.9323L124.924 79.5586L116.429 68.1267V88.2297H110.896V59.2612Z" fill="#202E5B"/>
<path d="M152.007 59.2612H157.54L168.49 88.1908H162.723L160.813 82.9415H148.694L146.785 88.1908H141.018L151.968 59.2612H152.007ZM150.565 77.8866H158.943L154.773 66.377L150.565 77.8866Z" fill="#202E5B"/>
<path d="M188.754 12.1341V114.593L114.909 166.231L41.0637 114.593V12.1341H188.715H188.754ZM195.924 4.97949H33.8936V118.326L114.909 174.979L195.924 118.326V4.97949Z" fill="#202E5B"/>
</svg>
