<svg width="232" height="180" viewBox="0 0 232 180" fill="none" xmlns="http://www.w3.org/2000/svg">
<path d="M183.575 144.595C139.037 156.475 92.0432 156.475 47.5059 144.595V35.4103C92.0432 23.5615 139.037 23.5615 183.575 35.4103V144.595Z" fill="white"/>
<path d="M194.914 101.223C196.174 103.737 200.489 108.986 201.276 108.797C200.079 112.757 198.568 116.592 196.741 120.269C197.213 118.006 196.961 113.417 196.426 111.657C193.339 101.066 189.811 100.594 189.811 100.594C189.811 100.594 188.74 105.308 191.04 113.009C191.859 115.68 195.166 121.62 195.985 121.557C196.016 121.557 196.048 121.557 196.079 121.557C194.221 125.077 192.079 128.472 189.654 131.678C190.41 129.415 190.914 125.235 190.725 123.506C190.095 117.817 188.898 114.769 187.858 113.197V59.5163C189.213 60.9934 191.197 62.8477 194.032 64.7021C195.953 65.9592 200.678 67.8135 202.41 68.0335C202.883 70.265 203.261 72.5908 203.607 74.9794C203.765 76.048 203.891 77.1166 203.985 78.1852C202.914 76.1423 201.245 73.7536 200.268 72.8108C192.3 65.1735 188.992 66.5249 188.992 66.5249C188.992 66.5249 190.41 71.145 196.268 76.6451C198.032 78.3109 202.599 81.0766 204.269 81.5481C204.521 85.3196 204.489 89.0282 204.237 92.6425C203.607 90.3168 202.19 87.1424 201.245 85.8853C194.725 76.9908 191.229 77.7451 191.229 77.7451C191.229 77.7451 191.827 82.5538 196.646 88.9968C198.19 91.0711 202.725 94.9997 203.985 95.3455C203.544 99.3684 202.788 103.297 201.749 107.1C201.749 104.711 200.741 100.563 199.953 98.9912C195.071 89.0911 191.512 89.2482 191.512 89.2482C191.512 89.2482 191.26 94.0883 194.882 101.254M187.89 133.909V132.243C188.142 132.715 188.394 133.029 188.551 133.092C188.331 133.375 188.11 133.626 187.89 133.909ZM187.89 52.4447C188.457 52.7276 189.055 53.0104 189.685 53.2933C191.953 54.2676 197.623 55.3676 198.725 55.0219C199.922 58.1648 200.898 61.4649 201.749 64.9535C200.394 63.162 198.347 61.0877 197.245 60.3334C192.709 57.3162 189.748 56.3105 187.921 56.0591V52.4761L187.89 52.4447ZM187.89 44.6189C190.221 44.776 192.804 44.7131 193.623 44.3988C195.26 47.1332 196.709 50.0247 197.969 53.0733C196.426 51.4075 193.434 49.2075 191.985 48.5789C190.441 47.8875 189.087 47.3846 187.89 47.0075V44.6189ZM187.89 36.5101C189.528 38.3959 191.008 40.3445 192.363 42.3874C191.103 41.5074 189.339 40.5645 187.89 39.9359V36.5101ZM183.575 144.595C139.037 156.444 92.0433 156.444 47.5059 144.595V35.4101C92.0748 23.5613 139.037 23.5613 183.575 35.4101V144.595ZM157.274 157.324C158.156 156.538 159.259 155.312 160.204 154.055C161.842 153.772 163.479 153.489 165.149 153.175C162.629 154.652 160.015 156.035 157.306 157.324M155.574 158.078C152.203 159.587 148.739 160.938 145.085 162.132C146.943 160.655 149.085 158.361 149.841 157.135C150.219 156.538 150.534 155.972 150.849 155.438C152.424 155.218 154.03 154.998 155.605 154.778C155.322 156.475 155.259 157.858 155.542 158.078M142.156 163.075C141.935 163.138 141.715 163.232 141.494 163.295C141.242 163.358 138.439 164.112 134.439 164.772C136.077 163.327 137.746 161.504 138.407 160.435C139.289 159.021 139.982 157.764 140.518 156.632C141.746 156.507 143.006 156.381 144.235 156.255C143.195 158.707 142.156 161.944 142.187 163.075M133.777 157.355C132.706 159.115 131.226 163.107 130.785 165.275C130.502 165.307 130.187 165.37 129.903 165.37C129.714 165.37 129.525 165.401 129.336 165.432C113.934 168.45 101.776 165.432 101.776 165.432C101.555 165.432 101.366 165.401 101.209 165.37C100.926 165.37 100.611 165.307 100.327 165.275C99.8546 163.107 98.4057 159.115 97.3348 157.355C97.3033 157.292 97.2403 157.229 97.2088 157.167C103.319 157.575 109.43 157.795 115.572 157.795C121.714 157.795 127.824 157.575 133.935 157.167C133.903 157.229 133.84 157.292 133.809 157.355M89.5864 163.295C89.366 163.232 89.1455 163.169 88.8935 163.075C88.8935 161.912 87.8856 158.707 86.8462 156.255C88.0746 156.381 89.3345 156.507 90.5629 156.632C91.1298 157.764 91.7913 159.021 92.6732 160.435C93.3346 161.472 95.004 163.327 96.6419 164.772C92.6102 164.112 89.8069 163.358 89.5864 163.295ZM75.4756 158.078C75.7591 157.858 75.6961 156.475 75.4126 154.778C76.9875 155.029 78.5938 155.249 80.1687 155.438C80.4837 155.972 80.7987 156.538 81.1766 157.135C81.9326 158.361 84.0744 160.624 85.9327 162.132C82.3105 160.938 78.8143 159.587 75.4756 158.078ZM65.9634 153.175C67.6012 153.489 69.2391 153.772 70.9085 154.055C71.8534 155.312 72.9243 156.538 73.8377 157.324C71.1289 156.035 68.5147 154.652 65.9949 153.175M54.9078 25.9814C55.0653 26.5785 59.7899 27.5214 62.1522 27.5528C57.774 28.4329 53.3959 29.4386 49.0492 30.5386C50.8761 28.9357 52.7974 27.4271 54.8763 25.9814M176.173 26.0128C178.252 27.4586 180.205 28.9671 182 30.57C177.653 29.47 173.275 28.4643 168.897 27.5843C171.291 27.5528 176.015 26.61 176.141 26.0442M43.1907 39.9359C41.7418 40.5645 39.978 41.5074 38.7181 42.3874C40.0725 40.3445 41.5844 38.3645 43.1907 36.5101V39.9359ZM43.1907 47.0389C41.9938 47.416 40.6394 47.9189 39.0961 48.6103C37.6472 49.2389 34.6549 51.439 33.1115 53.1047C34.3714 50.0561 35.8203 47.1646 37.4897 44.4303C38.3086 44.7446 40.8914 44.8074 43.2222 44.6503V47.0389H43.1907ZM43.1907 56.0591C41.3639 56.3105 38.4031 57.3162 33.8675 60.3334C32.7336 61.0877 30.7177 63.1306 29.3633 64.9535C30.1823 61.4649 31.1902 58.1648 32.3871 55.0219C33.4895 55.399 39.1591 54.2676 41.4269 53.2933C42.0568 53.0104 42.6553 52.7276 43.2222 52.4447V56.0276L43.1907 56.0591ZM43.1907 113.134C42.1828 114.737 40.9544 117.754 40.3245 123.443C40.1355 125.172 40.6079 129.352 41.3954 131.615C38.9701 128.409 36.8282 125.015 34.9699 121.494C35.0014 121.494 35.0329 121.494 35.0644 121.494C35.8833 121.557 39.222 115.617 40.0095 112.946C42.3088 105.246 41.2379 100.531 41.2379 100.531C41.2379 100.531 37.7102 101.003 34.6234 111.594C34.1195 113.354 33.836 117.974 34.3084 120.206C32.4816 116.529 30.9697 112.726 29.7728 108.734C30.5602 108.923 34.8754 103.674 36.1353 101.16C39.7575 93.994 39.5055 89.1539 39.5055 89.1539C39.5055 89.1539 35.9463 89.0282 31.0642 98.8969C30.2768 100.468 29.3004 104.648 29.2689 107.006C28.2294 103.203 27.4735 99.2741 27.0325 95.2512C28.2924 94.9369 32.8281 90.9768 34.3714 88.9025C39.1905 82.4595 39.789 77.6509 39.789 77.6509C39.789 77.6509 36.3243 76.8966 29.7728 85.791C28.8594 87.0482 27.442 90.2225 26.8121 92.5483C26.5601 88.9339 26.5286 85.2253 26.7806 81.4538C28.4499 80.9823 33.017 78.1852 34.7809 76.5508C40.6394 71.0507 42.0568 66.4307 42.0568 66.4307C42.0568 66.4307 38.7496 65.1106 30.7807 72.7165C29.8043 73.6594 28.1349 76.048 27.064 78.0909C27.19 77.0223 27.316 75.9537 27.442 74.8851C27.7885 72.4965 28.1664 70.1707 28.6389 67.9393C30.3713 67.7193 35.0959 65.8964 36.9857 64.6078C39.8205 62.7535 41.8048 60.9306 43.1592 59.4534V113.071L43.1907 113.134ZM43.1907 133.909C42.9702 133.626 42.7498 133.375 42.5293 133.092C42.7183 133.029 42.9387 132.715 43.1907 132.243V133.909ZM205.686 104.931C204.332 106.409 203.292 107.823 202.473 109.111C203.103 106.88 203.639 104.586 204.08 102.197C205.34 101.977 208.363 100.688 212.552 93.9311C213.781 91.9197 215.797 84.9738 214.505 84.4395C213.718 84.1253 209.056 88.651 207.639 90.9139C206.41 92.8625 205.56 94.6226 204.962 96.194C205.214 93.7111 205.371 91.1339 205.434 88.4625C206.599 88.0539 209.403 86.3253 212.363 78.8137C213.245 76.6137 214.001 69.4164 212.615 69.1336C211.797 68.945 207.985 74.2251 206.977 76.708C206.19 78.688 205.655 80.4795 205.308 82.0509C205.214 79.9452 205.056 77.808 204.836 75.6394C204.804 75.3251 204.773 75.0108 204.71 74.6651C205.749 74.0994 208.269 71.9936 209.938 63.9478C210.411 61.622 209.907 54.4247 208.521 54.3619C207.67 54.3304 204.836 60.1763 204.269 62.7849C203.891 64.6078 203.67 66.2735 203.576 67.7193C203.103 65.4564 202.536 63.1935 201.875 60.962C202.883 60.0505 204.741 57.3162 204.962 49.6475C205.025 47.2903 203.261 40.2816 201.875 40.4702C201.024 40.5959 199.261 46.8189 199.166 49.5218C199.103 51.0304 199.166 52.4133 199.261 53.639C198.41 51.5961 197.465 49.5532 196.457 47.6046C197.245 46.7246 198.914 43.896 197.717 35.7244C197.371 33.3987 194.41 26.7671 193.087 27.2071C192.3 27.4586 191.607 33.933 191.985 36.573C192.3 38.7102 192.741 40.5331 193.245 42.0731C191.922 40.0302 190.473 38.0187 188.929 36.133C189.559 35.1273 190.662 32.0158 188.079 24.2528C187.323 22.0213 183.291 16.0184 182.031 16.6469C181.276 17.0241 181.748 23.4985 182.598 26.0757C183.26 28.15 184.047 29.8786 184.803 31.2929C184.677 31.2615 184.52 31.23 184.394 31.1986C182.787 29.6272 181.087 28.15 179.291 26.7671C179.669 26.0757 180.646 23.1842 176.74 15.9869C175.7 14.1012 171.133 9.35538 170.125 10.1097C169.527 10.5811 170.976 16.3326 172.11 18.5013C173.716 21.5184 175.417 23.5928 176.771 24.9442C174.535 23.4042 172.173 22.0213 169.653 20.827C169.306 19.727 167.826 17.3698 162.062 14.5412C160.267 13.6612 154.282 12.5926 153.936 13.6926C153.747 14.3526 157.904 17.9041 159.952 18.9098C164.33 21.0784 167.7 21.4242 169.086 21.4556V21.6127C170.787 22.5242 172.362 23.4671 173.874 24.4414C172.173 23.8128 169.968 23.247 168.897 23.2156C160.204 22.8699 158.975 25.3842 158.975 25.3842C158.975 25.3842 159.385 25.6042 160.141 25.95C130.659 20.9842 100.516 20.9842 71.0345 25.95C71.7904 25.6357 72.1999 25.3842 72.1999 25.3842C72.1999 25.3842 70.94 22.9013 62.2467 23.2156C61.1758 23.247 58.9709 23.7813 57.2701 24.4414C58.782 23.4671 60.3883 22.5242 62.0262 21.6127V21.4556C63.4436 21.4242 66.8138 21.0784 71.1919 18.9098C73.2078 17.9041 77.3969 14.384 77.1765 13.6926C76.83 12.5611 70.8455 13.6612 69.0501 14.5412C63.2546 17.3698 61.8057 19.727 61.4592 20.827C58.9709 22.0527 56.5771 23.4356 54.3408 24.9442C55.6952 23.5928 57.3961 21.5184 59.0024 18.5013C60.1678 16.3326 61.6167 10.5811 61.0183 10.1097C60.0104 9.32395 55.4117 14.0697 54.3723 15.9869C50.4666 23.2156 51.4431 26.0757 51.821 26.7671C50.0257 28.15 48.3248 29.6272 46.7184 31.1986C46.5924 31.23 46.435 31.2615 46.309 31.2929C47.0649 29.8786 47.8523 28.15 48.5138 26.0757C49.3327 23.5299 49.8052 17.0241 49.0807 16.6469C47.8523 15.9869 43.7892 21.9899 43.0332 24.2528C40.4504 32.0158 41.5529 35.1273 42.1828 36.133C40.6394 38.0187 39.1905 39.9988 37.8677 42.0731C38.3716 40.5331 38.8126 38.7102 39.1276 36.573C39.5055 33.9015 38.8441 27.4586 38.0251 27.2071C36.7022 26.7985 33.7415 33.3987 33.395 35.7244C32.1981 43.896 33.8675 46.7246 34.6234 47.6046C33.584 49.5532 32.6706 51.5961 31.8201 53.639C31.9146 52.4133 31.9776 51.0304 31.9146 49.5218C31.8201 46.8503 30.0248 40.5959 29.2059 40.4702C27.82 40.2816 26.0876 47.2903 26.1506 49.6475C26.3711 57.2848 28.2294 60.0191 29.2374 60.962C28.5759 63.1935 28.009 65.4564 27.5365 67.7193C27.442 66.2735 27.253 64.6078 26.875 62.7849C26.3081 60.1448 23.4733 54.299 22.6229 54.3619C21.237 54.4247 20.7016 61.622 21.2055 63.9478C22.8749 71.9936 25.3947 74.1308 26.4341 74.6651C26.4026 74.9794 26.3396 75.3251 26.3081 75.6394C26.0876 77.8394 25.9301 79.9766 25.8356 82.0509C25.4892 80.4795 24.9852 78.688 24.1663 76.708C23.1584 74.2251 19.3472 68.945 18.5282 69.1336C17.1738 69.4479 17.9298 76.6137 18.7802 78.8137C21.741 86.2939 24.5442 88.0539 25.7411 88.4625C25.8041 91.1339 25.9616 93.7111 26.2136 96.194C25.6152 94.654 24.7647 92.8625 23.5363 90.9139C22.1189 88.651 17.4258 84.1253 16.6699 84.4395C15.3785 84.9738 17.3628 91.9197 18.6227 93.9311C22.8119 100.688 25.8356 101.977 27.0955 102.197C27.5365 104.586 28.072 106.88 28.7019 109.111C27.883 107.823 26.8121 106.409 25.4892 104.931C23.6938 102.951 18.3077 99.3055 17.5833 99.7455C16.3864 100.5 19.5676 107.006 21.1425 108.766C26.2136 114.454 29.3948 115.366 30.7492 115.46C31.4737 117.377 32.2926 119.263 33.1745 121.054C32.2926 120.174 31.3162 119.294 30.1193 118.383C28.009 116.749 22.0559 114.077 21.426 114.643C20.3866 115.586 24.6387 121.432 26.4971 122.909C32.1666 127.403 35.4109 127.937 36.8912 127.843C37.9936 129.572 39.1276 131.269 40.356 132.872C39.3795 132.18 38.2456 131.489 36.9542 130.798C34.5919 129.54 28.2609 127.937 27.757 128.629C26.9065 129.729 32.1036 134.758 34.1825 135.889C38.4661 138.215 41.3639 138.938 43.2537 139.063V141.232C40.356 140.823 36.8597 140.698 36.5763 141.232C36.0093 142.332 40.6394 145.601 43.2537 146.889V147.926L44.8286 148.366C48.2933 149.341 51.821 150.189 55.3172 151.006C52.262 150.975 47.8208 151.541 47.6004 152.201C47.1909 153.521 53.8054 156.475 56.1362 156.821C63.5066 157.921 66.5618 156.664 67.7272 155.815C70.2155 157.167 72.6723 158.361 75.0661 159.429C73.3653 159.147 71.3179 158.989 68.9241 159.084C66.2468 159.178 59.9789 160.969 59.8529 161.787C59.6639 163.169 66.6878 164.93 69.0501 164.835C76.9875 164.615 79.6333 162.635 80.4522 161.661C83.6019 162.887 86.5312 163.829 89.051 164.584C87.3501 164.301 85.3028 164.144 82.909 164.238C80.2317 164.332 73.9637 166.124 73.8377 166.941C73.6487 168.324 80.6727 170.084 83.035 170.021C93.6181 169.738 94.815 166.312 94.815 166.312C94.815 166.312 94.563 166.187 94.0591 165.967C96.7994 166.627 98.5317 166.941 98.8152 166.972C99.5081 167.098 100.516 167.224 101.713 167.35C116.832 170.021 129.273 167.35 129.273 167.35C130.47 167.224 131.478 167.098 132.171 166.972C132.454 166.941 134.187 166.627 136.959 165.967C136.455 166.187 136.203 166.312 136.203 166.312C136.203 166.312 137.4 169.738 147.951 170.021C150.314 170.084 157.337 168.355 157.18 166.941C157.054 166.124 150.786 164.332 148.109 164.238C145.715 164.144 143.668 164.332 141.967 164.584C144.518 163.829 147.416 162.855 150.566 161.661C151.416 162.635 154.062 164.615 161.968 164.835C164.33 164.898 171.354 163.169 171.165 161.787C171.039 160.969 164.802 159.178 162.094 159.084C159.7 158.989 157.652 159.147 155.952 159.429C158.345 158.361 160.802 157.167 163.29 155.815C164.456 156.664 167.48 157.889 174.882 156.821C177.212 156.475 183.858 153.552 183.417 152.201C183.197 151.541 178.756 150.975 175.7 151.006C179.228 150.189 182.724 149.341 186.221 148.366L187.795 147.926V146.889C190.441 145.632 195.071 142.332 194.473 141.232C194.189 140.698 190.662 140.792 187.795 141.232V139.063C189.654 138.938 192.552 138.183 196.867 135.889C198.946 134.758 204.174 129.729 203.292 128.629C202.788 127.969 196.457 129.54 194.095 130.798C192.804 131.458 191.67 132.18 190.693 132.872C191.89 131.269 193.056 129.603 194.158 127.843C195.638 127.937 198.883 127.372 204.552 122.909C206.41 121.432 210.663 115.586 209.623 114.643C208.993 114.077 203.072 116.749 200.93 118.383C199.765 119.294 198.757 120.206 197.875 121.054C198.757 119.263 199.544 117.409 200.3 115.46C201.686 115.397 204.836 114.486 209.907 108.766C211.482 107.006 214.663 100.5 213.466 99.7455C212.773 99.3055 207.355 102.951 205.56 104.931" fill="#827A2B"/>
<path d="M88.2327 98.7398C88.2327 96.414 90.0595 94.6226 92.3273 94.6226C93.8392 94.6226 95.1621 95.4397 95.8865 96.634L94.8471 97.294C94.3432 96.3826 93.4612 95.7854 92.3273 95.7854C90.658 95.7854 89.3981 97.1055 89.3981 98.7398C89.3981 100.374 90.658 101.663 92.2958 101.663C93.5242 101.663 94.4377 100.971 94.8786 100.028L95.9495 100.594C95.2566 101.946 93.9337 102.826 92.2958 102.826C89.9335 102.826 88.2012 100.971 88.2012 98.7083" fill="#827A2B"/>
<path d="M97.335 94.7483H102.154V95.8797H98.5319V98.1741H102.154V99.2741H98.5319V101.6H102.154V102.731H97.335V94.7483Z" fill="#827A2B"/>
<path d="M103.823 94.7483H106.312C108.012 94.7483 109.146 95.9112 109.146 97.3569C109.146 98.4255 108.548 99.4312 107.414 99.777L109.335 102.731H107.949L105.524 98.9284H106.186C107.382 98.9284 107.949 98.0798 107.949 97.3569C107.949 96.4455 107.382 95.8483 106.186 95.8483H105.02V102.731H103.823V94.7483Z" fill="#827A2B"/>
<path d="M112.485 95.8483H110.217V94.7483H115.949V95.8483H113.682V102.731H112.485V95.8483Z" fill="#827A2B"/>
<path d="M118.785 94.7483H117.588V102.731H118.785V94.7483Z" fill="#827A2B"/>
<path d="M120.611 94.7483H125.147V95.8797H121.808V98.1741H125.147V99.2741H121.808V102.731H120.611V94.7483Z" fill="#827A2B"/>
<path d="M128.108 94.7483H126.911V102.731H128.108V94.7483Z" fill="#827A2B"/>
<path d="M129.966 94.7483H134.785V95.8797H131.163V98.1741H134.785V99.2741H131.163V101.6H134.785V102.731H129.966V94.7483Z" fill="#827A2B"/>
<path d="M137.652 95.8483V101.631H138.597C140.455 101.631 141.684 100.374 141.684 98.7398C141.684 97.1055 140.581 95.8483 138.565 95.8483H137.652ZM136.455 94.7483H138.66C141.274 94.7483 142.881 96.4769 142.881 98.7398C142.881 101.003 141.117 102.731 138.723 102.731H136.455V94.7483Z" fill="#827A2B"/>
<path d="M58.499 112.254C58.499 109.992 60.2314 108.137 62.6567 108.137C64.2631 108.137 65.5545 108.954 66.2474 110.212L65.208 110.84C64.704 109.866 63.7906 109.3 62.6567 109.3C60.9243 109.3 59.6959 110.652 59.6959 112.254C59.6959 113.857 60.9558 115.209 62.6567 115.209C64.1686 115.209 65.1135 114.297 65.3655 113.009H62.4992V111.877H66.6254V112.286C66.6254 114.454 65.145 116.34 62.6567 116.34C60.1684 116.34 58.499 114.454 58.499 112.223" fill="#827A2B"/>
<path d="M68.168 108.263H69.3649V115.114H72.6091V116.277H68.168V108.263Z" fill="#827A2B"/>
<path d="M80.4526 112.254C80.4526 110.62 79.1927 109.3 77.5234 109.3C75.854 109.3 74.6256 110.652 74.6256 112.254C74.6256 113.857 75.8855 115.209 77.5234 115.209C79.1612 115.209 80.4526 113.889 80.4526 112.254ZM73.4287 112.254C73.4287 109.992 75.2556 108.137 77.5234 108.137C79.7912 108.137 81.6496 109.992 81.6496 112.254C81.6496 114.517 79.8227 116.372 77.5234 116.372C75.2241 116.372 73.4287 114.517 73.4287 112.254Z" fill="#827A2B"/>
<path d="M84.3895 109.363V111.594H85.9644C86.9408 111.594 87.3503 111.123 87.3503 110.432C87.3503 109.74 86.8463 109.332 85.9014 109.332H84.3895V109.363ZM84.3895 112.694V115.146H86.0904C87.0353 115.146 87.6023 114.643 87.6023 113.92C87.6023 113.197 87.1613 112.694 86.0589 112.694H84.421H84.3895ZM83.1926 108.263H85.9014C87.5393 108.263 88.5157 109.08 88.5157 110.432C88.5157 111.154 88.2007 111.72 87.5708 112.066C88.3267 112.38 88.7677 113.04 88.7677 113.952C88.7677 115.429 87.6968 116.246 86.0589 116.246H83.1611V108.263H83.1926Z" fill="#827A2B"/>
<path d="M92.1069 113.417H94.6582L93.3983 109.929L92.1069 113.417ZM92.7684 108.263H93.9968L96.926 116.246H95.6976L95.0677 114.549H91.6975L91.0675 116.246H89.8076L92.7369 108.263H92.7684Z" fill="#827A2B"/>
<path d="M98.375 108.263H99.5404V115.114H102.785V116.277H98.375V108.263Z" fill="#827A2B"/>
<path d="M107.257 114.926L108.296 114.109C108.769 114.863 109.399 115.271 110.218 115.271C111.1 115.271 111.666 114.706 111.666 113.983C111.666 113.166 110.785 112.883 109.871 112.6C108.8 112.254 107.603 111.814 107.603 110.337C107.603 109.111 108.674 108.168 110.155 108.168C111.383 108.168 112.139 108.64 112.737 109.363L111.761 110.086C111.415 109.52 110.879 109.237 110.155 109.237C109.336 109.237 108.832 109.708 108.832 110.337C108.832 111.091 109.682 111.343 110.596 111.657C111.698 112.034 112.895 112.506 112.895 113.983C112.895 115.209 111.887 116.371 110.249 116.371C108.863 116.371 107.95 115.806 107.257 114.926Z" fill="#827A2B"/>
<path d="M116.234 113.417H118.785L117.525 109.929L116.234 113.417ZM116.895 108.263H118.123L121.053 116.246H119.824L119.194 114.549H115.824L115.226 116.246H113.966L116.895 108.263Z" fill="#827A2B"/>
<path d="M122.501 108.263H123.855L127.919 114.329V108.263H129.084V116.277H127.824L123.698 110.117V116.277H122.501V108.263Z" fill="#827A2B"/>
<path d="M130.628 112.254C130.628 109.929 132.455 108.137 134.754 108.137C136.266 108.137 137.589 108.954 138.314 110.149L137.274 110.809C136.77 109.897 135.888 109.3 134.754 109.3C133.085 109.3 131.825 110.62 131.825 112.254C131.825 113.889 133.085 115.177 134.723 115.177C135.951 115.177 136.865 114.486 137.306 113.543L138.377 114.109C137.684 115.46 136.361 116.34 134.723 116.34C132.361 116.34 130.597 114.486 130.597 112.223" fill="#827A2B"/>
<path d="M141.368 109.394H139.101V108.263H144.833V109.394H142.565V116.277H141.368V109.394Z" fill="#827A2B"/>
<path d="M147.636 108.263H146.439V116.246H147.636V108.263Z" fill="#827A2B"/>
<path d="M156.297 112.254C156.297 110.62 155.037 109.3 153.368 109.3C151.699 109.3 150.47 110.652 150.47 112.254C150.47 113.857 151.73 115.209 153.368 115.209C155.006 115.209 156.297 113.889 156.297 112.254ZM149.273 112.254C149.273 109.992 151.1 108.137 153.368 108.137C155.636 108.137 157.494 109.992 157.494 112.254C157.494 114.517 155.667 116.372 153.368 116.372C151.069 116.372 149.273 114.517 149.273 112.254Z" fill="#827A2B"/>
<path d="M159.038 108.263H160.392L164.456 114.329V108.263H165.621V116.277H164.361L160.235 110.117V116.277H159.038V108.263Z" fill="#827A2B"/>
<path d="M166.945 114.926L167.985 114.109C168.457 114.863 169.087 115.271 169.906 115.271C170.788 115.271 171.355 114.706 171.355 113.983C171.355 113.166 170.473 112.883 169.56 112.6C168.489 112.254 167.292 111.814 167.292 110.337C167.292 109.111 168.394 108.168 169.875 108.168C171.103 108.168 171.859 108.64 172.457 109.363L171.481 110.086C171.134 109.52 170.599 109.237 169.875 109.237C169.056 109.237 168.552 109.708 168.552 110.337C168.552 111.091 169.402 111.343 170.316 111.657C171.418 112.034 172.615 112.506 172.615 113.983C172.615 115.209 171.607 116.371 169.969 116.371C168.583 116.371 167.67 115.806 166.977 114.926" fill="#827A2B"/>
<path d="M82.6572 128.44L83.6966 127.623C84.1691 128.378 84.7991 128.786 85.618 128.786C86.4999 128.786 87.0669 128.22 87.0669 127.497C87.0669 126.68 86.1849 126.397 85.2715 126.115C84.2006 125.769 83.0037 125.329 83.0037 123.852C83.0037 122.626 84.0746 121.683 85.555 121.683C86.7834 121.683 87.5393 122.155 88.1378 122.877L87.1614 123.6C86.8149 123.035 86.2794 122.752 85.555 122.752C84.7361 122.752 84.2321 123.223 84.2321 123.852C84.2321 124.606 85.0825 124.857 85.996 125.172C87.0984 125.549 88.2953 126.02 88.2953 127.497C88.2953 128.723 87.2873 129.886 85.6495 129.886C84.2636 129.886 83.3502 129.32 82.6572 128.44Z" fill="#827A2B"/>
<path d="M91.067 122.909V126.303H92.4214C93.5238 126.303 94.2168 125.549 94.2168 124.606C94.2168 123.663 93.5238 122.909 92.4214 122.909H91.067ZM89.8701 121.809H92.5159C94.2168 121.809 95.4137 123.035 95.4137 124.606C95.4137 126.177 94.2168 127.403 92.5159 127.403H91.0985V129.792H89.9016V121.809H89.8701Z" fill="#827A2B"/>
<path d="M96.9883 121.809H101.776V122.94H98.1852V125.203H101.776V126.335H98.1852V128.66H101.776V129.792H96.9883V121.809Z" fill="#827A2B"/>
<path d="M103.288 125.8C103.288 123.475 105.115 121.683 107.414 121.683C108.926 121.683 110.249 122.5 110.973 123.695L109.934 124.355C109.43 123.443 108.548 122.846 107.446 122.846C105.776 122.846 104.516 124.166 104.516 125.8C104.516 127.435 105.776 128.723 107.446 128.723C108.674 128.723 109.588 128.032 110.029 127.089L111.099 127.655C110.407 129.006 109.084 129.886 107.446 129.886C105.083 129.886 103.32 128.032 103.32 125.769" fill="#827A2B"/>
<path d="M113.682 121.809H112.485V129.792H113.682V121.809Z" fill="#827A2B"/>
<path d="M117.462 126.932H120.013L118.722 123.443L117.462 126.932ZM118.124 121.809H119.352L122.281 129.792H121.053L120.423 128.095H117.053L116.454 129.792H115.194L118.124 121.809Z" fill="#827A2B"/>
<path d="M123.729 121.809H124.926V128.66H128.139V129.792H123.729V121.809Z" fill="#827A2B"/>
<path d="M131.1 121.809H129.903V129.792H131.1V121.809Z" fill="#827A2B"/>
<path d="M132.486 128.44L133.526 127.623C133.998 128.378 134.628 128.786 135.447 128.786C136.329 128.786 136.896 128.22 136.896 127.497C136.896 126.68 136.014 126.397 135.101 126.115C134.03 125.769 132.833 125.329 132.833 123.852C132.833 122.626 133.935 121.683 135.416 121.683C136.644 121.683 137.4 122.155 137.998 122.877L137.022 123.6C136.676 123.035 136.14 122.752 135.416 122.752C134.597 122.752 134.093 123.223 134.093 123.852C134.093 124.606 134.943 124.857 135.857 125.172C136.959 125.549 138.156 126.02 138.156 127.497C138.156 128.723 137.148 129.886 135.51 129.886C134.124 129.886 133.211 129.32 132.518 128.44" fill="#827A2B"/>
<path d="M141.431 122.909H139.163V121.809H144.896V122.909H142.628V129.792H141.431V122.909Z" fill="#827A2B"/>
<path d="M64.9238 66.6821C64.9238 58.7934 70.8768 53.1047 78.5307 53.1047C83.5073 53.1047 87.8225 55.7134 90.1533 59.642L85.7121 62.4706C84.2318 59.7049 81.901 58.0705 78.5307 58.0705C73.5856 58.0705 69.9319 61.842 69.9319 66.6821C69.9319 71.5222 73.5541 75.2308 78.4047 75.2308C82.0269 75.2308 84.5782 73.1251 85.9326 70.2965L90.5312 72.7165C88.2004 77.2109 83.7908 80.2595 78.5307 80.2595C70.3414 80.2595 64.9238 74.2251 64.9238 66.6821Z" fill="#827A2B"/>
<path d="M91.9482 66.6821C91.9482 59.1391 97.6493 53.1047 105.492 53.1047C111.004 53.1047 115.288 55.9019 117.556 59.862L113.115 62.5335C111.477 59.5163 108.988 57.9763 105.524 57.9763C100.705 57.9763 96.9563 61.9363 96.9563 66.6507C96.9563 71.3651 100.61 75.3251 105.713 75.3251C109.555 75.3251 112.264 73.1565 113.241 69.7936H104.925V64.9849H118.69V67.0278C118.69 74.1308 113.618 80.2281 105.744 80.2281C97.4603 80.2281 91.9797 73.9737 91.9797 66.6507" fill="#827A2B"/>
<path d="M119.762 75.5136L124.36 71.8993C125.683 74.1308 127.731 75.4508 130.093 75.4508C132.676 75.4508 134.062 73.785 134.062 71.9621C134.062 69.7935 131.416 69.1021 128.581 68.2221C125.022 67.1221 121.085 65.7706 121.085 60.6791C121.085 56.4362 124.801 53.0732 129.904 53.0732C134.219 53.0732 136.676 54.7076 138.818 56.9076L134.66 60.0505C133.589 58.4162 132.014 57.5676 129.935 57.5676C127.573 57.5676 126.313 58.8248 126.313 60.4905C126.313 62.5334 128.864 63.1934 131.668 64.1363C135.258 65.2992 139.322 66.9021 139.322 71.9621C139.322 76.1422 135.983 80.228 130.156 80.228C125.368 80.228 122.187 78.2165 119.793 75.4822" fill="#827A2B"/>
<path d="M140.896 75.5136L145.494 71.8993C146.786 74.1308 148.864 75.4508 151.227 75.4508C153.809 75.4508 155.195 73.785 155.195 71.9621C155.195 69.7935 152.55 69.1021 149.715 68.2221C146.156 67.1221 142.218 65.7706 142.218 60.6791C142.218 56.4362 145.935 53.0732 151.038 53.0732C155.353 53.0732 157.841 54.7076 159.951 56.9076L155.794 60.0505C154.691 58.4162 153.148 57.5676 151.069 57.5676C148.707 57.5676 147.447 58.8248 147.447 60.4905C147.447 62.5334 149.998 63.1934 152.802 64.1363C156.392 65.2992 160.455 66.9021 160.455 71.9621C160.455 76.1422 157.117 80.228 151.29 80.228C146.502 80.228 143.321 78.2165 140.927 75.4822" fill="#827A2B"/>
<path d="M160.235 78.0908V78.4365H160.834V79.9766H161.18V78.4365H161.779V78.0908H160.235ZM163.7 78.0908L162.976 79.0023L162.283 78.0908H161.936V79.9451H162.283V78.688L162.944 79.5051L163.606 78.688V79.9451H163.984V78.0908H163.669H163.7Z" fill="#827A2B"/>
</svg>
