<svg width="232" height="180" viewBox="0 0 232 180" fill="none" xmlns="http://www.w3.org/2000/svg">
<path d="M183.647 144.129C138.744 156.105 91.3641 156.105 46.4609 144.129V34.0689C91.3641 22.1251 138.744 22.1251 183.647 34.0689V144.129Z" fill="white"/>
<path fill-rule="evenodd" clip-rule="evenodd" d="M205.603 104.921C204.249 106.398 203.21 107.812 202.391 109.101C203.021 106.87 203.556 104.576 203.997 102.188C205.257 101.968 208.28 100.679 212.468 93.9234C213.696 91.9123 215.712 84.9679 214.421 84.4337C213.665 84.1194 208.973 88.6443 207.556 90.9068C206.327 92.855 205.477 94.6147 204.879 96.1859C205.131 93.7034 205.288 91.1268 205.351 88.4558C206.516 88.0473 209.319 86.319 212.311 78.809C213.193 76.6094 213.948 69.4135 212.563 69.1307C211.744 68.9421 207.934 74.2212 206.926 76.7036C206.139 78.6833 205.603 80.4744 205.257 82.0141C205.162 79.9088 205.005 77.772 204.784 75.6038C204.753 75.2896 204.721 74.9439 204.658 74.6297C205.698 74.0641 208.217 71.9588 209.886 63.9145C210.358 61.5892 209.855 54.3933 208.469 54.3305C207.619 54.2991 204.784 60.1437 204.218 62.7518C203.84 64.5744 203.619 66.2398 203.525 67.6852C203.052 65.4228 202.486 63.1603 201.824 60.9293C202.832 60.018 204.69 57.2842 204.91 49.617C204.973 47.2603 203.21 40.253 201.824 40.4415C201.005 40.5672 199.21 46.8204 199.116 49.4913C199.053 50.9996 199.116 52.3822 199.21 53.6077C198.36 51.5653 197.415 49.5228 196.408 47.5745C197.195 46.7261 198.864 43.8666 197.636 35.6967C197.29 33.3714 194.329 26.7411 193.007 27.1811C192.219 27.4324 191.527 33.9056 191.905 36.5451C192.188 38.6818 192.66 40.5044 193.164 42.0441C191.842 40.0016 190.393 37.9905 188.818 36.1052C189.448 35.0996 190.55 31.9888 187.968 24.2273C187.212 21.9963 183.181 15.9945 181.922 16.6544C181.166 17.0314 181.638 23.536 182.489 26.0813C183.15 28.1552 183.937 29.8834 184.693 31.2974C184.567 31.266 184.41 31.2346 184.284 31.1718C182.678 29.6006 180.977 28.1237 179.182 26.7411C179.56 26.0498 180.536 23.1589 176.631 15.9631C175.592 14.0777 170.994 9.3328 169.987 10.087C169.388 10.5583 170.837 16.3087 171.971 18.4769C173.577 21.4935 175.277 23.5674 176.631 24.9186C174.395 23.3789 172.034 21.9963 169.514 20.8022C169.168 19.7024 167.688 17.3457 161.925 14.549C160.13 13.6692 154.146 12.6008 153.8 13.7006C153.611 14.3605 157.768 17.9113 159.815 18.9168C164.192 21.085 167.562 21.4306 168.947 21.4621V21.6192C170.648 22.5304 172.222 23.4731 173.734 24.4472C172.034 23.7874 169.829 23.2532 168.758 23.2218C160.067 22.8761 158.839 25.3899 158.839 25.3899C158.839 25.3899 159.217 25.6099 160.004 25.9556C130.528 20.9907 100.391 20.9907 70.9151 25.9556C71.6709 25.6413 72.0803 25.3899 72.0803 25.3899C72.0803 25.3899 70.8206 22.8761 62.1605 23.2218C61.0898 23.2532 58.8854 23.7874 57.1849 24.4472C58.6965 23.4731 60.3025 22.5304 61.9401 21.6192V21.4621C63.3572 21.4306 66.7267 21.085 71.104 18.9168C73.1195 17.9113 77.3078 14.3919 77.1189 13.7006C76.7725 12.5694 70.7891 13.7006 68.9941 14.549C63.1997 17.3771 61.7511 19.7338 61.4047 20.8022C58.8854 22.0277 56.5236 23.4103 54.2877 24.9186C55.6418 23.5674 57.3423 21.4935 58.9484 18.4769C60.1136 16.3087 61.5622 10.5583 60.9323 10.087C59.9246 9.30138 55.3269 14.0463 54.3192 15.9631C50.4143 23.1903 51.3905 26.0498 51.7684 26.7411C49.9734 28.1237 48.2729 29.6006 46.6668 31.1718C46.5408 31.2032 46.3834 31.2346 46.2574 31.2974C47.0132 29.8834 47.8005 28.1552 48.4618 26.0813C49.2806 23.536 49.7529 17.0314 49.0286 16.6544C47.8005 15.9945 43.7381 21.9963 42.9823 24.2273C40.4 31.9888 41.5022 35.0996 42.1321 36.1052C40.589 37.9905 39.1404 39.9702 37.7863 42.0441C38.2901 40.5044 38.7625 38.6818 39.0459 36.5451C39.4238 33.8741 38.7625 27.4324 37.9437 27.1811C36.6211 26.7411 33.6609 33.3714 33.3145 35.6967C32.1178 43.8666 33.7869 46.7261 34.5742 47.5745C33.5349 49.5228 32.6217 51.5653 31.7714 53.6077C31.8659 52.3822 31.9289 50.9996 31.8659 49.4913C31.7714 46.8204 29.9764 40.5672 29.1577 40.4415C27.772 40.253 26.0085 47.2603 26.0715 49.617C26.292 57.2842 28.1499 59.9866 29.1577 60.9293C28.4963 63.1603 27.9295 65.4228 27.4571 67.6852C27.3627 66.2398 27.1737 64.5744 26.7643 62.7518C26.1975 60.1123 23.3633 54.2676 22.513 54.3305C21.1274 54.3933 20.6235 61.5892 21.0959 63.9145C22.7649 71.9588 25.2842 74.0955 26.3234 74.6297C26.292 74.9439 26.229 75.2896 26.1975 75.6038C25.977 77.8034 25.8196 79.9402 25.7251 82.0141C25.3787 80.4429 24.8749 78.6519 24.0876 76.7036C23.0798 74.2212 19.2694 68.9421 18.4506 69.1307C17.0965 69.4449 17.8523 76.6094 18.7026 78.809C21.6627 86.2876 24.497 88.0473 25.6621 88.4558C25.7251 91.1268 25.8511 93.7034 26.1345 96.1859C25.5362 94.6461 24.6859 92.855 23.4577 90.9068C22.0406 88.6443 17.3484 84.1194 16.5926 84.4337C15.3015 84.9679 17.2855 91.9123 18.5451 93.9234C22.7334 100.679 25.7566 101.968 27.0163 102.188C27.4571 104.576 27.9925 106.901 28.6223 109.101C27.8035 107.812 26.7328 106.398 25.4102 104.921C23.6152 102.942 18.2302 99.2967 17.5059 99.7366C16.3407 100.491 19.4898 106.964 21.0644 108.755C26.1345 114.443 29.3151 115.385 30.6692 115.448C31.3935 117.365 32.2123 119.25 33.0941 121.041C32.2123 120.193 31.2361 119.282 30.0394 118.37C27.9295 116.705 21.9777 114.066 21.3478 114.631C20.3086 115.574 24.5599 121.418 26.4179 122.895C32.0863 127.357 35.3299 127.923 36.81 127.829C37.9122 129.557 39.0459 131.254 40.2741 132.856C39.2978 132.165 38.1642 131.474 36.873 130.783C34.4797 129.526 28.1814 127.954 27.6776 128.614C26.8273 129.714 32.0234 134.742 34.1018 135.873C38.3846 138.198 41.2818 138.921 43.1713 139.047V141.215C40.3056 140.806 36.7785 140.712 36.4951 141.215C35.9283 142.315 40.5575 145.583 43.1713 146.84V147.877L44.7458 148.317C48.2414 149.259 51.7369 150.139 55.2639 150.956C52.2093 150.925 47.769 151.49 47.5486 152.15C47.1077 153.47 53.7523 156.424 56.0827 156.769C63.4831 157.869 66.5063 156.612 67.6715 155.764C70.1593 157.115 72.6156 158.309 75.0089 159.377C73.3084 159.126 71.2615 158.937 68.8681 159.032C66.1914 159.126 59.9246 160.917 59.7987 161.734C59.6097 163.117 66.6323 164.876 68.9941 164.814C76.9299 164.594 79.5752 162.614 80.3939 161.64C83.5431 162.865 86.4718 163.808 88.9911 164.562C87.2905 164.279 85.2436 164.122 82.8818 164.217C80.205 164.311 73.9382 166.102 73.8123 166.919C73.6233 168.302 80.6459 170.03 83.0077 169.998C93.5888 169.684 94.754 166.29 94.754 166.29C94.754 166.29 94.502 166.165 93.9982 165.945C96.7379 166.605 98.4699 166.887 98.7533 166.95C99.4462 167.076 100.454 167.202 101.651 167.327C116.766 170.03 129.237 167.327 129.237 167.327C130.434 167.202 131.441 167.076 132.134 166.95C132.418 166.919 134.181 166.605 136.921 165.945C136.417 166.165 136.165 166.29 136.165 166.29C136.165 166.29 137.362 169.684 147.911 169.998C150.273 170.061 157.296 168.302 157.107 166.919C156.981 166.102 150.745 164.311 148.037 164.217C145.644 164.122 143.597 164.311 141.896 164.562C144.447 163.808 147.344 162.834 150.493 161.64C151.312 162.614 153.989 164.594 161.893 164.814C164.255 164.876 171.278 163.117 171.089 161.734C170.963 160.917 164.728 159.126 162.019 159.032C159.626 158.937 157.579 159.126 155.878 159.377C158.272 158.309 160.728 157.115 163.216 155.764C164.381 156.581 167.404 157.838 174.805 156.769C177.135 156.424 183.748 153.47 183.339 152.15C183.118 151.49 178.678 150.925 175.624 150.956C179.151 150.139 182.646 149.259 186.11 148.317L187.716 147.877V146.84C190.33 145.583 194.991 142.283 194.392 141.215C194.109 140.681 190.582 140.775 187.716 141.215V139.047C189.574 138.921 192.471 138.167 196.786 135.873C198.864 134.742 204.06 129.714 203.21 128.614C202.706 127.954 196.376 129.526 194.014 130.783C192.723 131.474 191.59 132.165 190.613 132.856C191.81 131.254 192.975 129.588 194.077 127.829C195.557 127.923 198.801 127.357 204.47 122.895C206.327 121.418 210.579 115.574 209.54 114.631C208.91 114.066 202.989 116.736 200.848 118.37C199.683 119.282 198.675 120.193 197.793 121.041C198.675 119.25 199.462 117.396 200.218 115.448C201.604 115.385 204.753 114.474 209.823 108.755C211.398 106.995 214.578 100.491 213.382 99.7366C212.657 99.2967 207.272 102.942 205.477 104.921M43.1398 133.893C42.9193 133.642 42.6989 133.359 42.4785 133.108C42.6359 133.045 42.8878 132.731 43.1398 132.228V133.893ZM43.1398 113.123C42.1321 114.725 40.9039 117.742 40.2741 123.43C40.0851 125.158 40.5575 129.337 41.3448 131.6C38.92 128.394 36.7785 125.001 34.9206 121.481C34.9206 121.481 34.9835 121.481 35.015 121.481C35.8338 121.544 39.1719 115.605 39.9592 112.934C42.258 105.236 41.1873 100.522 41.1873 100.522C41.1873 100.522 37.6603 100.994 34.5742 111.583C34.0703 113.343 33.8184 117.962 34.2592 120.193C32.4328 116.517 30.9212 112.714 29.7245 108.724C30.5118 108.912 34.8261 103.665 36.0857 101.151C39.7072 93.9863 39.4553 89.1471 39.4553 89.1471C39.4553 89.1471 35.8968 89.0214 31.0156 98.8882C30.2284 100.459 29.2521 104.639 29.2206 106.995C28.1814 103.193 27.4256 99.2653 26.9848 95.2431C28.2444 94.8975 32.7792 90.9696 34.3222 88.8957C39.1404 82.454 39.7387 77.6463 39.7387 77.6463C39.7387 77.6463 36.2747 76.8922 29.7245 85.7849C28.8113 87.0418 27.3942 90.2155 26.7643 92.5408C26.5124 88.9271 26.4809 85.2192 26.7328 81.4485C28.4019 80.9771 32.9681 78.1805 34.7316 76.5465C40.589 71.0475 42.0061 66.4283 42.0061 66.4283C42.0061 66.4283 38.731 65.1085 30.7322 72.7129C29.7245 73.6556 28.087 76.0437 27.0163 78.1177C27.1422 77.0493 27.2367 75.9809 27.3942 74.9125C27.7406 72.5244 28.1185 70.1991 28.5908 67.968C30.3228 67.7795 35.0465 65.9255 36.9675 64.6686C39.8017 62.8147 41.7857 60.9921 43.1398 59.4838V113.091V113.123ZM43.1398 56.0588C41.3133 56.3101 38.3531 57.3156 33.8184 60.3322C32.6847 61.0864 30.6692 63.1289 29.3151 64.9514C30.1339 61.4635 31.1416 58.1641 32.3068 55.0218C33.409 55.3674 39.0774 54.2676 41.3448 53.2935C41.9746 53.0107 42.5729 52.7279 43.1398 52.4451V56.0273V56.0588ZM43.1398 47.0404C41.9431 47.4174 40.589 47.9202 39.0459 48.6115C37.5973 49.24 34.6371 51.4396 33.0626 53.105C34.3222 50.0255 35.7708 47.166 37.4084 44.4322C38.2271 44.7465 40.8094 44.8093 43.1398 44.6522V47.0718V47.0404ZM43.1398 39.9702C41.6912 40.5986 39.9277 41.5413 38.668 42.4212C40.0221 40.3473 41.5337 38.399 43.1398 36.5451V39.9702ZM176.096 26.0184C178.174 27.4638 180.127 29.0036 181.922 30.5747C177.576 29.4749 173.23 28.4694 168.821 27.5895C171.215 27.5581 175.938 26.6154 176.064 26.0498M54.8545 26.0184C55.012 26.6154 59.7357 27.5267 62.0975 27.5581C57.7202 28.438 53.343 29.4435 48.9972 30.5433C50.8237 28.9407 52.7446 27.4324 54.823 25.987M65.908 153.187C67.5455 153.501 69.1831 153.784 70.8521 154.067C71.7968 155.324 72.8675 156.549 73.7808 157.335C71.0725 156.047 68.4588 154.664 65.9395 153.187M75.4183 158.089C75.7017 157.869 75.6073 156.518 75.3553 154.821C76.9299 155.072 78.536 155.292 80.1105 155.481C80.4254 156.015 80.7403 156.581 81.1182 157.178C81.874 158.403 84.0154 160.666 85.8734 162.174C82.2519 160.98 78.7564 159.629 75.3868 158.12M89.5264 163.274C89.306 163.211 89.0855 163.148 88.8651 163.054C88.8651 161.891 87.8574 158.686 86.8182 156.235C88.0463 156.361 89.306 156.487 90.5341 156.612C91.0695 157.743 91.7623 159 92.6441 160.414C93.3054 161.483 94.9744 163.305 96.6119 164.719C92.5811 164.059 89.7783 163.305 89.5579 163.242M133.709 157.335C132.638 159.095 131.158 163.085 130.717 165.254C130.434 165.285 130.15 165.316 129.835 165.348C129.646 165.348 129.457 165.379 129.268 165.411C113.869 168.427 101.682 165.411 101.682 165.411C101.493 165.411 101.273 165.379 101.115 165.348C100.832 165.316 100.517 165.285 100.233 165.254C99.7926 163.054 98.3125 159.095 97.2418 157.335C97.2103 157.272 97.1473 157.209 97.1158 157.146C103.225 157.555 109.334 157.775 115.475 157.775C121.616 157.775 127.725 157.555 133.835 157.146C133.803 157.209 133.74 157.272 133.709 157.335ZM142.085 163.054C141.865 163.117 141.644 163.18 141.424 163.274C141.204 163.337 138.369 164.091 134.37 164.751C136.008 163.305 137.677 161.483 138.338 160.446C139.22 159.032 139.912 157.775 140.448 156.644C141.676 156.518 142.936 156.392 144.164 156.267C143.125 158.718 142.085 161.954 142.117 163.085M155.501 158.058C152.131 159.566 148.636 160.917 145.014 162.111C146.872 160.634 149.013 158.34 149.769 157.115C150.147 156.518 150.462 155.952 150.777 155.418C152.351 155.198 153.958 154.978 155.532 154.758C155.249 156.455 155.186 157.838 155.469 158.026M157.201 157.304C158.114 156.518 159.185 155.292 160.13 154.035C161.767 153.753 163.436 153.47 165.074 153.156C162.555 154.633 159.941 156.015 157.233 157.304M183.496 144.577C138.968 156.424 91.9827 156.424 47.4541 144.577V35.4138C91.9827 23.5674 138.968 23.5674 183.496 35.4138V144.577ZM187.811 36.5137C189.417 38.399 190.928 40.3473 192.282 42.3897C191.023 41.5099 189.259 40.5672 187.811 39.9388V36.5137ZM187.811 44.6208C190.109 44.7779 192.692 44.715 193.511 44.4008C195.148 47.1346 196.628 50.0255 197.888 53.0736C196.345 51.4081 193.353 49.2085 191.905 48.5801C190.361 47.8888 189.007 47.386 187.811 47.0089V44.5894V44.6208ZM187.811 52.4765C188.377 52.7593 188.976 53.0421 189.606 53.3249C191.873 54.2991 197.541 55.3988 198.644 55.0532C199.84 58.1955 200.817 61.4949 201.667 64.9829C200.281 63.1917 198.266 61.1178 197.164 60.3637C192.629 57.3471 189.669 56.3415 187.842 56.0902V52.5079L187.811 52.4765ZM187.811 133.893V132.228C188.063 132.699 188.283 133.014 188.472 133.108C188.252 133.391 188.031 133.642 187.811 133.893ZM194.833 101.214C196.093 103.727 200.407 108.975 201.194 108.786C199.998 112.746 198.486 116.579 196.66 120.256C197.132 118.025 196.88 113.406 196.345 111.646C193.259 101.056 189.732 100.585 189.732 100.585C189.732 100.585 188.661 105.299 190.96 112.997C191.779 115.668 195.117 121.607 195.904 121.544C195.935 121.544 195.967 121.544 195.998 121.544C194.14 125.095 191.999 128.457 189.574 131.662C190.33 129.4 190.834 125.252 190.645 123.492C190.015 117.805 188.818 114.757 187.779 113.186V59.5781C189.133 61.055 191.117 62.8775 193.951 64.7629C195.872 66.0198 200.596 67.8738 202.328 68.0623C202.8 70.2933 203.178 72.6186 203.525 75.0068C203.682 76.0752 203.808 77.1435 203.903 78.2119C202.832 76.1694 201.163 73.7813 200.187 72.8072C192.219 65.2028 188.913 66.5226 188.913 66.5226C188.913 66.5226 190.33 71.1418 196.187 76.6408C197.951 78.3062 202.517 81.0714 204.186 81.5427C204.438 85.3135 204.407 89.0214 204.155 92.6351C203.525 90.3098 202.108 87.1046 201.194 85.8791C194.644 76.9864 191.18 77.7406 191.18 77.7406C191.18 77.7406 191.779 82.5483 196.597 88.99C198.14 91.0639 202.675 94.9918 203.934 95.3374C203.493 99.3596 202.738 103.287 201.698 107.09C201.698 104.701 200.691 100.554 199.903 98.9825C195.022 89.0843 191.464 89.2414 191.464 89.2414C191.464 89.2414 191.212 94.0805 194.833 101.245" fill="#7D792C"/>
<path d="M92.8637 95.3061C92.2968 95.3061 91.793 95.2118 91.3206 94.9919C90.8482 94.7719 90.4388 94.5205 90.0924 94.1434C89.746 93.7978 89.4626 93.3893 89.2737 92.9179C89.0847 92.4466 88.9902 91.9438 88.9902 91.4096C88.9902 90.8755 89.0847 90.3412 89.3051 89.8699C89.5256 89.3986 89.7775 88.9901 90.1554 88.6444C90.5018 88.2988 90.9112 88.0159 91.3836 87.8274C91.8559 87.6389 92.3598 87.5132 92.8952 87.5132C93.2416 87.5132 93.588 87.5446 93.9344 87.6389C94.2808 87.7331 94.5642 87.8588 94.8476 88.016C95.131 88.1731 95.383 88.393 95.6349 88.613C95.8868 88.8329 96.0758 89.1157 96.2332 89.3986L95.4774 89.8699C95.2255 89.3986 94.8476 89.0215 94.4067 88.7387C93.9659 88.4559 93.4305 88.2988 92.8637 88.2988C92.4228 88.2988 92.0449 88.393 91.667 88.5501C91.2891 88.7073 90.9742 88.9272 90.6908 89.21C90.4388 89.4928 90.2184 89.8071 90.0609 90.1841C89.9035 90.5612 89.8405 90.9383 89.8405 91.3782C89.8405 91.8181 89.9035 92.1952 90.0609 92.5723C90.2184 92.9494 90.4388 93.2636 90.6908 93.5464C90.9742 93.8292 91.2891 94.0492 91.6355 94.2063C92.0134 94.3634 92.3913 94.4577 92.8322 94.4577C93.462 94.4577 93.9973 94.3006 94.4697 93.9863C94.9421 93.6721 95.2885 93.295 95.5089 92.7922L96.2647 93.2008C96.1073 93.515 95.8868 93.7978 95.6664 94.0492C95.4459 94.3005 95.1625 94.5205 94.8791 94.709C94.5957 94.8976 94.2493 95.0233 93.9029 95.149C93.5565 95.2432 93.2101 95.3061 92.8007 95.3061" fill="#7F792C"/>
<path d="M92.8637 95.3061C92.2968 95.3061 91.793 95.2118 91.3206 94.9919C90.8482 94.7719 90.4388 94.5205 90.0924 94.1434C89.746 93.7978 89.4626 93.3893 89.2737 92.9179C89.0847 92.4466 88.9902 91.9438 88.9902 91.4096C88.9902 90.8755 89.0847 90.3412 89.3051 89.8699C89.5256 89.3986 89.7775 88.9901 90.1554 88.6444C90.5018 88.2988 90.9112 88.0159 91.3836 87.8274C91.8559 87.6389 92.3598 87.5132 92.8952 87.5132C93.2416 87.5132 93.588 87.5446 93.9344 87.6389C94.2808 87.7331 94.5642 87.8588 94.8476 88.016C95.131 88.1731 95.383 88.393 95.6349 88.613C95.8868 88.8329 96.0758 89.1157 96.2332 89.3986L95.4774 89.8699C95.2255 89.3986 94.8476 89.0215 94.4067 88.7387C93.9659 88.4559 93.4305 88.2988 92.8637 88.2988C92.4228 88.2988 92.0449 88.393 91.667 88.5501C91.2891 88.7073 90.9742 88.9272 90.6908 89.21C90.4388 89.4928 90.2184 89.8071 90.0609 90.1841C89.9035 90.5612 89.8405 90.9383 89.8405 91.3782C89.8405 91.8181 89.9035 92.1952 90.0609 92.5723C90.2184 92.9494 90.4388 93.2636 90.6908 93.5464C90.9742 93.8292 91.2891 94.0492 91.6355 94.2063C92.0134 94.3634 92.3913 94.4577 92.8322 94.4577C93.462 94.4577 93.9973 94.3006 94.4697 93.9863C94.9421 93.6721 95.2885 93.295 95.5089 92.7922L96.2647 93.2008C96.1073 93.515 95.8868 93.7978 95.6664 94.0492C95.4459 94.3005 95.1625 94.5205 94.8791 94.709C94.5957 94.8976 94.2493 95.0233 93.9029 95.149C93.5565 95.2432 93.2101 95.3061 92.8007 95.3061H92.8637Z" stroke="#7F792C" stroke-width="0.31423" stroke-miterlimit="10"/>
<path d="M97.6494 87.6072H102.72V88.4242H98.5312V90.9694H102.72V91.7864H98.5312V94.3631H102.72V95.1801H97.6494V87.6072Z" fill="#7F792C"/>
<path d="M97.6494 87.6072H102.72V88.4242H98.5312V90.9694H102.72V91.7864H98.5312V94.3631H102.72V95.1801H97.6494V87.6072Z" stroke="#7F792C" stroke-width="0.31423" stroke-miterlimit="10"/>
<path d="M104.296 87.6072H107.319C107.697 87.6072 108.043 87.67 108.39 87.7957C108.705 87.9214 108.988 88.1099 109.209 88.2985C109.429 88.5184 109.618 88.7698 109.744 89.0841C109.87 89.3983 109.933 89.7125 109.933 90.0582C109.933 90.3096 109.901 90.5295 109.838 90.7809C109.775 91.0009 109.681 91.2208 109.523 91.4408C109.397 91.6293 109.209 91.8179 109.02 91.975C108.831 92.1321 108.61 92.2578 108.358 92.3206L110.027 95.2115H109.051L107.571 92.5406H105.178V95.2115H104.327V87.6386L104.296 87.6072ZM105.178 88.3928V91.7236H107.256C107.54 91.7236 107.791 91.6607 108.043 91.5665C108.264 91.4722 108.453 91.3465 108.61 91.1894C108.768 91.0323 108.894 90.8437 108.957 90.6552C109.051 90.4667 109.083 90.2467 109.083 90.0268C109.083 89.7754 109.051 89.5554 108.957 89.3669C108.862 89.1783 108.736 88.9898 108.61 88.8641C108.453 88.707 108.264 88.6127 108.043 88.5184C107.823 88.4242 107.571 88.3928 107.288 88.3928H105.209H105.178Z" fill="#7F792C"/>
<path d="M104.296 87.6072H107.319C107.697 87.6072 108.043 87.67 108.39 87.7957C108.705 87.9214 108.988 88.1099 109.209 88.2985C109.429 88.5184 109.618 88.7698 109.744 89.0841C109.87 89.3983 109.933 89.7125 109.933 90.0582C109.933 90.3096 109.901 90.5295 109.838 90.7809C109.775 91.0009 109.681 91.2208 109.523 91.4408C109.397 91.6293 109.209 91.8178 109.02 91.975C108.831 92.1321 108.61 92.2578 108.358 92.3206L110.027 95.2115H109.051L107.571 92.5406H105.178V95.2115H104.327V87.6386L104.296 87.6072ZM105.178 88.3928V91.7236H107.256C107.54 91.7236 107.791 91.6607 108.043 91.5665C108.264 91.4722 108.453 91.3465 108.61 91.1894C108.768 91.0323 108.894 90.8437 108.957 90.6552C109.051 90.4667 109.083 90.2467 109.083 90.0268C109.083 89.7754 109.051 89.5554 108.957 89.3669C108.862 89.1783 108.736 88.9898 108.61 88.8641C108.453 88.707 108.264 88.6127 108.043 88.5184C107.823 88.4242 107.571 88.3928 107.288 88.3928H105.209H105.178Z" stroke="#7F792C" stroke-width="0.31423" stroke-miterlimit="10"/>
<path d="M113.112 88.3928H110.781V87.6072H116.292V88.3928H113.962V95.1801H113.112V88.3928Z" fill="#7F792C"/>
<path d="M113.112 88.3928H110.781V87.6072H116.292V88.3928H113.962V95.1801H113.112V88.3928Z" stroke="#7F792C" stroke-width="0.31423" stroke-miterlimit="10"/>
<path d="M118.623 87.6072H117.772V95.1801H118.623V87.6072Z" fill="#7F792C"/>
<path d="M118.623 87.6072H117.772V95.1801H118.623V87.6072Z" stroke="#7F792C" stroke-width="0.31423" stroke-miterlimit="10"/>
<path d="M120.513 87.6072H125.268V88.4242H121.394V91.0637H125.268V91.9121H121.394V95.1801H120.513V87.6072Z" fill="#7F792C"/>
<path d="M120.513 87.6072H125.268V88.4242H121.394V91.0637H125.268V91.9121H121.394V95.1801H120.513V87.6072Z" stroke="#7F792C" stroke-width="0.31423" stroke-miterlimit="10"/>
<path d="M127.661 87.6072H126.811V95.1801H127.661V87.6072Z" fill="#7F792C"/>
<path d="M127.661 87.6072H126.811V95.1801H127.661V87.6072Z" stroke="#7F792C" stroke-width="0.31423" stroke-miterlimit="10"/>
<path d="M129.551 87.6072H134.589V88.4242H130.401V90.9694H134.589V91.7864H130.401V94.3631H134.589V95.1801H129.551V87.6072Z" fill="#7F792C"/>
<path d="M129.551 87.6072H134.589V88.4242H130.401V90.9694H134.589V91.7864H130.401V94.3631H134.589V95.1801H129.551V87.6072Z" stroke="#7F792C" stroke-width="0.31423" stroke-miterlimit="10"/>
<path d="M136.163 87.6072H138.399C138.998 87.6072 139.533 87.7015 140.005 87.89C140.509 88.0785 140.919 88.3613 141.265 88.707C141.611 89.0527 141.863 89.4611 142.052 89.9011C142.241 90.3724 142.336 90.8752 142.336 91.4094C142.336 91.9436 142.241 92.4463 142.052 92.9177C141.863 93.389 141.58 93.7661 141.233 94.1117C140.887 94.4574 140.478 94.7088 139.974 94.8973C139.501 95.0858 138.966 95.1801 138.399 95.1801H136.132V87.6072H136.163ZM137.045 88.3928V94.3631H138.336C138.809 94.3631 139.218 94.3003 139.596 94.1432C139.974 93.986 140.32 93.7661 140.572 93.5147C140.856 93.2319 141.076 92.9491 141.202 92.572C141.359 92.1949 141.454 91.8179 141.454 91.3779C141.454 90.938 141.391 90.5609 141.233 90.1839C141.076 89.8068 140.887 89.4926 140.604 89.2412C140.32 88.9584 140.005 88.7698 139.596 88.6127C139.218 88.4556 138.777 88.3928 138.273 88.3928H137.014H137.045Z" fill="#7F792C"/>
<path d="M136.163 87.6072H138.399C138.998 87.6072 139.533 87.7015 140.005 87.89C140.509 88.0785 140.919 88.3613 141.265 88.707C141.611 89.0527 141.863 89.4611 142.052 89.9011C142.241 90.3724 142.336 90.8752 142.336 91.4094C142.336 91.9436 142.241 92.4463 142.052 92.9177C141.863 93.389 141.58 93.7661 141.233 94.1117C140.887 94.4574 140.478 94.7088 139.974 94.8973C139.501 95.0858 138.966 95.1801 138.399 95.1801H136.132V87.6072H136.163ZM137.045 88.3928V94.3631H138.336C138.809 94.3631 139.218 94.3003 139.596 94.1432C139.974 93.986 140.32 93.7661 140.572 93.5147C140.856 93.2319 141.076 92.9491 141.202 92.572C141.359 92.1949 141.454 91.8179 141.454 91.3779C141.454 90.938 141.391 90.5609 141.233 90.1839C141.076 89.8068 140.887 89.4926 140.604 89.2412C140.32 88.9584 140.005 88.7698 139.596 88.6127C139.218 88.4556 138.777 88.3928 138.273 88.3928H137.014H137.045Z" stroke="#7F792C" stroke-width="0.31423" stroke-miterlimit="10"/>
<path d="M81.1813 107.749C80.6144 107.749 80.1106 107.655 79.6382 107.435C79.1658 107.215 78.7565 106.964 78.4101 106.587C78.0637 106.241 77.7802 105.833 77.5913 105.361C77.4023 104.89 77.2764 104.387 77.2764 103.853C77.2764 103.319 77.3708 102.785 77.5913 102.313C77.8117 101.842 78.0637 101.433 78.4101 101.088C78.7565 100.742 79.1658 100.459 79.6382 100.271C80.1106 100.082 80.6144 99.9565 81.1813 99.9565C81.5277 99.9565 81.8741 100.019 82.2205 100.082C82.5669 100.177 82.8503 100.302 83.1337 100.459C83.4172 100.616 83.6691 100.836 83.921 101.056C84.173 101.276 84.3619 101.559 84.5194 101.842L83.7636 102.313C83.5116 101.842 83.1337 101.465 82.6929 101.182C82.252 100.899 81.7166 100.742 81.1498 100.742C80.7089 100.742 80.331 100.836 79.9531 100.994C79.5752 101.151 79.2603 101.371 79.0084 101.653C78.7565 101.936 78.536 102.25 78.3786 102.628C78.2211 103.005 78.1581 103.382 78.1581 103.822C78.1581 104.261 78.2526 104.639 78.3786 105.016C78.536 105.393 78.725 105.707 79.0084 105.99C79.2918 106.273 79.6067 106.493 79.9531 106.65C80.331 106.807 80.7089 106.901 81.1498 106.901C81.7796 106.901 82.315 106.744 82.7873 106.43C83.2597 106.115 83.6061 105.738 83.8266 105.236L84.5823 105.644C84.4249 105.958 84.2045 106.241 83.984 106.493C83.7636 106.744 83.4802 106.964 83.1967 107.152C82.9133 107.341 82.5669 107.467 82.2205 107.592C81.8741 107.687 81.4962 107.749 81.1183 107.749" fill="#7F792C"/>
<path d="M81.1813 107.749C80.6144 107.749 80.1106 107.655 79.6382 107.435C79.1658 107.215 78.7565 106.964 78.4101 106.587C78.0637 106.241 77.7802 105.833 77.5913 105.361C77.4023 104.89 77.2764 104.387 77.2764 103.853C77.2764 103.319 77.3708 102.785 77.5913 102.313C77.8117 101.842 78.0637 101.433 78.4101 101.088C78.7565 100.742 79.1658 100.459 79.6382 100.271C80.1106 100.082 80.6144 99.9565 81.1813 99.9565C81.5277 99.9565 81.8741 100.019 82.2205 100.082C82.5669 100.177 82.8503 100.302 83.1337 100.459C83.4172 100.616 83.6691 100.836 83.921 101.056C84.173 101.276 84.3619 101.559 84.5194 101.842L83.7636 102.313C83.5116 101.842 83.1337 101.465 82.6929 101.182C82.252 100.899 81.7166 100.742 81.1498 100.742C80.7089 100.742 80.331 100.836 79.9531 100.994C79.5752 101.151 79.2603 101.371 79.0084 101.653C78.7565 101.936 78.536 102.25 78.3786 102.628C78.2211 103.005 78.1581 103.382 78.1581 103.822C78.1581 104.261 78.2526 104.639 78.3786 105.016C78.536 105.393 78.725 105.707 79.0084 105.99C79.2918 106.273 79.6067 106.493 79.9531 106.65C80.331 106.807 80.7089 106.901 81.1498 106.901C81.7796 106.901 82.315 106.744 82.7873 106.43C83.2597 106.115 83.6061 105.738 83.8266 105.236L84.5823 105.644C84.4249 105.958 84.2045 106.241 83.984 106.493C83.7636 106.744 83.4802 106.964 83.1967 107.152C82.9133 107.341 82.5669 107.467 82.2205 107.592C81.8741 107.687 81.4962 107.749 81.1183 107.749H81.1813Z" stroke="#7F792C" stroke-width="0.31423" stroke-miterlimit="10"/>
<path d="M85.998 100.083H89.0212C89.3991 100.083 89.7455 100.145 90.0919 100.271C90.4068 100.397 90.6902 100.585 90.9107 100.774C91.1311 100.994 91.3201 101.245 91.446 101.559C91.572 101.874 91.635 102.188 91.635 102.534C91.635 102.785 91.6035 103.005 91.5405 103.256C91.4775 103.476 91.3831 103.696 91.2256 103.916C91.0996 104.105 90.9107 104.293 90.7217 104.45C90.5328 104.607 90.3123 104.733 90.0604 104.796L91.7295 107.687H90.7532L89.2731 105.016H86.8798V107.687H86.0295V100.114L85.998 100.083ZM86.8483 100.868V104.199H88.9267C89.2102 104.199 89.4621 104.168 89.714 104.042C89.9345 103.948 90.1234 103.822 90.2809 103.665C90.4383 103.508 90.5643 103.319 90.6273 103.131C90.7217 102.942 90.7532 102.722 90.7532 102.502C90.7532 102.251 90.7217 102.031 90.6273 101.842C90.5328 101.654 90.4068 101.465 90.2809 101.339C90.1234 101.182 89.9345 101.088 89.714 100.994C89.4936 100.9 89.2416 100.868 88.9582 100.868H86.8798H86.8483Z" fill="#7F792C"/>
<path d="M85.998 100.083H89.0212C89.3991 100.083 89.7455 100.145 90.0919 100.271C90.4068 100.397 90.6902 100.585 90.9107 100.774C91.1311 100.994 91.3201 101.245 91.446 101.559C91.572 101.874 91.635 102.188 91.635 102.534C91.635 102.785 91.6035 103.005 91.5405 103.256C91.4775 103.476 91.3831 103.696 91.2256 103.916C91.0996 104.105 90.9107 104.293 90.7217 104.45C90.5328 104.607 90.3123 104.733 90.0604 104.796L91.7295 107.687H90.7532L89.2731 105.016H86.8798V107.687H86.0295V100.114L85.998 100.083ZM86.8483 100.868V104.199H88.9267C89.2102 104.199 89.4621 104.168 89.714 104.042C89.9345 103.948 90.1234 103.822 90.2809 103.665C90.4383 103.508 90.5643 103.319 90.6273 103.131C90.7217 102.942 90.7532 102.722 90.7532 102.502C90.7532 102.251 90.7217 102.031 90.6273 101.842C90.5328 101.654 90.4068 101.465 90.2809 101.339C90.1234 101.182 89.9345 101.088 89.714 100.994C89.4936 100.9 89.2416 100.868 88.9582 100.868H86.8798H86.8483Z" stroke="#7F792C" stroke-width="0.31423" stroke-miterlimit="10"/>
<path d="M95.0986 104.545L92.4219 100.083H93.3981L95.5395 103.696L97.7439 100.083H98.6886L95.9804 104.513V107.655H95.0986V104.545Z" fill="#7F792C"/>
<path d="M95.0986 104.545L92.4219 100.083H93.3981L95.5395 103.696L97.7439 100.083H98.6886L95.9804 104.513V107.655H95.0986V104.545Z" stroke="#7F792C" stroke-width="0.31423" stroke-miterlimit="10"/>
<path d="M99.8555 100.083H102.721C103.131 100.083 103.508 100.145 103.855 100.302C104.201 100.428 104.485 100.617 104.737 100.868C104.989 101.119 105.177 101.402 105.303 101.717C105.429 102.031 105.492 102.376 105.492 102.753C105.492 103.131 105.429 103.476 105.303 103.79C105.177 104.105 104.989 104.387 104.737 104.639C104.485 104.89 104.201 105.047 103.855 105.204C103.508 105.33 103.131 105.393 102.721 105.393H100.737V107.655H99.8555V100.083ZM100.737 100.868V104.576H102.658C102.973 104.576 103.257 104.513 103.477 104.419C103.729 104.325 103.918 104.199 104.107 104.01C104.264 103.853 104.39 103.665 104.485 103.413C104.579 103.193 104.611 102.942 104.611 102.691C104.611 102.439 104.579 102.188 104.485 101.936C104.39 101.717 104.264 101.497 104.107 101.339C103.918 101.182 103.729 101.057 103.477 100.962C103.225 100.868 102.942 100.837 102.658 100.837H100.737V100.868Z" fill="#7F792C"/>
<path d="M99.8555 100.083H102.721C103.131 100.083 103.508 100.145 103.855 100.302C104.201 100.428 104.485 100.617 104.737 100.868C104.989 101.119 105.177 101.402 105.303 101.717C105.429 102.031 105.492 102.376 105.492 102.753C105.492 103.131 105.429 103.476 105.303 103.79C105.177 104.105 104.989 104.387 104.737 104.639C104.485 104.89 104.201 105.047 103.855 105.204C103.508 105.33 103.131 105.393 102.721 105.393H100.737V107.655H99.8555V100.083ZM100.737 100.868V104.576H102.658C102.973 104.576 103.257 104.513 103.477 104.419C103.729 104.325 103.918 104.199 104.107 104.01C104.264 103.853 104.39 103.665 104.485 103.413C104.579 103.193 104.611 102.942 104.611 102.691C104.611 102.439 104.579 102.188 104.485 101.936C104.39 101.717 104.264 101.497 104.107 101.339C103.918 101.182 103.729 101.057 103.477 100.962C103.225 100.868 102.942 100.837 102.658 100.837H100.737V100.868Z" stroke="#7F792C" stroke-width="0.31423" stroke-miterlimit="10"/>
<path d="M108.64 100.868H106.341V100.083H111.82V100.868H109.49V107.655H108.64V100.868Z" fill="#7F792C"/>
<path d="M108.64 100.868H106.341V100.083H111.82V100.868H109.49V107.655H108.64V100.868Z" stroke="#7F792C" stroke-width="0.31423" stroke-miterlimit="10"/>
<path d="M116.134 107.75C115.567 107.75 115.063 107.655 114.591 107.435C114.119 107.215 113.709 106.964 113.363 106.587C113.017 106.241 112.733 105.833 112.544 105.361C112.355 104.89 112.261 104.387 112.261 103.853C112.261 103.319 112.355 102.816 112.576 102.345C112.765 101.873 113.048 101.465 113.426 101.119C113.772 100.774 114.182 100.491 114.654 100.302C115.126 100.082 115.63 99.988 116.166 99.988C116.701 99.988 117.205 100.082 117.677 100.302C118.15 100.522 118.559 100.774 118.905 101.119C119.252 101.465 119.535 101.873 119.724 102.345C119.913 102.816 120.039 103.319 120.039 103.853C120.039 104.387 119.945 104.89 119.724 105.361C119.535 105.833 119.252 106.241 118.874 106.587C118.527 106.933 118.118 107.215 117.646 107.435C117.173 107.655 116.67 107.75 116.134 107.75ZM116.134 106.901C116.544 106.901 116.953 106.807 117.331 106.65C117.709 106.493 118.024 106.273 118.307 105.99C118.559 105.707 118.779 105.393 118.937 105.016C119.094 104.639 119.189 104.262 119.189 103.822C119.189 103.382 119.094 103.005 118.937 102.628C118.779 102.251 118.559 101.936 118.307 101.653C118.024 101.371 117.709 101.151 117.331 100.994C116.953 100.836 116.575 100.742 116.134 100.742C115.693 100.742 115.315 100.836 114.938 100.994C114.56 101.151 114.245 101.371 113.961 101.653C113.678 101.936 113.489 102.251 113.331 102.628C113.174 103.005 113.111 103.382 113.111 103.822C113.111 104.262 113.205 104.639 113.331 105.016C113.489 105.393 113.709 105.707 113.961 105.99C114.245 106.273 114.56 106.493 114.906 106.65C115.284 106.807 115.662 106.901 116.103 106.901" fill="#7F792C"/>
<path d="M116.134 107.75C115.567 107.75 115.063 107.655 114.591 107.435C114.119 107.215 113.709 106.964 113.363 106.587C113.017 106.241 112.733 105.833 112.544 105.361C112.355 104.89 112.261 104.387 112.261 103.853C112.261 103.319 112.355 102.816 112.576 102.345C112.765 101.873 113.048 101.465 113.426 101.119C113.772 100.774 114.182 100.491 114.654 100.302C115.126 100.082 115.63 99.988 116.166 99.988C116.701 99.988 117.205 100.082 117.677 100.302C118.15 100.522 118.559 100.774 118.905 101.119C119.252 101.465 119.535 101.873 119.724 102.345C119.913 102.816 120.039 103.319 120.039 103.853C120.039 104.387 119.945 104.89 119.724 105.361C119.535 105.833 119.252 106.241 118.874 106.587C118.527 106.933 118.118 107.215 117.646 107.435C117.173 107.655 116.67 107.75 116.134 107.75ZM116.134 106.901C116.544 106.901 116.953 106.807 117.331 106.65C117.709 106.493 118.024 106.273 118.307 105.99C118.559 105.707 118.779 105.393 118.937 105.016C119.094 104.639 119.189 104.262 119.189 103.822C119.189 103.382 119.094 103.005 118.937 102.628C118.779 102.251 118.559 101.936 118.307 101.653C118.024 101.371 117.709 101.151 117.331 100.994C116.953 100.836 116.575 100.742 116.134 100.742C115.693 100.742 115.315 100.836 114.937 100.994C114.56 101.151 114.245 101.371 113.961 101.653C113.678 101.936 113.489 102.251 113.331 102.628C113.174 103.005 113.111 103.382 113.111 103.822C113.111 104.262 113.205 104.639 113.331 105.016C113.489 105.393 113.709 105.707 113.961 105.99C114.245 106.273 114.56 106.493 114.906 106.65C115.284 106.807 115.662 106.901 116.103 106.901H116.134Z" stroke="#7F792C" stroke-width="0.31423" stroke-miterlimit="10"/>
<path d="M123.568 100.083H124.45L127.473 107.655H126.56L125.835 105.739H122.214L121.489 107.655H120.576L123.599 100.083H123.568ZM122.529 104.922H125.489L123.977 101.088L122.497 104.922H122.529Z" fill="#7F792C"/>
<path d="M123.568 100.083H124.45L127.473 107.655H126.56L125.835 105.739H122.214L121.489 107.655H120.576L123.599 100.083H123.568ZM122.529 104.922H125.489L123.977 101.088L122.497 104.922H122.529Z" stroke="#7F792C" stroke-width="0.31423" stroke-miterlimit="10"/>
<path d="M131.378 107.75C130.59 107.75 129.961 107.624 129.425 107.31C128.89 107.027 128.449 106.65 128.103 106.147L128.858 105.55C129.425 106.461 130.275 106.901 131.378 106.901C131.976 106.901 132.417 106.775 132.732 106.493C133.047 106.241 133.204 105.896 133.204 105.456C133.204 105.204 133.141 105.016 133.015 104.859C132.889 104.702 132.732 104.576 132.511 104.45C132.291 104.356 132.07 104.262 131.819 104.199C131.535 104.136 131.283 104.073 131 104.01C130.716 103.947 130.401 103.885 130.118 103.79C129.835 103.727 129.583 103.602 129.331 103.445C129.11 103.287 128.921 103.13 128.764 102.879C128.638 102.659 128.543 102.345 128.543 101.968C128.543 101.685 128.606 101.402 128.732 101.151C128.858 100.899 129.016 100.679 129.268 100.491C129.488 100.302 129.772 100.145 130.086 100.051C130.401 99.9252 130.748 99.8938 131.126 99.8938C131.787 99.8938 132.354 100.019 132.795 100.271C133.236 100.522 133.645 100.836 133.991 101.245L133.299 101.779C133.047 101.434 132.763 101.151 132.448 100.962C132.102 100.774 131.693 100.679 131.157 100.679C130.559 100.679 130.149 100.805 129.898 101.056C129.614 101.308 129.488 101.622 129.488 101.999C129.488 102.219 129.551 102.408 129.646 102.565C129.74 102.722 129.898 102.816 130.086 102.91C130.275 103.005 130.464 103.068 130.716 103.13C130.968 103.193 131.22 103.256 131.504 103.319C131.787 103.382 132.102 103.445 132.417 103.539C132.732 103.633 133.015 103.759 133.267 103.916C133.519 104.073 133.739 104.262 133.897 104.513C134.054 104.764 134.149 105.079 134.149 105.487C134.149 105.77 134.086 106.084 133.96 106.336C133.834 106.618 133.676 106.838 133.425 107.058C133.204 107.278 132.921 107.435 132.574 107.561C132.259 107.687 131.881 107.75 131.472 107.75" fill="#7F792C"/>
<path d="M131.378 107.75C130.59 107.75 129.961 107.624 129.425 107.31C128.89 107.027 128.449 106.65 128.103 106.147L128.858 105.55C129.425 106.461 130.275 106.901 131.378 106.901C131.976 106.901 132.417 106.775 132.732 106.493C133.047 106.241 133.204 105.896 133.204 105.456C133.204 105.204 133.141 105.016 133.015 104.859C132.889 104.702 132.732 104.576 132.511 104.45C132.291 104.356 132.07 104.262 131.819 104.199C131.535 104.136 131.283 104.073 131 104.01C130.716 103.947 130.401 103.885 130.118 103.79C129.835 103.727 129.583 103.602 129.331 103.445C129.11 103.287 128.921 103.13 128.764 102.879C128.638 102.659 128.543 102.345 128.543 101.968C128.543 101.685 128.606 101.402 128.732 101.151C128.858 100.899 129.016 100.679 129.268 100.491C129.488 100.302 129.772 100.145 130.086 100.051C130.401 99.9252 130.748 99.8938 131.126 99.8938C131.787 99.8938 132.354 100.019 132.795 100.271C133.236 100.522 133.645 100.836 133.991 101.245L133.299 101.779C133.047 101.434 132.763 101.151 132.448 100.962C132.102 100.774 131.693 100.679 131.157 100.679C130.559 100.679 130.149 100.805 129.898 101.056C129.614 101.308 129.488 101.622 129.488 101.999C129.488 102.219 129.551 102.408 129.646 102.565C129.74 102.722 129.898 102.816 130.086 102.91C130.275 103.005 130.464 103.068 130.716 103.13C130.968 103.193 131.22 103.256 131.504 103.319C131.787 103.382 132.102 103.445 132.417 103.539C132.732 103.633 133.015 103.759 133.267 103.916C133.519 104.073 133.739 104.262 133.897 104.513C134.054 104.764 134.149 105.079 134.149 105.487C134.149 105.77 134.086 106.084 133.96 106.336C133.834 106.618 133.676 106.838 133.425 107.058C133.204 107.278 132.921 107.435 132.574 107.561C132.259 107.687 131.881 107.75 131.472 107.75H131.378Z" stroke="#7F792C" stroke-width="0.31423" stroke-miterlimit="10"/>
<path d="M138.244 107.75C137.457 107.75 136.827 107.624 136.291 107.31C135.756 107.027 135.315 106.65 134.969 106.147L135.725 105.55C136.291 106.461 137.142 106.901 138.244 106.901C138.842 106.901 139.283 106.775 139.598 106.493C139.913 106.241 140.07 105.896 140.07 105.456C140.07 105.204 140.007 105.016 139.881 104.859C139.755 104.702 139.598 104.576 139.378 104.45C139.157 104.356 138.937 104.262 138.653 104.199C138.401 104.136 138.118 104.073 137.834 104.01C137.551 103.947 137.236 103.885 136.953 103.79C136.669 103.727 136.417 103.602 136.165 103.445C135.945 103.287 135.756 103.13 135.599 102.879C135.441 102.659 135.378 102.345 135.378 101.968C135.378 101.685 135.441 101.402 135.567 101.151C135.693 100.899 135.851 100.679 136.102 100.491C136.323 100.302 136.606 100.145 136.921 100.051C137.236 99.9252 137.583 99.8938 137.96 99.8938C138.622 99.8938 139.189 100.019 139.629 100.271C140.07 100.522 140.48 100.836 140.795 101.245L140.102 101.779C139.85 101.434 139.566 101.151 139.252 100.962C138.905 100.774 138.496 100.679 137.96 100.679C137.362 100.679 136.953 100.805 136.669 101.056C136.417 101.308 136.26 101.622 136.26 101.999C136.26 102.219 136.323 102.408 136.417 102.565C136.512 102.722 136.669 102.816 136.827 102.91C137.016 103.005 137.205 103.068 137.457 103.13C137.708 103.193 137.96 103.256 138.244 103.319C138.527 103.382 138.842 103.445 139.157 103.539C139.472 103.633 139.755 103.759 140.007 103.916C140.259 104.073 140.48 104.262 140.637 104.513C140.795 104.764 140.889 105.079 140.889 105.487C140.889 105.77 140.826 106.084 140.7 106.336C140.574 106.618 140.385 106.838 140.165 107.058C139.944 107.278 139.661 107.435 139.315 107.561C139 107.687 138.622 107.75 138.212 107.75" fill="#7F792C"/>
<path d="M138.244 107.75C137.457 107.75 136.827 107.624 136.291 107.31C135.756 107.027 135.315 106.65 134.969 106.147L135.725 105.55C136.291 106.461 137.142 106.901 138.244 106.901C138.842 106.901 139.283 106.775 139.598 106.493C139.913 106.241 140.07 105.896 140.07 105.456C140.07 105.204 140.007 105.016 139.881 104.859C139.755 104.702 139.598 104.576 139.378 104.45C139.157 104.356 138.937 104.262 138.653 104.199C138.401 104.136 138.118 104.073 137.834 104.01C137.551 103.947 137.236 103.885 136.953 103.79C136.669 103.727 136.417 103.602 136.165 103.445C135.945 103.287 135.756 103.13 135.599 102.879C135.441 102.659 135.378 102.345 135.378 101.968C135.378 101.685 135.441 101.402 135.567 101.151C135.693 100.899 135.851 100.679 136.102 100.491C136.323 100.302 136.606 100.145 136.921 100.051C137.236 99.9252 137.583 99.8938 137.96 99.8938C138.622 99.8938 139.189 100.019 139.629 100.271C140.07 100.522 140.48 100.836 140.795 101.245L140.102 101.779C139.85 101.434 139.566 101.151 139.252 100.962C138.905 100.774 138.496 100.679 137.96 100.679C137.362 100.679 136.953 100.805 136.669 101.056C136.417 101.308 136.26 101.622 136.26 101.999C136.26 102.219 136.323 102.408 136.417 102.565C136.512 102.722 136.669 102.816 136.827 102.91C137.016 103.005 137.205 103.068 137.457 103.13C137.708 103.193 137.96 103.256 138.244 103.319C138.527 103.382 138.842 103.445 139.157 103.539C139.472 103.633 139.755 103.759 140.007 103.916C140.259 104.073 140.48 104.262 140.637 104.513C140.795 104.764 140.889 105.079 140.889 105.487C140.889 105.77 140.826 106.084 140.7 106.336C140.574 106.618 140.385 106.838 140.165 107.058C139.944 107.278 139.661 107.435 139.315 107.561C139 107.687 138.622 107.75 138.212 107.75H138.244Z" stroke="#7F792C" stroke-width="0.31423" stroke-miterlimit="10"/>
<path d="M142.368 100.083H147.407V100.9H143.218V103.445H147.407V104.262H143.218V106.807H147.407V107.655H142.368V100.083Z" fill="#7F792C"/>
<path d="M142.368 100.083H147.407V100.9H143.218V103.445H147.407V104.262H143.218V106.807H147.407V107.655H142.368V100.083Z" stroke="#7F792C" stroke-width="0.31423" stroke-miterlimit="10"/>
<path d="M150.966 100.868H148.636V100.083H154.147V100.868H151.816V107.655H150.966V100.868Z" fill="#7F792C"/>
<path d="M150.966 100.868H148.636V100.083H154.147V100.868H151.816V107.655H150.966V100.868Z" stroke="#7F792C" stroke-width="0.31423" stroke-miterlimit="10"/>
<path d="M57.0278 112.526H57.9096L60.9327 120.099H60.0195L59.2952 118.182H55.6737L54.9494 120.099H54.0361L57.0593 112.526H57.0278ZM55.9886 117.396H58.9488L57.4372 113.563L55.9571 117.396H55.9886Z" fill="#7F792C"/>
<path d="M57.0278 112.526H57.9096L60.9327 120.099H60.0195L59.2952 118.182H55.6737L54.9494 120.099H54.0361L57.0593 112.526H57.0278ZM55.9886 117.396H58.9488L57.4372 113.563L55.9571 117.396H55.9886Z" stroke="#7F792C" stroke-width="0.31423" stroke-miterlimit="10"/>
<path d="M62.1602 112.526H63.1049L67.4192 118.748V112.526H68.2695V120.099H67.3562L63.0104 113.814V120.099H62.1602V112.526Z" fill="#7F792C"/>
<path d="M62.1602 112.526H63.1049L67.4192 118.748V112.526H68.2695V120.099H67.3562L63.0104 113.814V120.099H62.1602V112.526Z" stroke="#7F792C" stroke-width="0.31423" stroke-miterlimit="10"/>
<path d="M71.9854 113.311H69.6865V112.526H75.166V113.311H72.8671V120.099H71.9854V113.311Z" fill="#7F792C"/>
<path d="M71.9854 113.311H69.6865V112.526H75.166V113.311H72.8671V120.099H71.9854V113.311Z" stroke="#7F792C" stroke-width="0.31423" stroke-miterlimit="10"/>
<path d="M77.527 112.526H76.6768V120.099H77.527V112.526Z" fill="#7F792C"/>
<path d="M77.527 112.526H76.6768V120.099H77.527V112.526Z" stroke="#7F792C" stroke-width="0.31423" stroke-miterlimit="10"/>
<path d="M82.9757 117.114H79.1338V117.868H82.9757V117.114Z" fill="#7F792C"/>
<path d="M82.9757 117.114H79.1338V117.868H82.9757V117.114Z" stroke="#7F792C" stroke-width="0.31423" stroke-miterlimit="10"/>
<path d="M84.4883 112.526H89.2435V113.343H85.37V116.014H89.2435V116.831H85.37V120.099H84.4883V112.526Z" fill="#7F792C"/>
<path d="M84.4883 112.526H89.2435V113.343H85.37V116.014H89.2435V116.831H85.37V120.099H84.4883V112.526Z" stroke="#7F792C" stroke-width="0.31423" stroke-miterlimit="10"/>
<path d="M91.6364 112.526H90.7861V120.099H91.6364V112.526Z" fill="#7F792C"/>
<path d="M91.6364 112.526H90.7861V120.099H91.6364V112.526Z" stroke="#7F792C" stroke-width="0.31423" stroke-miterlimit="10"/>
<path d="M93.4922 112.526H94.4684L98.7512 118.748V112.526H99.6015V120.099H98.7197L94.3425 113.814V120.099H93.4922V112.526Z" fill="#7F792C"/>
<path d="M93.4922 112.526H94.4684L98.7512 118.748V112.526H99.6015V120.099H98.7197L94.3425 113.814V120.099H93.4922V112.526Z" stroke="#7F792C" stroke-width="0.31423" stroke-miterlimit="10"/>
<path d="M103.821 112.526H104.703L107.726 120.099H106.812L106.088 118.182H102.467L101.742 120.099H100.829L103.821 112.526ZM102.782 117.396H105.742L104.262 113.563L102.782 117.396Z" fill="#7F792C"/>
<path d="M103.821 112.526H104.703L107.726 120.099H106.812L106.088 118.182H102.467L101.742 120.099H100.829L103.821 112.526ZM102.782 117.396H105.742L104.262 113.563L102.782 117.396Z" stroke="#7F792C" stroke-width="0.31423" stroke-miterlimit="10"/>
<path d="M108.956 112.526H109.932L114.215 118.748V112.526H115.065V120.099H114.184L109.806 113.814V120.099H108.956V112.526Z" fill="#7F792C"/>
<path d="M108.956 112.526H109.932L114.215 118.748V112.526H115.065V120.099H114.184L109.806 113.814V120.099H108.956V112.526Z" stroke="#7F792C" stroke-width="0.31423" stroke-miterlimit="10"/>
<path d="M120.514 120.224C119.947 120.224 119.444 120.13 118.971 119.91C118.499 119.69 118.089 119.439 117.743 119.062C117.397 118.716 117.113 118.307 116.924 117.836C116.735 117.365 116.609 116.862 116.609 116.328C116.609 115.794 116.704 115.259 116.924 114.788C117.145 114.317 117.397 113.908 117.743 113.563C118.089 113.217 118.499 112.934 118.971 112.746C119.444 112.557 119.947 112.431 120.514 112.431C120.861 112.431 121.207 112.494 121.554 112.557C121.9 112.651 122.183 112.777 122.467 112.934C122.75 113.091 123.002 113.311 123.254 113.531C123.506 113.751 123.695 114.034 123.852 114.317L123.097 114.788C122.845 114.317 122.467 113.94 122.026 113.657C121.585 113.374 121.05 113.217 120.483 113.217C120.042 113.217 119.664 113.311 119.286 113.468C118.908 113.625 118.593 113.845 118.341 114.128C118.089 114.411 117.869 114.725 117.712 115.102C117.554 115.479 117.491 115.888 117.491 116.296C117.491 116.705 117.586 117.113 117.712 117.49C117.869 117.868 118.058 118.182 118.341 118.465C118.625 118.747 118.94 118.967 119.318 119.124C119.696 119.282 120.073 119.376 120.514 119.376C121.144 119.376 121.711 119.219 122.152 118.905C122.593 118.59 122.971 118.213 123.191 117.71L123.947 118.119C123.789 118.433 123.569 118.716 123.349 118.967C123.128 119.219 122.845 119.439 122.561 119.627C122.278 119.816 121.931 119.941 121.585 120.067C121.239 120.161 120.861 120.224 120.483 120.224" fill="#7F792C"/>
<path d="M120.514 120.224C119.947 120.224 119.444 120.13 118.971 119.91C118.499 119.69 118.089 119.439 117.743 119.062C117.397 118.716 117.113 118.307 116.924 117.836C116.735 117.365 116.609 116.862 116.609 116.328C116.609 115.794 116.704 115.259 116.924 114.788C117.145 114.317 117.397 113.908 117.743 113.563C118.089 113.217 118.499 112.934 118.971 112.746C119.444 112.557 119.947 112.431 120.514 112.431C120.861 112.431 121.207 112.494 121.554 112.557C121.9 112.651 122.183 112.777 122.467 112.934C122.75 113.091 123.002 113.311 123.254 113.531C123.506 113.751 123.695 114.034 123.852 114.317L123.097 114.788C122.845 114.317 122.467 113.94 122.026 113.657C121.585 113.374 121.05 113.217 120.483 113.217C120.042 113.217 119.664 113.311 119.286 113.468C118.908 113.625 118.593 113.845 118.341 114.128C118.089 114.411 117.869 114.725 117.712 115.102C117.554 115.479 117.491 115.888 117.491 116.296C117.491 116.705 117.586 117.113 117.712 117.49C117.869 117.868 118.058 118.182 118.341 118.465C118.625 118.747 118.94 118.967 119.318 119.124C119.696 119.282 120.073 119.376 120.514 119.376C121.144 119.376 121.711 119.219 122.152 118.905C122.593 118.59 122.971 118.213 123.191 117.71L123.947 118.119C123.789 118.433 123.569 118.716 123.349 118.967C123.128 119.219 122.845 119.439 122.561 119.627C122.278 119.816 121.931 119.941 121.585 120.067C121.239 120.161 120.861 120.224 120.483 120.224H120.514Z" stroke="#7F792C" stroke-width="0.31423" stroke-miterlimit="10"/>
<path d="M126.246 112.526H125.396V120.099H126.246V112.526Z" fill="#7F792C"/>
<path d="M126.246 112.526H125.396V120.099H126.246V112.526Z" stroke="#7F792C" stroke-width="0.31423" stroke-miterlimit="10"/>
<path d="M130.559 112.526H131.441L134.464 120.099H133.551L132.826 118.182H129.205L128.481 120.099H127.567L130.591 112.526H130.559ZM129.52 117.396H132.48L130.968 113.563L129.488 117.396H129.52Z" fill="#7F792C"/>
<path d="M130.559 112.526H131.441L134.464 120.099H133.551L132.826 118.182H129.205L128.481 120.099H127.567L130.591 112.526H130.559ZM129.52 117.396H132.48L130.968 113.563L129.488 117.396H129.52Z" stroke="#7F792C" stroke-width="0.31423" stroke-miterlimit="10"/>
<path d="M135.692 112.526H136.574V119.282H140.479V120.099H135.692V112.526Z" fill="#7F792C"/>
<path d="M135.692 112.526H136.574V119.282H140.479V120.099H135.692V112.526Z" stroke="#7F792C" stroke-width="0.31423" stroke-miterlimit="10"/>
<path d="M148.196 120.224C147.629 120.224 147.125 120.13 146.653 119.91C146.18 119.69 145.771 119.439 145.425 119.062C145.078 118.716 144.795 118.307 144.606 117.836C144.417 117.365 144.291 116.862 144.291 116.328C144.291 115.794 144.385 115.259 144.606 114.788C144.826 114.317 145.078 113.908 145.425 113.563C145.771 113.217 146.18 112.934 146.653 112.746C147.125 112.557 147.629 112.431 148.196 112.431C148.542 112.431 148.889 112.494 149.235 112.557C149.582 112.651 149.865 112.777 150.148 112.934C150.432 113.091 150.684 113.311 150.936 113.531C151.188 113.751 151.377 114.034 151.534 114.317L150.778 114.788C150.526 114.317 150.148 113.94 149.708 113.657C149.267 113.374 148.731 113.217 148.164 113.217C147.724 113.217 147.346 113.311 146.968 113.468C146.59 113.625 146.275 113.845 146.023 114.128C145.771 114.411 145.551 114.725 145.393 115.102C145.236 115.479 145.173 115.888 145.173 116.296C145.173 116.705 145.267 117.113 145.393 117.49C145.551 117.868 145.74 118.182 146.023 118.465C146.306 118.747 146.621 118.967 146.968 119.124C147.346 119.282 147.724 119.376 148.164 119.376C148.794 119.376 149.33 119.219 149.802 118.905C150.274 118.59 150.621 118.213 150.873 117.71L151.628 118.119C151.471 118.433 151.251 118.716 151.03 118.967C150.81 119.219 150.526 119.439 150.243 119.627C149.959 119.816 149.613 119.941 149.267 120.067C148.92 120.161 148.542 120.224 148.164 120.224" fill="#7F792C"/>
<path d="M148.196 120.224C147.629 120.224 147.125 120.13 146.653 119.91C146.18 119.69 145.771 119.439 145.425 119.062C145.078 118.716 144.795 118.307 144.606 117.836C144.417 117.365 144.291 116.862 144.291 116.328C144.291 115.794 144.385 115.259 144.606 114.788C144.826 114.317 145.078 113.908 145.425 113.563C145.771 113.217 146.18 112.934 146.653 112.746C147.125 112.557 147.629 112.431 148.196 112.431C148.542 112.431 148.889 112.494 149.235 112.557C149.582 112.651 149.865 112.777 150.148 112.934C150.432 113.091 150.684 113.311 150.936 113.531C151.188 113.751 151.377 114.034 151.534 114.317L150.778 114.788C150.526 114.317 150.148 113.94 149.708 113.657C149.267 113.374 148.731 113.217 148.164 113.217C147.724 113.217 147.346 113.311 146.968 113.468C146.59 113.625 146.275 113.845 146.023 114.128C145.771 114.411 145.551 114.725 145.393 115.102C145.236 115.479 145.173 115.888 145.173 116.296C145.173 116.705 145.267 117.113 145.393 117.49C145.551 117.868 145.74 118.182 146.023 118.465C146.306 118.747 146.621 118.967 146.968 119.124C147.346 119.282 147.724 119.376 148.164 119.376C148.794 119.376 149.33 119.219 149.802 118.905C150.274 118.59 150.621 118.213 150.873 117.71L151.628 118.119C151.471 118.433 151.251 118.716 151.03 118.967C150.81 119.219 150.526 119.439 150.243 119.627C149.959 119.816 149.613 119.941 149.267 120.067C148.92 120.161 148.542 120.224 148.164 120.224H148.196Z" stroke="#7F792C" stroke-width="0.31423" stroke-miterlimit="10"/>
<path d="M152.981 112.526H156.005C156.383 112.526 156.729 112.589 157.075 112.714C157.39 112.84 157.674 113.029 157.894 113.217C158.115 113.437 158.303 113.689 158.429 114.003C158.555 114.317 158.618 114.631 158.618 114.977C158.618 115.228 158.587 115.448 158.524 115.7C158.461 115.92 158.366 116.14 158.209 116.328C158.083 116.517 157.894 116.705 157.705 116.862C157.516 117.019 157.296 117.145 157.044 117.208L158.713 120.099H157.737L156.257 117.428H153.863V120.099H153.013V112.526H152.981ZM153.863 113.343V116.674H155.942C156.225 116.674 156.477 116.642 156.729 116.517C156.949 116.422 157.138 116.297 157.296 116.14C157.453 115.982 157.579 115.794 157.642 115.605C157.737 115.417 157.768 115.197 157.768 114.977C157.768 114.726 157.737 114.506 157.642 114.317C157.548 114.128 157.422 113.94 157.296 113.814C157.138 113.657 156.949 113.563 156.729 113.469C156.508 113.374 156.257 113.343 155.973 113.343H153.895H153.863Z" fill="#7F792C"/>
<path d="M152.981 112.526H156.005C156.383 112.526 156.729 112.589 157.075 112.714C157.39 112.84 157.674 113.029 157.894 113.217C158.115 113.437 158.303 113.689 158.429 114.003C158.555 114.317 158.618 114.631 158.618 114.977C158.618 115.228 158.587 115.448 158.524 115.7C158.461 115.92 158.366 116.14 158.209 116.328C158.083 116.517 157.894 116.705 157.705 116.862C157.516 117.019 157.296 117.145 157.044 117.208L158.713 120.099H157.737L156.257 117.428H153.863V120.099H153.013V112.526H152.981ZM153.863 113.343V116.674H155.942C156.225 116.674 156.477 116.642 156.729 116.517C156.949 116.422 157.138 116.297 157.296 116.14C157.453 115.982 157.579 115.794 157.642 115.605C157.737 115.417 157.768 115.197 157.768 114.977C157.768 114.726 157.737 114.506 157.642 114.317C157.548 114.128 157.422 113.94 157.296 113.814C157.138 113.657 156.949 113.563 156.729 113.469C156.508 113.374 156.257 113.343 155.973 113.343H153.895H153.863Z" stroke="#7F792C" stroke-width="0.31423" stroke-miterlimit="10"/>
<path d="M161.043 112.526H160.192V120.099H161.043V112.526Z" fill="#7F792C"/>
<path d="M161.043 112.526H160.192V120.099H161.043V112.526Z" stroke="#7F792C" stroke-width="0.31423" stroke-miterlimit="10"/>
<path d="M162.899 112.526H163.781L166.458 116.265L169.261 112.526H170.079V120.099H169.261V113.877L166.458 117.616L163.75 113.94V120.099H162.899V112.526Z" fill="#7F792C"/>
<path d="M162.899 112.526H163.781L166.458 116.265L169.261 112.526H170.079V120.099H169.261V113.877L166.458 117.616L163.75 113.94V120.099H162.899V112.526Z" stroke="#7F792C" stroke-width="0.31423" stroke-miterlimit="10"/>
<path d="M171.876 112.526H176.915V113.343H172.726V115.888H176.915V116.705H172.726V119.282H176.915V120.099H171.876V112.526Z" fill="#7F792C"/>
<path d="M171.876 112.526H176.915V113.343H172.726V115.888H176.915V116.705H172.726V119.282H176.915V120.099H171.876V112.526Z" stroke="#7F792C" stroke-width="0.31423" stroke-miterlimit="10"/>
<path d="M88.4235 132.668C87.6677 132.668 87.0064 132.542 86.4711 132.228C85.9357 131.945 85.4948 131.568 85.1484 131.065L85.9042 130.468C86.4711 131.38 87.3213 131.82 88.4235 131.82C89.0219 131.82 89.4627 131.694 89.7777 131.411C90.0926 131.16 90.25 130.814 90.25 130.374C90.25 130.123 90.187 129.934 90.0611 129.777C89.9351 129.62 89.7777 129.494 89.5572 129.369C89.3368 129.274 89.1163 129.18 88.8644 129.117C88.581 129.054 88.3291 128.992 88.0456 128.929C87.7622 128.866 87.4473 128.803 87.1639 128.709C86.8805 128.646 86.6285 128.52 86.4081 128.363C86.1876 128.206 85.9987 128.017 85.8412 127.797C85.6838 127.577 85.6208 127.263 85.6208 126.886C85.6208 126.603 85.6838 126.321 85.8098 126.069C85.9357 125.818 86.0932 125.598 86.3451 125.409C86.5655 125.221 86.849 125.064 87.1639 124.969C87.4788 124.844 87.8252 124.812 88.2031 124.812C88.8644 124.812 89.4313 124.938 89.8721 125.189C90.313 125.441 90.7224 125.755 91.0688 126.163L90.376 126.698C90.1241 126.352 89.8406 126.069 89.5257 125.881C89.1793 125.692 88.7699 125.598 88.2346 125.598C87.6362 125.598 87.2269 125.724 86.9749 125.975C86.6915 126.226 86.5655 126.541 86.5655 126.918C86.5655 127.138 86.6285 127.326 86.723 127.483C86.8175 127.64 86.9749 127.735 87.1639 127.829C87.3528 127.923 87.5418 127.986 87.7937 128.049C88.0456 128.112 88.2976 128.175 88.581 128.237C88.8644 128.3 89.1793 128.363 89.4942 128.457C89.8092 128.552 90.0926 128.677 90.3445 128.834C90.5964 128.992 90.8169 129.18 90.9743 129.431C91.1318 129.683 91.2263 129.997 91.2263 130.406C91.2263 130.72 91.1633 131.003 91.0373 131.254C90.9113 131.537 90.7224 131.757 90.502 131.977C90.2815 132.197 89.9981 132.354 89.6517 132.479C89.3368 132.605 88.9589 132.668 88.5495 132.668" fill="#7F792C"/>
<path d="M88.4235 132.668C87.6677 132.668 87.0064 132.542 86.4711 132.228C85.9357 131.945 85.4948 131.568 85.1484 131.065L85.9042 130.468C86.4711 131.38 87.3213 131.82 88.4235 131.82C89.0219 131.82 89.4627 131.694 89.7777 131.411C90.0926 131.16 90.25 130.814 90.25 130.374C90.25 130.123 90.187 129.934 90.0611 129.777C89.9351 129.62 89.7777 129.494 89.5572 129.369C89.3368 129.274 89.1163 129.18 88.8644 129.117C88.581 129.054 88.3291 128.992 88.0456 128.929C87.7622 128.866 87.4473 128.803 87.1639 128.709C86.8805 128.646 86.6285 128.52 86.4081 128.363C86.1876 128.206 85.9987 128.017 85.8412 127.797C85.6838 127.577 85.6208 127.263 85.6208 126.886C85.6208 126.603 85.6838 126.321 85.8098 126.069C85.9357 125.818 86.0932 125.598 86.3451 125.409C86.5655 125.221 86.849 125.064 87.1639 124.969C87.4788 124.844 87.8252 124.812 88.2031 124.812C88.8644 124.812 89.4313 124.938 89.8721 125.189C90.313 125.441 90.7224 125.755 91.0688 126.163L90.376 126.698C90.1241 126.352 89.8406 126.069 89.5257 125.881C89.1793 125.692 88.7699 125.598 88.2346 125.598C87.6362 125.598 87.2269 125.724 86.9749 125.975C86.6915 126.226 86.5655 126.541 86.5655 126.918C86.5655 127.138 86.6285 127.326 86.723 127.483C86.8175 127.64 86.9749 127.735 87.1639 127.829C87.3528 127.923 87.5418 127.986 87.7937 128.049C88.0456 128.112 88.2976 128.175 88.581 128.237C88.8644 128.3 89.1793 128.363 89.4942 128.457C89.8092 128.552 90.0926 128.677 90.3445 128.834C90.5964 128.992 90.8169 129.18 90.9743 129.431C91.1318 129.683 91.2263 129.997 91.2263 130.406C91.2263 130.72 91.1633 131.003 91.0373 131.254C90.9113 131.537 90.7224 131.757 90.502 131.977C90.2815 132.197 89.9981 132.354 89.6517 132.479C89.3368 132.605 88.9589 132.668 88.5495 132.668H88.4235Z" stroke="#7F792C" stroke-width="0.31423" stroke-miterlimit="10"/>
<path d="M92.5479 125H95.4136C95.8229 125 96.2008 125.063 96.5472 125.22C96.8936 125.346 97.1771 125.535 97.429 125.786C97.6809 126.037 97.8699 126.32 97.9958 126.634C98.1218 126.949 98.1848 127.294 98.1848 127.671C98.1848 128.049 98.1218 128.394 97.9958 128.708C97.8699 129.023 97.6809 129.305 97.429 129.557C97.1771 129.808 96.8936 129.997 96.5472 130.122C96.2008 130.248 95.8229 130.311 95.4136 130.311H93.4296V132.573H92.5479V125ZM93.3981 125.786V129.494H95.3191C95.634 129.494 95.9174 129.463 96.1379 129.337C96.3898 129.243 96.5787 129.117 96.7677 128.928C96.9251 128.771 97.0511 128.583 97.1456 128.331C97.24 128.111 97.2715 127.86 97.2715 127.609C97.2715 127.357 97.2086 127.106 97.1456 126.854C97.0511 126.634 96.9251 126.415 96.7677 126.257C96.5787 126.1 96.3898 125.975 96.1379 125.88C95.8859 125.786 95.6025 125.755 95.3191 125.755H93.3981V125.786Z" fill="#7F792C"/>
<path d="M92.5479 125H95.4136C95.8229 125 96.2008 125.063 96.5472 125.22C96.8936 125.346 97.1771 125.535 97.429 125.786C97.6809 126.037 97.8699 126.32 97.9958 126.634C98.1218 126.949 98.1848 127.294 98.1848 127.671C98.1848 128.049 98.1218 128.394 97.9958 128.708C97.8699 129.023 97.6809 129.305 97.429 129.557C97.1771 129.808 96.8936 129.997 96.5472 130.122C96.2008 130.248 95.8229 130.311 95.4136 130.311H93.4296V132.573H92.5479V125ZM93.3981 125.786V129.494H95.3191C95.634 129.494 95.9174 129.463 96.1379 129.337C96.3898 129.243 96.5787 129.117 96.7677 128.928C96.9251 128.771 97.0511 128.583 97.1456 128.331C97.24 128.111 97.2715 127.86 97.2715 127.609C97.2715 127.357 97.2086 127.106 97.1456 126.854C97.0511 126.634 96.9251 126.415 96.7677 126.257C96.5787 126.1 96.3898 125.975 96.1379 125.88C95.8859 125.786 95.6025 125.755 95.3191 125.755H93.3981V125.786Z" stroke="#7F792C" stroke-width="0.31423" stroke-miterlimit="10"/>
<path d="M99.6982 125H104.737V125.817H100.549V128.363H104.737V129.18H100.549V131.725H104.737V132.573H99.6982V125Z" fill="#7F792C"/>
<path d="M99.6982 125H104.737V125.817H100.549V128.363H104.737V129.18H100.549V131.725H104.737V132.573H99.6982V125Z" stroke="#7F792C" stroke-width="0.31423" stroke-miterlimit="10"/>
<path d="M109.994 132.668C109.427 132.668 108.923 132.574 108.451 132.354C107.978 132.134 107.569 131.883 107.223 131.505C106.876 131.16 106.593 130.751 106.404 130.28C106.215 129.809 106.089 129.306 106.089 128.772C106.089 128.238 106.183 127.703 106.404 127.232C106.624 126.761 106.876 126.352 107.254 126.006C107.6 125.661 108.01 125.378 108.482 125.189C108.955 125.001 109.458 124.875 110.025 124.875C110.372 124.875 110.718 124.907 111.064 125.001C111.379 125.095 111.694 125.221 111.978 125.378C112.261 125.535 112.513 125.755 112.765 125.975C113.017 126.195 113.206 126.478 113.363 126.761L112.608 127.232C112.356 126.761 111.978 126.384 111.537 126.101C111.096 125.818 110.561 125.661 109.994 125.661C109.553 125.661 109.175 125.755 108.797 125.912C108.419 126.069 108.104 126.289 107.821 126.572C107.569 126.855 107.349 127.169 107.191 127.546C107.034 127.923 106.971 128.332 106.971 128.74C106.971 129.149 107.034 129.557 107.191 129.934C107.349 130.311 107.569 130.626 107.821 130.908C108.104 131.191 108.419 131.411 108.766 131.568C109.144 131.725 109.521 131.82 109.962 131.82C110.592 131.82 111.127 131.663 111.6 131.348C112.072 131.034 112.419 130.657 112.639 130.154L113.395 130.563C113.237 130.877 113.017 131.16 112.797 131.411C112.576 131.663 112.293 131.883 112.009 132.071C111.726 132.26 111.379 132.385 111.033 132.511C110.687 132.605 110.34 132.668 109.931 132.668" fill="#7F792C"/>
<path d="M109.994 132.668C109.427 132.668 108.923 132.574 108.451 132.354C107.978 132.134 107.569 131.883 107.223 131.505C106.876 131.16 106.593 130.751 106.404 130.28C106.215 129.809 106.089 129.306 106.089 128.772C106.089 128.238 106.183 127.703 106.404 127.232C106.624 126.761 106.876 126.352 107.254 126.006C107.6 125.661 108.01 125.378 108.482 125.189C108.955 125.001 109.458 124.875 110.025 124.875C110.372 124.875 110.718 124.907 111.064 125.001C111.379 125.095 111.694 125.221 111.978 125.378C112.261 125.535 112.513 125.755 112.765 125.975C113.017 126.195 113.206 126.478 113.363 126.761L112.608 127.232C112.356 126.761 111.978 126.384 111.537 126.101C111.096 125.818 110.561 125.661 109.994 125.661C109.553 125.661 109.175 125.755 108.797 125.912C108.419 126.069 108.104 126.289 107.821 126.572C107.569 126.855 107.349 127.169 107.191 127.546C107.034 127.923 106.971 128.332 106.971 128.74C106.971 129.149 107.034 129.557 107.191 129.934C107.349 130.311 107.569 130.626 107.821 130.908C108.104 131.191 108.419 131.411 108.766 131.568C109.144 131.725 109.521 131.82 109.962 131.82C110.592 131.82 111.127 131.663 111.6 131.348C112.072 131.034 112.419 130.657 112.639 130.154L113.395 130.563C113.237 130.877 113.017 131.16 112.797 131.411C112.576 131.663 112.293 131.883 112.009 132.071C111.726 132.26 111.379 132.385 111.033 132.511C110.687 132.605 110.34 132.668 109.931 132.668H109.994Z" stroke="#7F792C" stroke-width="0.31423" stroke-miterlimit="10"/>
<path d="M115.757 125H114.875V132.573H115.757V125Z" fill="#7F792C"/>
<path d="M115.725 125H114.875V132.573H115.725V125Z" stroke="#7F792C" stroke-width="0.31423" stroke-miterlimit="10"/>
<path d="M120.072 125H120.954L123.977 132.573H123.063L122.339 130.657H118.718L117.993 132.573H117.08L120.072 125ZM119.033 129.84H121.993L120.513 126.006L119.033 129.84Z" fill="#7F792C"/>
<path d="M120.072 125H120.954L123.977 132.573H123.063L122.339 130.657H118.718L117.993 132.573H117.08L120.072 125ZM119.033 129.84H121.993L120.513 126.006L119.033 129.84Z" stroke="#7F792C" stroke-width="0.31423" stroke-miterlimit="10"/>
<path d="M125.204 125H126.054V131.725H129.991V132.573H125.204V125Z" fill="#7F792C"/>
<path d="M125.204 125H126.054V131.725H129.991V132.573H125.204V125Z" stroke="#7F792C" stroke-width="0.31423" stroke-miterlimit="10"/>
<path d="M132.354 125H131.504V132.573H132.354V125Z" fill="#7F792C"/>
<path d="M132.354 125H131.504V132.573H132.354V125Z" stroke="#7F792C" stroke-width="0.31423" stroke-miterlimit="10"/>
<path d="M136.887 132.668C136.132 132.668 135.47 132.542 134.935 132.228C134.4 131.945 133.959 131.568 133.612 131.065L134.368 130.468C134.935 131.38 135.785 131.82 136.887 131.82C137.486 131.82 137.927 131.694 138.242 131.411C138.556 131.16 138.714 130.814 138.714 130.374C138.714 130.123 138.651 129.934 138.525 129.777C138.399 129.62 138.242 129.494 138.021 129.369C137.801 129.274 137.58 129.18 137.328 129.117C137.045 129.054 136.793 128.992 136.51 128.929C136.226 128.866 135.911 128.803 135.628 128.709C135.344 128.646 135.092 128.52 134.872 128.363C134.652 128.206 134.463 128.017 134.305 127.797C134.179 127.577 134.085 127.263 134.085 126.886C134.085 126.603 134.148 126.321 134.274 126.069C134.4 125.818 134.557 125.598 134.809 125.409C135.029 125.221 135.313 125.064 135.628 124.969C135.943 124.844 136.289 124.812 136.667 124.812C137.328 124.812 137.895 124.938 138.336 125.189C138.777 125.441 139.186 125.755 139.533 126.163L138.84 126.698C138.588 126.352 138.305 126.069 137.99 125.881C137.643 125.692 137.234 125.598 136.698 125.598C136.1 125.598 135.691 125.724 135.439 125.975C135.155 126.226 135.029 126.541 135.029 126.918C135.029 127.138 135.092 127.326 135.187 127.483C135.281 127.64 135.439 127.735 135.628 127.829C135.817 127.923 136.006 127.986 136.258 128.049C136.51 128.112 136.761 128.175 137.045 128.237C137.328 128.3 137.643 128.363 137.958 128.457C138.273 128.552 138.556 128.677 138.808 128.834C139.06 128.992 139.281 129.18 139.438 129.431C139.596 129.683 139.69 129.997 139.69 130.406C139.69 130.72 139.627 131.003 139.501 131.254C139.375 131.537 139.186 131.757 138.966 131.977C138.745 132.197 138.462 132.354 138.116 132.479C137.801 132.605 137.423 132.668 137.013 132.668" fill="#7F792C"/>
<path d="M136.887 132.668C136.132 132.668 135.47 132.542 134.935 132.228C134.4 131.945 133.959 131.568 133.612 131.065L134.368 130.468C134.935 131.38 135.785 131.82 136.887 131.82C137.486 131.82 137.927 131.694 138.242 131.411C138.556 131.16 138.714 130.814 138.714 130.374C138.714 130.123 138.651 129.934 138.525 129.777C138.399 129.62 138.242 129.494 138.021 129.369C137.801 129.274 137.58 129.18 137.328 129.117C137.045 129.054 136.793 128.992 136.51 128.929C136.226 128.866 135.911 128.803 135.628 128.709C135.344 128.646 135.092 128.52 134.872 128.363C134.652 128.206 134.463 128.017 134.305 127.797C134.179 127.577 134.085 127.263 134.085 126.886C134.085 126.603 134.148 126.321 134.274 126.069C134.4 125.818 134.557 125.598 134.809 125.409C135.029 125.221 135.313 125.064 135.628 124.969C135.943 124.844 136.289 124.812 136.667 124.812C137.328 124.812 137.895 124.938 138.336 125.189C138.777 125.441 139.186 125.755 139.533 126.163L138.84 126.698C138.588 126.352 138.305 126.069 137.99 125.881C137.643 125.692 137.234 125.598 136.698 125.598C136.1 125.598 135.691 125.724 135.439 125.975C135.155 126.226 135.029 126.541 135.029 126.918C135.029 127.138 135.092 127.326 135.187 127.483C135.281 127.64 135.439 127.735 135.628 127.829C135.817 127.923 136.006 127.986 136.258 128.049C136.51 128.112 136.761 128.175 137.045 128.237C137.328 128.3 137.643 128.363 137.958 128.457C138.273 128.552 138.556 128.677 138.808 128.834C139.06 128.992 139.281 129.18 139.438 129.431C139.596 129.683 139.69 129.997 139.69 130.406C139.69 130.72 139.627 131.003 139.501 131.254C139.375 131.537 139.186 131.757 138.966 131.977C138.745 132.197 138.462 132.354 138.116 132.479C137.801 132.605 137.423 132.668 137.013 132.668H136.887Z" stroke="#7F792C" stroke-width="0.31423" stroke-miterlimit="10"/>
<path d="M142.683 125.786H140.384V125H145.895V125.786H143.564V132.573H142.683V125.786Z" fill="#7F792C"/>
<path d="M142.683 125.786H140.384V125H145.895V125.786H143.564V132.573H142.683V125.786Z" stroke="#7F792C" stroke-width="0.31423" stroke-miterlimit="10"/>
<path d="M78.2207 73.8442C76.2998 73.8442 74.5678 73.4986 72.9932 72.8387C71.4186 72.1474 70.0645 71.2361 68.9308 70.0735C67.7971 68.9108 66.9154 67.5282 66.2856 65.9885C65.6557 64.4173 65.3408 62.7519 65.3408 60.9608C65.3408 59.1697 65.6557 57.41 66.3171 55.8388C66.9784 54.2677 67.8916 52.8851 69.0568 51.7539C70.222 50.5912 71.5761 49.68 73.1507 49.0515C74.7252 48.3916 76.4257 48.0774 78.2522 48.0774C79.4489 48.0774 80.6141 48.2345 81.7163 48.5173C82.8185 48.8315 83.8577 49.24 84.8339 49.8056C85.7786 50.3398 86.6604 50.9997 87.4477 51.7853C88.235 52.5709 88.8963 53.4193 89.4631 54.362L85.1803 57.0329C84.519 55.7132 83.6057 54.7076 82.4406 53.9535C81.2754 53.1993 79.9213 52.8222 78.3152 52.8222C77.1815 52.8222 76.1108 53.0422 75.1346 53.4507C74.1584 53.8592 73.3081 54.4562 72.6153 55.179C71.891 55.9017 71.3557 56.7815 70.9463 57.7871C70.5369 58.7926 70.3479 59.8296 70.3479 60.9608C70.3479 62.092 70.5369 63.0976 70.9463 64.1031C71.3242 65.0772 71.891 65.957 72.5838 66.6798C73.3081 67.4025 74.1269 67.9995 75.1031 68.408C76.0793 68.8165 77.1186 69.0365 78.2837 69.0365C80.0157 69.0365 81.4643 68.5966 82.6925 67.7481C83.8892 66.8997 84.8024 65.7685 85.4322 64.3859L89.8725 66.774C89.3372 67.8424 88.6758 68.7851 87.9201 69.6649C87.1328 70.5448 86.251 71.2675 85.2748 71.896C84.2986 72.5244 83.2279 72.9958 82.0312 73.3414C80.866 73.6871 79.6064 73.8442 78.3152 73.8442" fill="#7D792C"/>
<path d="M104.453 73.8442C102.532 73.8442 100.8 73.4986 99.2256 72.8387C97.6511 72.1474 96.2969 71.2361 95.1632 70.0735C94.0296 68.9108 93.1478 67.5282 92.518 65.9885C91.8882 64.4173 91.5732 62.7519 91.5732 60.9608C91.5732 59.1697 91.8882 57.41 92.5495 55.8388C93.2108 54.2677 94.124 52.8851 95.2892 51.7539C96.4544 50.5912 97.8085 49.68 99.3831 49.0515C100.958 48.3916 102.658 48.0774 104.485 48.0774C105.681 48.0774 106.847 48.2345 107.949 48.5173C109.051 48.8315 110.09 49.24 111.066 49.8056C112.011 50.3398 112.893 50.9997 113.68 51.7853C114.467 52.5709 115.129 53.4193 115.696 54.362L111.413 57.0329C110.751 55.7132 109.838 54.7076 108.673 53.9535C107.508 53.1993 106.154 52.8222 104.548 52.8222C103.414 52.8222 102.343 53.0422 101.367 53.4507C100.391 53.8592 99.5405 54.4562 98.8477 55.179C98.1234 55.9017 97.5881 56.7815 97.1787 57.7871C96.7693 58.7926 96.5804 59.8296 96.5804 60.9608C96.5804 62.092 96.7693 63.0976 97.1787 64.1031C97.5566 65.0772 98.1234 65.957 98.8162 66.6798C99.5405 67.4025 100.359 67.9995 101.336 68.408C102.312 68.8165 103.351 69.0365 104.516 69.0365C106.248 69.0365 107.697 68.5966 108.925 67.7481C110.122 66.8997 111.035 65.7685 111.665 64.3859L116.105 66.774C115.57 67.8424 114.908 68.7851 114.152 69.6649C113.365 70.5448 112.483 71.2675 111.507 71.896C110.531 72.5244 109.46 72.9958 108.264 73.3414C107.098 73.6871 105.839 73.8442 104.548 73.8442" fill="#7D792C"/>
<path d="M126.37 48.3914H131.157L140.667 73.4983H135.66L133.991 68.9105H123.473L121.804 73.4983H116.797L126.307 48.3914H126.37ZM125.111 64.5428H132.385L128.764 54.5503L125.111 64.5428Z" fill="#7D792C"/>
<path d="M152.571 73.844C151.217 73.844 149.989 73.7183 148.887 73.4669C147.785 73.2155 146.777 72.8699 145.895 72.3986C144.982 71.9272 144.195 71.393 143.47 70.7645C142.746 70.1361 142.085 69.4448 141.486 68.6906L145.738 65.3284C146.556 66.6482 147.533 67.6223 148.666 68.2822C149.8 68.942 151.123 69.2877 152.634 69.2877C154.02 69.2877 155.059 69.0049 155.72 68.4078C156.382 67.8108 156.76 67.0567 156.76 66.1454C156.76 65.5798 156.634 65.1084 156.319 64.6999C156.035 64.3229 155.626 64.0086 155.122 63.7258C154.618 63.4744 153.988 63.2545 153.264 63.0659C152.54 62.9088 151.752 62.7203 150.871 62.5003C149.926 62.2804 148.981 62.0604 148.037 61.7462C147.092 61.4634 146.242 61.0549 145.486 60.5521C144.73 60.0493 144.1 59.358 143.628 58.5725C143.155 57.7555 142.903 56.7185 142.903 55.4302C142.903 54.3932 143.124 53.4191 143.565 52.5078C144.006 51.5966 144.604 50.811 145.423 50.1511C146.21 49.4912 147.155 48.957 148.257 48.58C149.328 48.2029 150.556 47.9829 151.847 47.9829C152.949 47.9829 153.957 48.0772 154.87 48.2657C155.783 48.4543 156.634 48.7371 157.452 49.1141C158.24 49.4912 158.964 49.9311 159.657 50.4653C160.35 50.9995 161.011 51.628 161.641 52.3507L157.673 55.4616C157.012 54.4875 156.224 53.7333 155.311 53.1677C154.398 52.6021 153.233 52.3193 151.784 52.3193C150.335 52.3193 149.422 52.6021 148.792 53.1991C148.194 53.7962 147.879 54.4875 147.879 55.3045C147.879 55.8072 148.037 56.2157 148.32 56.53C148.603 56.8442 149.013 57.127 149.517 57.347C150.02 57.5669 150.619 57.7555 151.312 57.9126C152.004 58.0697 152.729 58.2582 153.516 58.4154C154.492 58.6353 155.468 58.8867 156.445 59.1695C157.421 59.4837 158.334 59.8922 159.121 60.4578C159.909 61.0234 160.57 61.7147 161.074 62.5946C161.578 63.4744 161.83 64.5742 161.83 65.9254C161.83 66.9938 161.609 68.0308 161.168 68.9734C160.727 69.9161 160.098 70.7646 159.31 71.4873C158.492 72.21 157.515 72.7756 156.382 73.1841C155.248 73.5926 153.957 73.8126 152.571 73.8126" fill="#7D792C"/>
<path d="M162.427 72.2099H161.829V71.8643H163.372V72.2099H162.774V73.7496H162.427V72.2099ZM163.561 71.8643H163.908L164.6 72.7755L165.325 71.8643H165.64V73.7182H165.262V72.4613L164.6 73.2783L163.939 72.4613V73.7182H163.593V71.8643H163.561Z" fill="#7D792C"/>
</svg>
