<svg width="232" height="180" viewBox="0 0 232 180" fill="none" xmlns="http://www.w3.org/2000/svg">
<path d="M45.6807 146.626C91.746 158.828 140.365 158.828 186.43 146.626V34.2633C140.365 22.0603 91.7779 22.0603 45.6807 34.2633V146.657V146.626Z" fill="white"/>
<path fill-rule="evenodd" clip-rule="evenodd" d="M206.605 104.921C205.251 106.398 204.212 107.812 203.393 109.101C204.023 106.87 204.558 104.576 204.999 102.188C206.259 101.968 209.282 100.679 213.47 93.9234C214.698 91.9123 216.714 84.9679 215.423 84.4337C214.667 84.1194 209.975 88.6443 208.558 90.9068C207.329 92.855 206.479 94.6147 205.881 96.1859C206.133 93.7034 206.29 91.1268 206.353 88.4558C207.518 88.0473 210.321 86.319 213.313 78.809C214.195 76.6094 214.95 69.4135 213.565 69.1307C212.746 68.9421 208.936 74.2212 207.928 76.7036C207.141 78.6833 206.605 80.4744 206.259 82.0141C206.164 79.9088 206.007 77.772 205.786 75.6038C205.755 75.2896 205.723 74.9439 205.66 74.6297C206.7 74.0641 209.219 71.9588 210.888 63.9145C211.36 61.5892 210.856 54.3933 209.471 54.3305C208.621 54.2991 205.786 60.1437 205.22 62.7518C204.842 64.5744 204.621 66.2398 204.527 67.6852C204.054 65.4228 203.488 63.1603 202.826 60.9293C203.834 60.018 205.692 57.2842 205.912 49.617C205.975 47.2603 204.212 40.253 202.826 40.4415C202.007 40.5672 200.212 46.8204 200.118 49.4913C200.055 50.9996 200.118 52.3822 200.212 53.6077C199.362 51.5653 198.417 49.5228 197.41 47.5745C198.197 46.7261 199.866 43.8666 198.638 35.6967C198.291 33.3714 195.331 26.7411 194.009 27.1811C193.221 27.4324 192.529 33.9056 192.906 36.5451C193.19 38.6818 193.662 40.5044 194.166 42.0441C192.843 40.0016 191.395 37.9905 189.82 36.1052C190.45 35.0996 191.552 31.9888 188.97 24.2273C188.214 21.9963 184.183 15.9945 182.924 16.6544C182.168 17.0314 182.64 23.536 183.491 26.0813C184.152 28.1552 184.939 29.8834 185.695 31.2974C185.569 31.266 185.412 31.2346 185.286 31.1718C183.68 29.6006 181.979 28.1237 180.184 26.7411C180.562 26.0498 181.538 23.1589 177.633 15.9631C176.594 14.0777 171.996 9.3328 170.989 10.087C170.39 10.5583 171.839 16.3087 172.972 18.4769C174.579 21.4935 176.279 23.5674 177.633 24.9186C175.397 23.3789 173.035 21.9963 170.516 20.8022C170.17 19.7024 168.69 17.3457 162.927 14.549C161.132 13.6692 155.148 12.6008 154.802 13.7006C154.613 14.3605 158.77 17.9113 160.817 18.9168C165.194 21.085 168.564 21.4306 169.949 21.4621V21.6192C171.65 22.5304 173.224 23.4731 174.736 24.4472C173.035 23.7874 170.831 23.2532 169.76 23.2218C161.069 22.8761 159.841 25.3899 159.841 25.3899C159.841 25.3899 160.219 25.6099 161.006 25.9556C131.53 20.9907 101.393 20.9907 71.917 25.9556C72.6728 25.6413 73.0822 25.3899 73.0822 25.3899C73.0822 25.3899 71.8226 22.8761 63.1625 23.2218C62.0918 23.2532 59.8874 23.7874 58.1868 24.4472C59.6984 23.4731 61.3045 22.5304 62.942 21.6192V21.4621C64.3591 21.4306 67.7287 21.085 72.106 18.9168C74.1214 17.9113 78.3098 14.3919 78.1208 13.7006C77.7744 12.5694 71.7911 13.7006 69.9961 14.549C64.2017 17.3771 62.7531 19.7338 62.4067 20.8022C59.8874 22.0277 57.5255 23.4103 55.2896 24.9186C56.6438 23.5674 58.3443 21.4935 59.9503 18.4769C61.1155 16.3087 62.5641 10.5583 61.9343 10.087C60.9266 9.30138 56.3289 14.0463 55.3211 15.9631C51.4162 23.1903 52.3924 26.0498 52.7703 26.7411C50.9753 28.1237 49.2748 29.6006 47.6688 31.1718C47.5428 31.2032 47.3853 31.2346 47.2594 31.2974C48.0152 29.8834 48.8024 28.1552 49.4638 26.0813C50.2825 23.536 50.7549 17.0314 50.0306 16.6544C48.8024 15.9945 44.7401 21.9963 43.9843 24.2273C41.402 31.9888 42.5042 35.0996 43.134 36.1052C41.5909 37.9905 40.1423 39.9702 38.7882 42.0441C39.2921 40.5044 39.7645 38.6818 40.0479 36.5451C40.4258 33.8741 39.7645 27.4324 38.9457 27.1811C37.623 26.7411 34.6629 33.3714 34.3165 35.6967C33.1198 43.8666 34.7888 46.7261 35.5761 47.5745C34.5369 49.5228 33.6237 51.5653 32.7734 53.6077C32.8679 52.3822 32.9308 50.9996 32.8679 49.4913C32.7734 46.8204 30.9784 40.5672 30.1596 40.4415C28.774 40.253 27.0105 47.2603 27.0735 49.617C27.2939 57.2842 29.1519 59.9866 30.1596 60.9293C29.4983 63.1603 28.9315 65.4228 28.4591 67.6852C28.3646 66.2398 28.1757 64.5744 27.7663 62.7518C27.1994 60.1123 24.3652 54.2676 23.515 54.3305C22.1293 54.3933 21.6255 61.5892 22.0979 63.9145C23.7669 71.9588 26.2862 74.0955 27.3254 74.6297C27.2939 74.9439 27.2309 75.2896 27.1994 75.6038C26.979 77.8034 26.8215 79.9402 26.7271 82.0141C26.3807 80.4429 25.8768 78.6519 25.0895 76.7036C24.0818 74.2212 20.2714 68.9421 19.4526 69.1307C18.0985 69.4449 18.8543 76.6094 19.7045 78.809C22.6647 86.2876 25.4989 88.0473 26.6641 88.4558C26.7271 91.1268 26.853 93.7034 27.1365 96.1859C26.5381 94.6461 25.6879 92.855 24.4597 90.9068C23.0426 88.6443 18.3504 84.1194 17.5946 84.4337C16.3035 84.9679 18.2874 91.9123 19.5471 93.9234C23.7354 100.679 26.7586 101.968 28.0182 102.188C28.4591 104.576 28.9944 106.901 29.6243 109.101C28.8055 107.812 27.7348 106.398 26.4122 104.921C24.6172 102.942 19.2321 99.2967 18.5078 99.7366C17.3427 100.491 20.4918 106.964 22.0664 108.755C27.1365 114.443 30.3171 115.385 31.6712 115.448C32.3955 117.365 33.2143 119.25 34.096 121.041C33.2143 120.193 32.238 119.282 31.0414 118.37C28.9315 116.705 22.9796 114.066 22.3498 114.631C21.3106 115.574 25.5619 121.418 27.4199 122.895C33.0883 127.357 36.3319 127.923 37.812 127.829C38.9142 129.557 40.0479 131.254 41.276 132.856C40.2998 132.165 39.1661 131.474 37.875 130.783C35.4816 129.526 29.1834 127.954 28.6795 128.614C27.8293 129.714 33.0253 134.742 35.1037 135.873C39.3866 138.198 42.2837 138.921 44.1732 139.047V141.215C41.3075 140.806 37.7805 140.712 37.4971 141.215C36.9302 142.315 41.5595 145.583 44.1732 146.84V147.877L45.7478 148.317C49.2433 149.259 52.7388 150.139 56.2659 150.956C53.2112 150.925 48.771 151.49 48.5505 152.15C48.1096 153.47 54.7543 156.424 57.0846 156.769C64.4851 157.869 67.5083 156.612 68.6734 155.764C71.1612 157.115 73.6176 158.309 76.0109 159.377C74.3104 159.126 72.2634 158.937 69.8701 159.032C67.1933 159.126 60.9266 160.917 60.8006 161.734C60.6117 163.117 67.6342 164.876 69.9961 164.814C77.9319 164.594 80.5771 162.614 81.3959 161.64C84.545 162.865 87.4737 163.808 89.993 164.562C88.2925 164.279 86.2456 164.122 83.8837 164.217C81.207 164.311 74.9402 166.102 74.8142 166.919C74.6253 168.302 81.6478 170.03 84.0097 169.998C94.5907 169.684 95.7559 166.29 95.7559 166.29C95.7559 166.29 95.504 166.165 95.0001 165.945C97.7399 166.605 99.4719 166.887 99.7553 166.95C100.448 167.076 101.456 167.202 102.652 167.327C117.768 170.03 130.239 167.327 130.239 167.327C131.436 167.202 132.443 167.076 133.136 166.95C133.419 166.919 135.183 166.605 137.923 165.945C137.419 166.165 137.167 166.29 137.167 166.29C137.167 166.29 138.364 169.684 148.913 169.998C151.275 170.061 158.298 168.302 158.109 166.919C157.983 166.102 151.747 164.311 149.039 164.217C146.646 164.122 144.599 164.311 142.898 164.562C145.449 163.808 148.346 162.834 151.495 161.64C152.314 162.614 154.991 164.594 162.895 164.814C165.257 164.876 172.28 163.117 172.091 161.734C171.965 160.917 165.729 159.126 163.021 159.032C160.628 158.937 158.581 159.126 156.88 159.377C159.274 158.309 161.73 157.115 164.218 155.764C165.383 156.581 168.406 157.838 175.807 156.769C178.137 156.424 184.75 153.47 184.341 152.15C184.12 151.49 179.68 150.925 176.625 150.956C180.152 150.139 183.648 149.259 187.112 148.317L188.718 147.877V146.84C191.332 145.583 195.993 142.283 195.394 141.215C195.111 140.681 191.584 140.775 188.718 141.215V139.047C190.576 138.921 193.473 138.167 197.788 135.873C199.866 134.742 205.062 129.714 204.212 128.614C203.708 127.954 197.378 129.526 195.016 130.783C193.725 131.474 192.592 132.165 191.615 132.856C192.812 131.254 193.977 129.588 195.079 127.829C196.559 127.923 199.803 127.357 205.471 122.895C207.329 121.418 211.581 115.574 210.542 114.631C209.912 114.066 203.991 116.736 201.85 118.37C200.685 119.282 199.677 120.193 198.795 121.041C199.677 119.25 200.464 117.396 201.22 115.448C202.606 115.385 205.755 114.474 210.825 108.755C212.4 106.995 215.58 100.491 214.383 99.7366C213.659 99.2967 208.274 102.942 206.479 104.921M44.1417 133.893C43.9213 133.642 43.7009 133.359 43.4804 133.108C43.6379 133.045 43.8898 132.731 44.1417 132.228V133.893ZM44.1417 113.123C43.134 114.725 41.9059 117.742 41.276 123.43C41.0871 125.158 41.5595 129.337 42.3467 131.6C39.9219 128.394 37.7805 125.001 35.9225 121.481C35.9225 121.481 35.9855 121.481 36.017 121.481C36.8358 121.544 40.1738 115.605 40.9611 112.934C43.26 105.236 42.1893 100.522 42.1893 100.522C42.1893 100.522 38.6623 100.994 35.5761 111.583C35.0723 113.343 34.8203 117.962 35.2612 120.193C33.4347 116.517 31.9231 112.714 30.7265 108.724C31.5137 108.912 35.828 103.665 37.0877 101.151C40.7092 93.9863 40.4573 89.1471 40.4573 89.1471C40.4573 89.1471 36.8987 89.0214 32.0176 98.8882C31.2303 100.459 30.2541 104.639 30.2226 106.995C29.1834 103.193 28.4276 99.2653 27.9867 95.2431C29.2464 94.8975 33.7811 90.9696 35.3242 88.8957C40.1423 82.454 40.7407 77.6463 40.7407 77.6463C40.7407 77.6463 37.2766 76.8922 30.7265 85.7849C29.8132 87.0418 28.3961 90.2155 27.7663 92.5408C27.5143 88.9271 27.4829 85.2192 27.7348 81.4485C29.4038 80.9771 33.9701 78.1805 35.7336 76.5465C41.5909 71.0475 43.008 66.4283 43.008 66.4283C43.008 66.4283 39.733 65.1085 31.7342 72.7129C30.7265 73.6556 29.0889 76.0437 28.0182 78.1177C28.1442 77.0493 28.2386 75.9809 28.3961 74.9125C28.7425 72.5244 29.1204 70.1991 29.5928 67.968C31.3248 67.7795 36.0485 65.9255 37.9694 64.6686C40.8037 62.8147 42.7876 60.9921 44.1417 59.4838V113.091V113.123ZM44.1417 56.0588C42.3152 56.3101 39.3551 57.3156 34.8203 60.3322C33.6866 61.0864 31.6712 63.1289 30.3171 64.9514C31.1358 61.4635 32.1436 58.1641 33.3087 55.0218C34.4109 55.3674 40.0794 54.2676 42.3467 53.2935C42.9766 53.0107 43.5749 52.7279 44.1417 52.4451V56.0273V56.0588ZM44.1417 47.0404C42.9451 47.4174 41.5909 47.9202 40.0479 48.6115C38.5993 49.24 35.6391 51.4396 34.0645 53.105C35.3242 50.0255 36.7728 47.166 38.4103 44.4322C39.2291 44.7465 41.8114 44.8093 44.1417 44.6522V47.0718V47.0404ZM44.1417 39.9702C42.6931 40.5986 40.9296 41.5413 39.67 42.4212C41.0241 40.3473 42.5357 38.399 44.1417 36.5451V39.9702ZM177.098 26.0184C179.176 27.4638 181.129 29.0036 182.924 30.5747C178.578 29.4749 174.232 28.4694 169.823 27.5895C172.217 27.5581 176.94 26.6154 177.066 26.0498M55.8565 26.0184C56.0139 26.6154 60.7376 27.5267 63.0995 27.5581C58.7222 28.438 54.3449 29.4435 49.9991 30.5433C51.8256 28.9407 53.7466 27.4324 55.825 25.987M66.9099 153.187C68.5475 153.501 70.185 153.784 71.854 154.067C72.7988 155.324 73.8695 156.549 74.7827 157.335C72.0745 156.047 69.4607 154.664 66.9414 153.187M76.4203 158.089C76.7037 157.869 76.6092 156.518 76.3573 154.821C77.9319 155.072 79.5379 155.292 81.1125 155.481C81.4274 156.015 81.7423 156.581 82.1202 157.178C82.876 158.403 85.0174 160.666 86.8754 162.174C83.2539 160.98 79.7584 159.629 76.3888 158.12M90.5284 163.274C90.3079 163.211 90.0875 163.148 89.8671 163.054C89.8671 161.891 88.8593 158.686 87.8201 156.235C89.0483 156.361 90.3079 156.487 91.5361 156.612C92.0714 157.743 92.7642 159 93.646 160.414C94.3073 161.483 95.9763 163.305 97.6139 164.719C93.583 164.059 90.7803 163.305 90.5599 163.242M134.711 157.335C133.64 159.095 132.16 163.085 131.719 165.254C131.436 165.285 131.152 165.316 130.837 165.348C130.648 165.348 130.459 165.379 130.27 165.411C114.871 168.427 102.684 165.411 102.684 165.411C102.495 165.411 102.275 165.379 102.117 165.348C101.834 165.316 101.519 165.285 101.235 165.254C100.795 163.054 99.3144 159.095 98.2437 157.335C98.2122 157.272 98.1492 157.209 98.1178 157.146C104.227 157.555 110.336 157.775 116.477 157.775C122.618 157.775 128.727 157.555 134.837 157.146C134.805 157.209 134.742 157.272 134.711 157.335ZM143.087 163.054C142.867 163.117 142.646 163.18 142.426 163.274C142.206 163.337 139.371 164.091 135.372 164.751C137.009 163.305 138.679 161.483 139.34 160.446C140.222 159.032 140.914 157.775 141.45 156.644C142.678 156.518 143.938 156.392 145.166 156.267C144.126 158.718 143.087 161.954 143.119 163.085M156.503 158.058C153.133 159.566 149.637 160.917 146.016 162.111C147.874 160.634 150.015 158.34 150.771 157.115C151.149 156.518 151.464 155.952 151.779 155.418C153.353 155.198 154.959 154.978 156.534 154.758C156.251 156.455 156.188 157.838 156.471 158.026M158.203 157.304C159.116 156.518 160.187 155.292 161.132 154.035C162.769 153.753 164.438 153.47 166.076 153.156C163.557 154.633 160.943 156.015 158.235 157.304M184.498 144.577C139.97 156.424 92.9847 156.424 48.456 144.577V35.4138C92.9847 23.5674 139.97 23.5674 184.498 35.4138V144.577ZM188.813 36.5137C190.419 38.399 191.93 40.3473 193.284 42.3897C192.025 41.5099 190.261 40.5672 188.813 39.9388V36.5137ZM188.813 44.6208C191.111 44.7779 193.694 44.715 194.513 44.4008C196.15 47.1346 197.63 50.0255 198.89 53.0736C197.347 51.4081 194.355 49.2085 192.906 48.5801C191.363 47.8888 190.009 47.386 188.813 47.0089V44.5894V44.6208ZM188.813 52.4765C189.379 52.7593 189.978 53.0421 190.608 53.3249C192.875 54.2991 198.543 55.3988 199.646 55.0532C200.842 58.1955 201.818 61.4949 202.669 64.9829C201.283 63.1917 199.268 61.1178 198.165 60.3637C193.631 57.3471 190.671 56.3415 188.844 56.0902V52.5079L188.813 52.4765ZM188.813 133.893V132.228C189.065 132.699 189.285 133.014 189.474 133.108C189.253 133.391 189.033 133.642 188.813 133.893ZM195.835 101.214C197.095 103.727 201.409 108.975 202.196 108.786C201 112.746 199.488 116.579 197.662 120.256C198.134 118.025 197.882 113.406 197.347 111.646C194.261 101.056 190.734 100.585 190.734 100.585C190.734 100.585 189.663 105.299 191.962 112.997C192.78 115.668 196.119 121.607 196.906 121.544C196.937 121.544 196.969 121.544 197 121.544C195.142 125.095 193.001 128.457 190.576 131.662C191.332 129.4 191.836 125.252 191.647 123.492C191.017 117.805 189.82 114.757 188.781 113.186V59.5781C190.135 61.055 192.119 62.8775 194.953 64.7629C196.874 66.0198 201.598 67.8738 203.33 68.0623C203.802 70.2933 204.18 72.6186 204.527 75.0068C204.684 76.0752 204.81 77.1435 204.905 78.2119C203.834 76.1694 202.165 73.7813 201.189 72.8072C193.221 65.2028 189.915 66.5226 189.915 66.5226C189.915 66.5226 191.332 71.1418 197.189 76.6408C198.953 78.3062 203.519 81.0714 205.188 81.5427C205.44 85.3135 205.408 89.0214 205.157 92.6351C204.527 90.3098 203.11 87.1046 202.196 85.8791C195.646 76.9864 192.182 77.7406 192.182 77.7406C192.182 77.7406 192.78 82.5483 197.599 88.99C199.142 91.0639 203.676 94.9918 204.936 95.3374C204.495 99.3596 203.739 103.287 202.7 107.09C202.7 104.701 201.693 100.554 200.905 98.9825C196.024 89.0843 192.466 89.2414 192.466 89.2414C192.466 89.2414 192.214 94.0805 195.835 101.245" fill="#7D792C"/>
<path d="M83.0458 53.5281L81.0334 57.5601C79.9431 56.4721 78.1872 55.9281 75.774 55.9281C73.481 55.9281 71.605 56.8881 70.1378 58.8081C68.6706 60.7281 67.941 63.1521 67.941 66.0961C67.941 69.0401 68.6225 71.3681 69.9774 73.0881C71.3324 74.8081 73.1523 75.6721 75.4212 75.6721C78.0109 75.6721 80.0473 74.7441 81.5064 72.8961L83.7834 76.8321C81.7951 78.9441 78.8767 80.0001 75.0284 80.0001C71.18 80.0001 68.1976 78.7361 66.0649 76.2161C63.9323 73.6961 62.874 70.2481 62.874 65.8881C62.874 61.8241 64.0526 58.4321 66.4177 55.6961C68.7828 52.9601 71.7974 51.6001 75.4854 51.6001C78.6442 51.6001 81.1697 52.2401 83.0618 53.5281H83.0458Z" fill="#74772E"/>
<path d="M105.342 79.536L103.329 73.968H93.8928L91.9766 79.536H86.5488L97.5246 51.696H99.6653L110.729 79.536H105.334H105.342ZM98.591 60.088L95.2878 70.232H101.902L98.599 60.088H98.591Z" fill="#74772E"/>
<path d="M120.406 56.3922V62.8242H130.083V66.9682H120.406V79.5281H115.523V52.0562H133.659V56.3842H120.414L120.406 56.3922Z" fill="#74772E"/>
<path d="M136.521 78.0161L138.325 73.6481C140.258 75.0001 142.15 75.6721 144.018 75.6721C146.888 75.6721 148.323 74.6721 148.323 72.6721C148.323 71.7361 147.986 70.8401 147.305 69.9921C146.623 69.1441 145.236 68.1921 143.128 67.1361C141.019 66.0801 139.592 65.2081 138.863 64.5281C138.133 63.8481 137.564 63.0401 137.171 62.0961C136.778 61.1521 136.578 60.1201 136.578 58.9841C136.578 56.8561 137.355 55.0961 138.919 53.6961C140.482 52.2961 142.478 51.6001 144.924 51.6001C148.107 51.6001 150.44 52.1921 151.931 53.3841L150.448 57.5841C148.732 56.3601 146.92 55.7441 145.02 55.7441C143.889 55.7441 143.016 56.0401 142.398 56.6321C141.781 57.2241 141.468 58.0001 141.468 58.9441C141.468 60.5201 143.216 62.1601 146.712 63.8561C148.556 64.7521 149.878 65.5841 150.696 66.3441C151.514 67.1041 152.131 67.9841 152.556 68.9841C152.981 69.9841 153.198 71.1121 153.198 72.3521C153.198 74.5761 152.316 76.4081 150.56 77.8481C148.804 79.2881 146.439 80.0081 143.489 80.0081C140.923 80.0081 138.606 79.3441 136.538 78.0241L136.521 78.0161Z" fill="#74772E"/>
<path d="M158.666 79.5361V73.8241H156.621V72.6641H162.097V73.8241H160.061V79.5361H158.674H158.666Z" fill="#74772E"/>
<path d="M163.155 79.5361V72.6641H165.24L166.491 77.3521L167.725 72.6641H169.81V79.5361H168.519V74.1281L167.148 79.5361H165.809L164.446 74.1281V79.5361H163.155Z" fill="#74772E"/>
<path d="M92.3528 96.6402L93.9322 97.1362C93.6917 98.0162 93.2908 98.6642 92.7296 99.0882C92.1684 99.5122 91.4548 99.7282 90.589 99.7282C89.5226 99.7282 88.6407 99.3602 87.9512 98.6322C87.2617 97.9042 86.917 96.9042 86.917 95.6402C86.917 94.3042 87.2617 93.2642 87.9512 92.5202C88.6407 91.7762 89.5547 91.4082 90.6852 91.4082C91.6713 91.4082 92.4731 91.6962 93.0904 92.2802C93.4592 92.6242 93.7318 93.1202 93.9162 93.7602L92.3047 94.1442C92.2085 93.7282 92.008 93.4002 91.7114 93.1602C91.4067 92.9202 91.0379 92.8002 90.605 92.8002C90.0037 92.8002 89.5226 93.0162 89.1538 93.4402C88.785 93.8642 88.5926 94.5602 88.5926 95.5202C88.5926 96.5362 88.777 97.2642 89.1458 97.6882C89.5146 98.1122 89.9877 98.3362 90.5729 98.3362C91.0059 98.3362 91.3747 98.2002 91.6873 97.9282C92 97.6562 92.2245 97.2242 92.3608 96.6322L92.3528 96.6402Z" fill="#74772E"/>
<path d="M95.2803 99.6001V91.5601H101.253V92.9201H96.9078V94.7041H100.949V96.0561H96.9078V98.2481H101.406V99.6001H95.2803Z" fill="#74772E"/>
<path d="M102.793 99.6001V91.5601H106.216C107.074 91.5601 107.7 91.6321 108.092 91.7761C108.485 91.9201 108.798 92.1761 109.03 92.5441C109.263 92.9121 109.383 93.3361 109.383 93.8081C109.383 94.4081 109.207 94.9121 108.846 95.3041C108.485 95.6961 107.956 95.9441 107.251 96.0481C107.603 96.2561 107.892 96.4801 108.125 96.7201C108.357 96.9681 108.662 97.4001 109.055 98.0241L110.041 99.5921H108.092L106.914 97.8401C106.497 97.2161 106.208 96.8241 106.056 96.6561C105.904 96.4881 105.735 96.3841 105.567 96.3201C105.399 96.2561 105.126 96.2321 104.749 96.2321H104.42V99.5921H102.793V99.6001ZM104.42 94.9601H105.623C106.401 94.9601 106.89 94.9281 107.082 94.8641C107.275 94.8001 107.427 94.6881 107.539 94.5201C107.652 94.3601 107.708 94.1601 107.708 93.9201C107.708 93.6481 107.635 93.4321 107.491 93.2641C107.347 93.0961 107.138 92.9921 106.882 92.9521C106.754 92.9361 106.353 92.9281 105.695 92.9281H104.429V94.9681L104.42 94.9601Z" fill="#74772E"/>
<path d="M112.685 99.6001V92.9201H110.296V91.5601H116.702V92.9201H114.321V99.6001H112.693H112.685Z" fill="#74772E"/>
<path d="M117.665 99.6001V91.5601H119.293V99.6001H117.665Z" fill="#74772E"/>
<path d="M120.896 99.6001V91.5601H126.419V92.9201H122.523V94.8241H125.89V96.1841H122.523V99.6001H120.896Z" fill="#74772E"/>
<path d="M127.679 99.6001V91.5601H129.306V99.6001H127.679Z" fill="#74772E"/>
<path d="M130.901 99.6001V91.5601H136.874V92.9201H132.529V94.7041H136.57V96.0561H132.529V98.2481H137.027V99.6001H130.901Z" fill="#74772E"/>
<path d="M138.406 91.5601H141.381C142.054 91.5601 142.559 91.6081 142.912 91.7121C143.385 91.8481 143.786 92.0961 144.131 92.4561C144.468 92.8081 144.724 93.2481 144.901 93.7601C145.077 94.2721 145.165 94.9041 145.165 95.6641C145.165 96.3281 145.085 96.8961 144.917 97.3761C144.716 97.9601 144.428 98.4321 144.051 98.8001C143.77 99.0721 143.385 99.2881 142.904 99.4401C142.543 99.5521 142.062 99.6081 141.461 99.6081H138.398V91.5681L138.406 91.5601ZM140.034 92.9201V98.2481H141.245C141.702 98.2481 142.03 98.2241 142.231 98.1681C142.495 98.1041 142.712 97.9921 142.888 97.8321C143.065 97.6721 143.201 97.4161 143.313 97.0561C143.425 96.6961 143.481 96.2081 143.481 95.5841C143.481 94.9601 143.425 94.4881 143.313 94.1521C143.201 93.8161 143.049 93.5601 142.848 93.3761C142.648 93.1921 142.399 93.0641 142.094 93.0001C141.87 92.9521 141.421 92.9201 140.756 92.9201H140.026H140.034Z" fill="#74772E"/>
<path d="M89.4684 114.184H87.6966L86.9911 112.36H83.7681L83.1026 114.184H81.3789L84.5217 106.144H86.2455L89.4684 114.184ZM86.4699 111.008L85.3635 108.024L84.2732 111.008H86.4699Z" fill="#74772E"/>
<path d="M90.1098 114.184V106.144H91.6892L94.9844 111.512V106.144H96.4916V114.184H94.8561L91.609 108.944V114.184H90.0938H90.1098Z" fill="#74772E"/>
<path d="M100.083 114.184V107.504H97.6934V106.144H104.099V107.504H101.718V114.184H100.091H100.083Z" fill="#74772E"/>
<path d="M105.133 114.184V106.144H106.76V114.184H105.133Z" fill="#74772E"/>
<path d="M108.276 112.04V110.496H111.307V112.04H108.276Z" fill="#74772E"/>
<path d="M112.317 114.184V106.144H117.841V107.504H113.945V109.408H117.312V110.768H113.945V114.184H112.317Z" fill="#74772E"/>
<path d="M119.236 114.184V106.144H122.66C123.518 106.144 124.143 106.216 124.536 106.36C124.929 106.504 125.241 106.76 125.474 107.128C125.706 107.496 125.827 107.92 125.827 108.392C125.827 108.992 125.65 109.496 125.289 109.888C124.929 110.28 124.4 110.528 123.694 110.632C124.047 110.84 124.335 111.064 124.568 111.304C124.8 111.552 125.105 111.984 125.498 112.608L126.484 114.176H124.536L123.357 112.424C122.94 111.8 122.652 111.408 122.499 111.24C122.347 111.08 122.179 110.968 122.01 110.904C121.842 110.84 121.569 110.816 121.193 110.816H120.864V114.176H119.236V114.184ZM120.864 109.544H122.066C122.844 109.544 123.333 109.512 123.526 109.448C123.718 109.384 123.87 109.272 123.983 109.104C124.095 108.944 124.151 108.744 124.151 108.504C124.151 108.232 124.079 108.016 123.935 107.848C123.79 107.68 123.582 107.576 123.325 107.536C123.197 107.52 122.796 107.512 122.139 107.512H120.872V109.552L120.864 109.544Z" fill="#74772E"/>
<path d="M134.685 114.184H132.913L132.208 112.36H128.985L128.319 114.184H126.596L129.73 106.144H131.454L134.677 114.184H134.685ZM131.687 111.008L130.58 108.024L129.49 111.008H131.687Z" fill="#74772E"/>
<path d="M135.103 106.144H136.73V110.496C136.73 111.184 136.754 111.632 136.794 111.84C136.866 112.168 137.027 112.432 137.291 112.632C137.556 112.832 137.909 112.928 138.366 112.928C138.823 112.928 139.175 112.832 139.408 112.648C139.64 112.464 139.785 112.232 139.833 111.952C139.881 111.68 139.905 111.224 139.905 110.584V106.136H141.532V110.36C141.532 111.328 141.492 112.008 141.396 112.408C141.308 112.808 141.148 113.144 140.907 113.416C140.667 113.688 140.354 113.912 139.961 114.072C139.568 114.232 139.047 114.32 138.414 114.32C137.644 114.32 137.059 114.232 136.666 114.056C136.265 113.88 135.952 113.648 135.72 113.368C135.487 113.088 135.335 112.784 135.263 112.48C135.159 112.016 135.103 111.336 135.103 110.44V106.152V106.144Z" fill="#74772E"/>
<path d="M143.28 106.144H146.254C146.928 106.144 147.433 106.192 147.785 106.296C148.259 106.432 148.659 106.68 148.996 107.04C149.333 107.392 149.589 107.832 149.766 108.344C149.942 108.856 150.03 109.488 150.03 110.248C150.03 110.912 149.95 111.48 149.782 111.96C149.581 112.544 149.293 113.016 148.916 113.384C148.635 113.656 148.25 113.872 147.769 114.024C147.409 114.136 146.928 114.192 146.326 114.192H143.264V106.152L143.28 106.144ZM144.907 107.504V112.832H146.126C146.583 112.832 146.912 112.808 147.112 112.752C147.377 112.688 147.593 112.576 147.769 112.416C147.946 112.256 148.082 112 148.194 111.64C148.307 111.28 148.363 110.792 148.363 110.168C148.363 109.544 148.307 109.072 148.194 108.736C148.082 108.4 147.93 108.144 147.729 107.96C147.529 107.776 147.28 107.648 146.976 107.584C146.751 107.536 146.302 107.504 145.637 107.504H144.907Z" fill="#74772E"/>
<path d="M83.4223 126.264L85.0017 126.112C85.0979 126.64 85.2903 127.032 85.579 127.28C85.8676 127.528 86.2604 127.656 86.7575 127.656C87.2787 127.656 87.6795 127.544 87.9441 127.32C88.2087 127.096 88.345 126.84 88.345 126.544C88.345 126.352 88.2888 126.192 88.1766 126.056C88.0644 125.92 87.8719 125.808 87.5913 125.704C87.3989 125.64 86.966 125.52 86.2925 125.352C85.4186 125.136 84.8093 124.872 84.4565 124.56C83.9594 124.12 83.7189 123.576 83.7189 122.944C83.7189 122.536 83.8312 122.152 84.0637 121.792C84.2962 121.432 84.6329 121.16 85.0659 120.976C85.5068 120.792 86.036 120.696 86.6533 120.696C87.6635 120.696 88.4251 120.92 88.9383 121.36C89.4514 121.8 89.7159 122.392 89.74 123.128L88.1125 123.2C88.0403 122.784 87.896 122.488 87.6635 122.312C87.431 122.128 87.0943 122.04 86.6292 122.04C86.1642 122.04 85.7874 122.136 85.5228 122.328C85.3545 122.456 85.2663 122.616 85.2663 122.824C85.2663 123.016 85.3465 123.176 85.5068 123.312C85.7153 123.48 86.2123 123.664 86.998 123.848C87.7918 124.032 88.377 124.224 88.7538 124.424C89.1307 124.624 89.4273 124.896 89.6438 125.24C89.8602 125.584 89.9645 126.016 89.9645 126.52C89.9645 126.984 89.8362 127.416 89.5796 127.816C89.3231 128.216 88.9623 128.52 88.4893 128.712C88.0163 128.904 87.439 129.008 86.7335 129.008C85.7153 129.008 84.9296 128.776 84.3844 128.304C83.8392 127.832 83.5105 127.152 83.4062 126.248L83.4223 126.264Z" fill="#74772E"/>
<path d="M91.3359 128.88V120.84H93.9496C94.9357 120.84 95.5852 120.88 95.8818 120.96C96.3468 121.08 96.7316 121.344 97.0443 121.744C97.357 122.152 97.5093 122.672 97.5093 123.312C97.5093 123.808 97.4211 124.224 97.2367 124.56C97.0604 124.896 96.8279 125.16 96.5553 125.352C96.2747 125.544 95.994 125.672 95.7134 125.736C95.3286 125.816 94.7594 125.848 94.0298 125.848H92.9715V128.88H91.344H91.3359ZM92.9635 122.2V124.48H93.8534C94.4948 124.48 94.9197 124.44 95.1362 124.352C95.3526 124.272 95.521 124.136 95.6413 123.96C95.7615 123.784 95.8257 123.576 95.8257 123.336C95.8257 123.04 95.7375 122.8 95.5691 122.608C95.4008 122.416 95.1763 122.296 94.9117 122.248C94.7193 122.208 94.3264 122.192 93.7412 122.192H92.9555L92.9635 122.2Z" fill="#74772E"/>
<path d="M98.8477 128.88V120.84H104.821V122.2H100.475V123.984H104.524V125.336H100.475V127.528H104.981V128.88H98.8557H98.8477Z" fill="#74772E"/>
<path d="M111.508 125.92L113.087 126.416C112.847 127.296 112.446 127.944 111.885 128.368C111.324 128.792 110.61 129.008 109.744 129.008C108.678 129.008 107.796 128.64 107.107 127.912C106.417 127.184 106.072 126.184 106.072 124.92C106.072 123.584 106.417 122.544 107.115 121.8C107.804 121.056 108.718 120.688 109.848 120.688C110.835 120.688 111.636 120.976 112.254 121.56C112.622 121.904 112.895 122.4 113.079 123.04L111.468 123.424C111.372 123.008 111.171 122.68 110.875 122.44C110.57 122.2 110.201 122.08 109.768 122.08C109.167 122.08 108.686 122.296 108.317 122.72C107.948 123.144 107.756 123.84 107.756 124.8C107.756 125.816 107.94 126.544 108.309 126.968C108.678 127.392 109.151 127.616 109.736 127.616C110.169 127.616 110.538 127.48 110.851 127.208C111.163 126.936 111.388 126.504 111.524 125.912L111.508 125.92Z" fill="#74772E"/>
<path d="M114.386 128.88V120.84H116.013V128.88H114.386Z" fill="#74772E"/>
<path d="M124.881 128.88H123.109L122.403 127.056H119.18L118.515 128.88H116.791L119.926 120.84H121.65L124.873 128.88H124.881ZM121.882 125.696L120.776 122.712L119.685 125.696H121.882Z" fill="#74772E"/>
<path d="M125.458 128.88V120.904H127.086V127.52H131.126V128.872H125.458V128.88Z" fill="#74772E"/>
<path d="M132.192 128.88V120.84H133.82V128.88H132.192Z" fill="#74772E"/>
<path d="M135.006 126.264L136.586 126.112C136.682 126.64 136.874 127.032 137.163 127.28C137.452 127.528 137.844 127.656 138.342 127.656C138.863 127.656 139.264 127.544 139.528 127.32C139.793 127.096 139.929 126.84 139.929 126.544C139.929 126.352 139.873 126.192 139.761 126.056C139.648 125.92 139.456 125.808 139.175 125.704C138.983 125.64 138.55 125.52 137.877 125.352C137.003 125.136 136.393 124.872 136.041 124.56C135.543 124.12 135.295 123.576 135.295 122.944C135.295 122.536 135.415 122.152 135.648 121.792C135.88 121.432 136.217 121.16 136.65 120.976C137.091 120.792 137.62 120.696 138.237 120.696C139.247 120.696 140.009 120.92 140.522 121.36C141.035 121.8 141.3 122.392 141.324 123.128L139.696 123.2C139.624 122.784 139.48 122.488 139.247 122.312C139.015 122.128 138.678 122.04 138.213 122.04C137.748 122.04 137.371 122.136 137.107 122.328C136.938 122.456 136.85 122.616 136.85 122.824C136.85 123.016 136.93 123.176 137.091 123.312C137.299 123.48 137.796 123.664 138.582 123.848C139.376 124.032 139.961 124.224 140.338 124.424C140.715 124.624 141.011 124.896 141.228 125.24C141.444 125.584 141.548 126.016 141.548 126.52C141.548 126.984 141.42 127.416 141.164 127.816C140.907 128.216 140.546 128.52 140.073 128.712C139.6 128.904 139.023 129.008 138.317 129.008C137.299 129.008 136.514 128.776 135.968 128.304C135.423 127.832 135.094 127.152 134.99 126.248L135.006 126.264Z" fill="#74772E"/>
<path d="M144.739 128.88V122.2H142.35V120.84H148.756V122.2H146.374V128.88H144.747H144.739Z" fill="#74772E"/>
</svg>
