<svg width="231" height="180" viewBox="0 0 231 180" fill="none" xmlns="http://www.w3.org/2000/svg">
<path d="M47.3574 145.388C91.762 157.21 138.628 157.21 183.033 145.388V36.5364C138.628 24.7147 91.7928 24.7147 47.3574 36.5364V145.419V145.388Z" fill="white"/>
<path d="M45.1113 138.786C45.1113 138.786 45.1728 138.848 45.2036 138.909V136.545C44.1881 135.408 43.2034 134.242 42.2494 133.075C42.9264 132.799 44.465 128.745 45.2036 125.736V113.362C44.9266 112.072 44.6189 111.397 44.6189 111.397C44.6189 111.397 41.2339 112.471 40.0338 123.433C39.8492 125.153 40.3108 129.329 41.0801 131.601C38.6798 128.408 36.5258 124.999 34.6794 121.468C34.7102 121.468 34.741 121.468 34.7717 121.468C35.5718 121.53 38.926 115.603 39.7261 112.901C42.034 105.225 40.957 100.496 40.957 100.496C40.957 100.496 37.4489 100.987 34.3409 111.55C33.8178 113.331 33.5716 117.906 34.0332 120.148C32.2176 116.494 30.679 112.656 29.4789 108.695C30.279 108.91 34.5871 103.628 35.8488 101.141C39.4491 93.9559 39.2337 89.1351 39.2337 89.1351C39.2337 89.1351 35.6949 89.0123 30.8021 98.8688C30.0328 100.435 29.0173 104.611 29.0173 106.975C27.971 103.168 27.2325 99.2679 26.8017 95.2455C28.0633 94.9077 32.5869 90.9774 34.1255 88.9202C38.926 82.472 39.5415 77.6819 39.5415 77.6819C39.5415 77.6819 36.0642 76.9449 29.5404 85.8189C28.6172 87.0778 27.2017 90.2405 26.5555 92.5741C26.2785 88.9509 26.2785 85.2662 26.5247 81.4587C28.1864 80.9981 32.7715 78.2039 34.5255 76.5458C40.3723 71.0495 41.7878 66.4129 41.7878 66.4129C41.7878 66.4129 38.4952 65.0926 30.5251 72.7076C29.5404 73.6594 27.8787 76.0238 26.8017 78.0811C26.9248 77.0064 27.0479 75.9624 27.2017 74.8877C27.5402 72.4926 27.9403 70.1897 28.4018 67.9175C30.1559 67.7333 34.864 65.8602 36.7719 64.6013C42.2802 60.978 44.6497 57.4162 45.2343 56.4336V56.0958C44.5266 55.8195 41.3262 55.0825 33.6024 60.2411C32.4946 60.978 30.4636 63.0353 29.0788 64.8469C29.9097 61.3772 30.8944 58.061 32.0945 54.929C33.2023 55.2975 38.8645 54.1921 41.1416 53.2095C42.711 52.534 44.065 51.8277 45.2343 51.1215V46.3314C43.5726 46.6999 41.4801 47.3447 38.8645 48.5115C37.4182 49.1563 34.4332 51.3364 32.8638 52.9945C34.1255 49.924 35.5718 47.0377 37.2335 44.3048C38.3413 44.7347 42.711 44.6733 45.2343 44.3048V39.1156C45.0497 39.1463 44.8651 39.2077 44.6804 39.2384C43.2649 39.5762 40.3108 41.0193 38.4952 42.309C40.7108 38.9621 43.2341 35.8608 46.1267 32.9745C46.1267 33.0359 46.1267 33.0973 46.1267 33.128C46.1883 33.3736 47.0807 33.6807 48.2808 33.957C53.2044 32.6674 58.128 31.5313 63.0823 30.5487C61.4822 29.996 58.7434 29.5047 54.1583 29.8118C52.5582 29.9039 48.7424 31.0707 47.0191 32.1147C49.3271 29.9039 51.8812 27.8466 54.6507 25.9122C54.8046 26.5263 60.0974 27.5396 62.2823 27.4475C68.6214 27.2325 71.8525 25.2674 71.8525 25.2674C71.8525 25.2674 70.6216 22.7802 61.9438 23.118C60.8667 23.1487 58.6819 23.7014 56.9894 24.3462C58.528 23.3636 60.0974 22.4117 61.7591 21.5213V21.3677C63.1747 21.337 66.5289 20.9993 70.9293 18.8192C72.9603 17.8059 77.1146 14.3054 76.9299 13.6299C76.5914 12.4938 70.6216 13.6299 68.8368 14.459C63.0516 17.2839 61.6053 19.6175 61.236 20.7229C58.7434 21.9511 56.374 23.3329 54.1276 24.8375C55.4508 23.4864 57.174 21.4291 58.7742 18.42C59.9436 16.2706 61.3899 10.4979 60.7744 10.0374C59.7589 9.26971 55.1738 13.9984 54.1583 15.9021C50.2502 23.118 51.235 26.0043 51.6042 26.6798C49.5425 28.2765 47.573 29.996 45.7575 31.8384C46.6191 30.3031 47.5423 28.3686 48.3116 26.0043C49.1424 23.4557 49.604 16.9768 48.8655 16.5777C47.6346 15.9328 43.5726 21.9204 42.8341 24.1619C40.2492 31.8998 41.357 35.0317 41.9725 36.045C40.4031 37.9181 38.9875 39.9139 37.6336 41.9712C38.1259 40.4359 38.5875 38.6243 38.8952 36.4749C39.2645 33.8342 38.5875 27.3553 37.7874 27.1097C36.4642 26.6798 33.5101 33.2815 33.1716 35.6152C31.9714 43.7521 33.6331 46.6078 34.4025 47.4675C33.387 49.4327 32.433 51.4593 31.6022 53.4858C31.7253 52.2576 31.756 50.8759 31.6945 49.3713C31.6022 46.6999 29.8174 40.4359 28.9865 40.3438C27.6018 40.1596 25.8477 47.1605 25.9093 49.5248C26.1247 57.1705 27.971 59.9033 28.9865 60.8245C28.3095 63.066 27.7556 65.3075 27.294 67.5797C27.2017 66.1366 27.0171 64.4785 26.617 62.6361C26.0631 60.0261 23.2321 54.1614 22.3704 54.1921C20.9857 54.2535 20.4626 61.4693 20.9549 63.7722C22.6166 71.8171 25.14 73.9358 26.1862 74.4885C26.1555 74.8263 26.0939 75.1333 26.0631 75.4711C25.817 77.6512 25.6939 79.8006 25.6016 81.8885C25.2631 80.3226 24.7399 78.5416 23.9398 76.5765C22.9244 74.0893 19.1086 68.8387 18.3085 69.0229C16.9545 69.3299 17.693 76.5151 18.5854 78.6952C21.5396 86.1566 24.3707 87.9069 25.5092 88.3367C25.5708 91.0081 25.7246 93.5874 25.9708 96.0746C25.3554 94.5086 24.4937 92.7276 23.2936 90.7932C21.8781 88.521 17.2007 84.0072 16.4314 84.3143C15.1389 84.8363 17.1391 91.7758 18.37 93.8023C22.5551 100.558 25.6016 101.847 26.8324 102.093C27.2633 104.488 27.8172 106.791 28.4326 109.002C27.6018 107.712 26.5555 106.3 25.2323 104.826C23.4475 102.83 18.0623 99.2065 17.3238 99.6364C16.1544 100.373 19.324 106.883 20.8934 108.633C25.9708 114.314 29.1404 115.235 30.4944 115.296C31.2329 117.231 32.033 119.073 32.8946 120.885C32.033 120.025 31.0175 119.104 29.8481 118.213C27.7248 116.555 21.7858 113.915 21.1703 114.467C20.1548 115.419 24.4014 121.253 26.2478 122.727C31.9099 127.21 35.141 127.763 36.6488 127.671C37.7567 129.421 38.8952 131.079 40.0954 132.676C39.1106 132 37.9721 131.294 36.7104 130.618C34.3409 129.359 28.0326 127.793 27.5094 128.438C26.6478 129.544 31.8791 134.549 33.9409 135.685C40.5262 139.247 43.8188 139.093 45.1728 138.694" fill="#4B5155"/>
<path d="M52.0651 148.796C49.7572 148.244 47.48 147.66 45.2029 147.015V141.55C42.4026 140.813 36.5866 140.414 36.2173 141.12C35.5711 142.348 41.5717 146.401 43.8181 147.138C47.5416 148.366 50.188 148.766 52.0651 148.766" fill="#4B5155"/>
<path d="M185.187 141.58V147.046C182.91 147.66 180.602 148.243 178.325 148.796C180.202 148.796 182.849 148.397 186.572 147.169C188.819 146.432 194.819 142.379 194.173 141.15C193.804 140.444 187.988 140.843 185.187 141.58Z" fill="#4B5155"/>
<path d="M213.159 99.7284C212.451 99.2678 207.066 102.922 205.251 104.918C203.897 106.392 202.85 107.804 202.05 109.094C202.666 106.883 203.22 104.58 203.65 102.185C204.881 101.97 207.928 100.68 212.113 93.925C213.344 91.9292 215.344 84.959 214.051 84.437C213.282 84.13 208.605 88.6437 207.189 90.9159C205.989 92.8504 205.127 94.6313 204.512 96.1666C204.758 93.6794 204.943 91.1001 204.974 88.4287C206.143 88.0296 208.943 86.2793 211.897 78.7872C212.759 76.6071 213.528 69.4219 212.174 69.1149C211.344 68.9307 207.528 74.1813 206.543 76.6685C205.743 78.6336 205.22 80.4453 204.881 81.9806C204.789 79.8926 204.635 77.7432 204.389 75.5631C204.358 75.256 204.327 74.9183 204.266 74.6112C205.312 74.0585 207.835 71.9398 209.497 63.8949C209.959 61.592 209.497 54.3762 208.082 54.3148C207.251 54.2841 204.389 60.1181 203.835 62.7281C203.435 64.5704 203.25 66.1979 203.158 67.6717C202.696 65.3995 202.143 63.158 201.466 60.9165C202.481 59.9953 204.327 57.2625 204.543 49.6168C204.604 47.2525 202.85 40.2516 201.466 40.4358C200.635 40.5586 198.85 46.7919 198.758 49.4633C198.696 50.9678 198.758 52.3496 198.85 53.5778C197.988 51.5205 197.065 49.494 196.05 47.5595C196.85 46.6998 198.481 43.8441 197.281 35.6764C196.942 33.3428 193.988 26.7411 192.665 27.171C191.865 27.4166 191.188 33.8955 191.557 36.5362C191.865 38.6856 192.326 40.4972 192.819 42.0325C191.495 39.9752 190.049 37.9794 188.48 36.1063C189.095 35.093 190.203 31.9918 187.618 24.2232C186.879 21.9817 182.818 15.9941 181.587 16.6389C180.848 17.0381 181.31 23.4863 182.14 26.0656C182.91 28.4606 183.833 30.3951 184.695 31.8996C182.879 30.0573 180.91 28.3378 178.848 26.7411C179.217 26.0349 180.202 23.1792 176.294 15.9634C175.278 14.0597 170.662 9.33099 169.678 10.0986C169.062 10.5592 170.509 16.3012 171.678 18.4813C173.278 21.4904 175.001 23.5784 176.325 24.8988C174.078 23.3635 171.709 21.9817 169.216 20.7842C168.847 19.7095 167.401 17.3452 161.615 14.5202C159.831 13.6605 153.83 12.5551 153.491 13.6912C153.276 14.3667 157.461 17.8979 159.492 18.8804C163.862 21.0605 167.247 21.3983 168.631 21.429V21.5825C170.324 22.5037 171.893 23.4556 173.432 24.4382C171.739 23.7933 169.524 23.2714 168.478 23.2099C159.8 22.8722 158.538 25.3593 158.538 25.3593C158.538 25.3593 161.8 27.3245 168.108 27.5394C170.324 27.6009 175.586 26.6183 175.74 26.0042C178.509 27.9386 181.063 29.9959 183.371 32.2067C181.617 31.1627 177.832 30.0266 176.232 29.9038C171.647 29.5967 168.908 30.0573 167.308 30.6407C172.263 31.6233 177.217 32.7594 182.11 34.049C183.31 33.7727 184.202 33.4963 184.264 33.22C184.264 33.1586 184.264 33.1279 184.264 33.0665C187.156 35.9528 189.711 39.0541 191.895 42.401C190.08 41.1113 187.095 39.6682 185.71 39.3304C185.525 39.269 185.341 39.2383 185.156 39.2076V44.3968C187.71 44.796 192.049 44.8267 193.157 44.3968C194.819 47.1296 196.265 50.016 197.527 53.0865C195.957 51.4284 192.972 49.2176 191.557 48.6035C188.91 47.4367 186.818 46.7919 185.187 46.4234V51.2135C186.356 51.9197 187.71 52.626 189.28 53.3015C191.557 54.2841 197.219 55.3895 198.296 55.021C199.496 58.153 200.481 61.4692 201.312 64.9389C199.927 63.1273 197.927 61.07 196.788 60.3331C189.064 55.1745 185.864 55.9115 185.156 56.1878V56.5256C185.741 57.5082 188.11 61.07 193.619 64.6933C195.527 65.9522 200.235 67.7945 201.989 68.0095C202.45 70.251 202.85 72.5846 203.189 74.949C203.343 76.0237 203.466 77.0984 203.589 78.1731C202.512 76.1158 200.85 73.7514 199.865 72.7996C191.895 65.1846 188.603 66.5049 188.603 66.5049C188.603 66.5049 190.018 71.1108 195.865 76.6378C197.619 78.2959 202.173 81.0901 203.866 81.5507C204.112 85.3275 204.112 89.0429 203.835 92.6354C203.189 90.3018 201.773 87.1084 200.85 85.8802C194.326 77.0062 190.849 77.7432 190.849 77.7432C190.849 77.7432 191.465 82.5333 196.265 88.9814C197.804 91.0694 202.327 94.9997 203.589 95.3068C203.158 99.3292 202.42 103.26 201.373 107.036C201.373 104.672 200.358 100.496 199.588 98.9301C194.696 89.0429 191.157 89.1657 191.157 89.1657C191.157 89.1657 190.911 93.9865 194.511 101.172C195.773 103.689 200.081 108.94 200.881 108.725C199.681 112.686 198.173 116.524 196.327 120.178C196.788 117.937 196.542 113.331 196.019 111.581C192.942 101.018 189.403 100.527 189.403 100.527C189.403 100.527 188.326 105.225 190.634 112.932C191.434 115.634 194.788 121.529 195.588 121.499C195.619 121.499 195.65 121.499 195.68 121.499C193.834 125.03 191.68 128.407 189.28 131.632C190.049 129.359 190.541 125.214 190.326 123.495C189.126 112.533 185.741 111.458 185.741 111.458C185.741 111.458 185.464 112.133 185.156 113.423V125.798C185.895 128.807 187.433 132.86 188.11 133.136C187.156 134.334 186.172 135.47 185.156 136.637V139.001C185.156 139.001 185.218 138.94 185.249 138.878C186.603 139.277 189.895 139.4 196.48 135.869C198.573 134.733 203.773 129.728 202.912 128.622C202.389 127.978 196.08 129.544 193.711 130.803C192.418 131.478 191.311 132.184 190.295 132.86C191.495 131.263 192.665 129.574 193.742 127.855C195.219 127.947 198.481 127.394 204.143 122.911C205.989 121.437 210.236 115.603 209.22 114.651C208.605 114.099 202.666 116.739 200.542 118.397C199.373 119.319 198.358 120.209 197.496 121.069C198.358 119.288 199.188 117.415 199.896 115.48C201.281 115.419 204.42 114.498 209.497 108.817C211.067 107.067 214.236 100.557 213.067 99.8205" fill="#4B5155"/>
<path d="M173.74 150.976C172.14 151.191 170.755 151.498 169.494 151.867C170.263 151.375 171.032 150.853 171.802 150.331C170.448 150.638 169.094 150.915 167.74 151.191C167.74 151.222 167.74 151.252 167.74 151.283C164.324 153.463 160.693 155.459 156.877 157.271C158.139 156.165 159.8 154.139 160.877 152.45C159.093 152.757 157.277 153.064 155.492 153.34C155.031 155.613 154.815 157.731 155.185 158.008C151.83 159.512 148.322 160.863 144.722 162.061C146.568 160.556 148.722 158.315 149.461 157.087C150.169 155.95 150.753 154.906 151.246 153.955C148.999 154.262 146.722 154.538 144.445 154.784C143.214 157.209 141.737 161.6 141.737 162.982C141.522 163.043 141.275 163.136 141.06 163.197C140.814 163.258 138.014 163.995 134.013 164.671C135.644 163.228 137.337 161.416 137.983 160.372C139.214 158.345 140.106 156.626 140.721 155.183C138.598 155.398 136.506 155.551 134.382 155.705C134.044 156.196 133.705 156.718 133.367 157.271C132.29 159.052 130.844 163.013 130.382 165.193C130.105 165.224 129.797 165.254 129.52 165.316C129.336 165.316 129.151 165.346 128.936 165.377C113.549 168.386 101.394 165.377 101.394 165.377C101.179 165.377 100.994 165.346 100.81 165.316C100.533 165.285 100.225 165.254 99.9481 165.193C99.4865 163.013 98.0402 159.021 96.9631 157.271C96.6246 156.718 96.2861 156.196 95.9476 155.705C93.8243 155.551 91.7318 155.367 89.6085 155.183C90.224 156.626 91.1164 158.345 92.3473 160.372C92.9935 161.416 94.686 163.258 96.3169 164.671C92.3165 163.995 89.4854 163.258 89.27 163.197C89.0546 163.136 88.8084 163.043 88.593 162.982C88.593 161.6 87.1467 157.209 85.8851 154.784C83.6079 154.538 81.3308 154.262 79.0844 153.955C79.5767 154.906 80.1614 155.95 80.8692 157.087C81.6385 158.315 83.7618 160.587 85.6389 162.061C82.0077 160.863 78.5305 159.512 75.1763 158.008C75.5455 157.762 75.3301 155.643 74.8685 153.34C73.0837 153.064 71.2682 152.757 69.4834 152.45C70.5912 154.108 72.2221 156.135 73.4838 157.271C69.668 155.459 66.0369 153.463 62.6211 151.283C62.6211 151.283 62.6211 151.222 62.6211 151.191C61.2671 150.915 59.9132 150.638 58.5592 150.331C59.3285 150.853 60.0978 151.375 60.8671 151.867C59.6054 151.529 58.1899 151.222 56.6205 150.976C53.9741 150.608 47.4811 151.283 47.2349 152.082C46.8041 153.402 53.4202 156.35 55.7589 156.687C63.1443 157.762 66.1907 156.534 67.3601 155.705C69.8526 157.056 72.3144 158.253 74.6839 159.328C72.9914 159.052 70.9297 158.898 68.5602 158.99C65.883 159.082 59.6054 160.863 59.5131 161.692C59.3285 163.074 66.3446 164.824 68.7141 164.763C76.6226 164.548 79.269 162.583 80.1306 161.6C83.2694 162.828 86.1928 163.78 88.7161 164.517C87.0236 164.241 84.9619 164.087 82.5924 164.18C79.9152 164.272 73.6377 166.053 73.5453 166.882C73.3607 168.263 80.3768 170.014 82.7463 169.952C93.3012 169.645 94.5013 166.237 94.5013 166.237C94.5013 166.237 94.2552 166.083 93.7628 165.899C96.5015 166.575 98.2248 166.851 98.5325 166.912C99.2403 167.035 100.225 167.158 101.425 167.281C116.534 169.952 128.966 167.281 128.966 167.281C130.167 167.158 131.151 167.035 131.859 166.912C132.167 166.882 133.89 166.575 136.629 165.899C136.136 166.114 135.89 166.237 135.89 166.237C135.89 166.237 137.09 169.645 147.645 169.952C150.015 170.014 157.031 168.263 156.846 166.882C156.723 166.053 150.476 164.272 147.799 164.18C145.43 164.087 143.368 164.272 141.675 164.517C144.23 163.78 147.122 162.798 150.261 161.6C151.092 162.583 153.738 164.548 161.677 164.763C164.047 164.824 171.063 163.074 170.878 161.692C170.755 160.863 164.509 159.082 161.831 158.99C159.431 158.898 157.4 159.082 155.708 159.328C158.077 158.253 160.539 157.056 163.031 155.705C164.201 156.534 167.247 157.793 174.633 156.687C176.971 156.35 183.587 153.402 183.157 152.082C182.91 151.283 176.417 150.608 173.771 150.976" fill="#4B5155"/>
<path d="M47.3574 145.388C91.762 157.209 138.628 157.209 183.033 145.388V36.5363C138.628 24.7146 91.7928 24.7146 47.3574 36.5363V145.419V145.388ZM115.211 158.561C91.4851 158.561 67.7288 155.398 44.6495 149.103L43.0801 148.673V33.2508L44.6495 32.8209C90.8081 20.2316 139.613 20.2316 185.772 32.8209L187.341 33.2508V148.673L185.772 149.103C162.692 155.398 138.936 158.561 115.211 158.561Z" fill="#4B5155"/>
<path d="M86.0073 58.7365H88.069L87.0535 55.758L86.038 58.7365H86.0073ZM86.2534 53.6086H87.7921L90.6231 61.5614H89.023L88.5306 60.1796H85.4841L84.9918 61.5614H83.3916L86.2227 53.6086H86.2534Z" fill="#4B5155"/>
<path d="M93.8248 55.0211V60.1796H94.3787C96.1019 60.1796 97.1789 59.0742 97.1789 57.6004C97.1789 56.1265 96.2558 55.0211 94.3171 55.0211H93.8248ZM92.2861 53.6086H94.471C97.1789 53.6086 98.6868 55.3282 98.6868 57.6004C98.6868 59.8726 96.9635 61.5614 94.5325 61.5614H92.2861V53.6086Z" fill="#4B5155"/>
<path d="M99.6709 53.6086H101.24L103.087 59.2585L104.964 53.6086H106.533L103.856 61.5614H102.317L99.6709 53.6086Z" fill="#4B5155"/>
<path d="M109.026 58.7365H111.088L110.072 55.758L109.026 58.7365ZM109.272 53.6086H110.811L113.642 61.5614H112.042L111.549 60.1796H108.503L108.01 61.5614H106.41L109.241 53.6086H109.272Z" fill="#4B5155"/>
<path d="M115.334 53.6086H117.057L120.442 58.9514V53.6086H121.95V61.5614H120.35L116.842 56.0344V61.5614H115.334V53.6086Z" fill="#4B5155"/>
<path d="M123.704 57.5697C123.704 55.2054 125.489 53.4858 127.797 53.4858C129.305 53.4858 130.597 54.2842 131.274 55.451L129.951 56.3108C129.489 55.4817 128.812 54.9904 127.797 54.9904C126.32 54.9904 125.212 56.1265 125.212 57.5697C125.212 59.0129 126.289 60.149 127.766 60.149C128.874 60.149 129.612 59.5041 130.043 58.6751L131.428 59.412C130.72 60.7631 129.397 61.6842 127.828 61.6842C125.366 61.6842 123.735 59.8726 123.735 57.6004" fill="#4B5155"/>
<path d="M133.027 53.6086H137.766V55.0518H134.566V56.8327H137.766V58.2759H134.566V60.1182H137.766V61.5614H133.027V53.6086Z" fill="#4B5155"/>
<path d="M141.182 55.0211V60.1796H141.736C143.459 60.1796 144.536 59.0742 144.536 57.6004C144.536 56.1265 143.613 55.0211 141.675 55.0211H141.182ZM139.644 53.6086H141.828C144.536 53.6086 146.044 55.3282 146.044 57.6004C146.044 59.8726 144.321 61.5614 141.89 61.5614H139.644V53.6086Z" fill="#4B5155"/>
<path d="M62.959 86.7094C62.959 79.0637 68.7134 73.5674 76.1296 73.5674C80.9301 73.5674 85.1151 76.0852 87.3615 79.9234L83.0841 82.6562C81.6378 79.9849 79.3914 78.3882 76.1296 78.3882C71.3598 78.3882 67.821 82.0421 67.821 86.7094C67.821 91.3766 71.3291 94.9692 76.0373 94.9692C79.5453 94.9692 82.0071 92.9426 83.2995 90.2098L87.7615 92.5435C85.5152 96.873 81.2378 99.8207 76.1603 99.8207C68.2211 99.8207 62.9898 93.9866 62.9898 86.6787" fill="#4B5155"/>
<path d="M97.1781 90.3633H103.763L100.471 80.8445L97.1781 90.3633ZM98.009 73.905H102.933L112.01 99.4521H106.933L105.394 94.9998H95.578L94.0394 99.4521H88.9619L98.0398 73.905H98.009Z" fill="#4B5155"/>
<path d="M115.58 73.905H120.411L128.104 84.5599L136.074 73.905H140.66V99.4828H135.798V81.7657L128.074 92.1442L120.442 81.8578V99.4828H115.58V73.905Z" fill="#4B5155"/>
<path d="M144.137 95.2456L148.599 91.7451C149.86 93.9252 151.861 95.1842 154.138 95.1842C156.63 95.1842 157.954 93.5875 157.954 91.8372C157.954 89.7493 155.399 89.0737 152.661 88.214C149.214 87.17 145.398 85.8496 145.398 80.9367C145.398 76.8222 148.968 73.5674 153.922 73.5674C158.107 73.5674 160.477 75.1334 162.539 77.2828L158.507 80.3226C157.461 78.7566 155.953 77.8969 153.953 77.8969C151.676 77.8969 150.445 79.1251 150.445 80.7218C150.445 82.687 152.907 83.3625 155.646 84.2529C159.123 85.3583 163.062 86.9243 163.062 91.8065C163.062 95.8597 159.831 99.79 154.169 99.79C149.522 99.79 146.445 97.8248 144.137 95.2149" fill="#4B5155"/>
<path d="M103.732 111.55H106.225C108.071 111.55 109.148 112.717 109.148 114.222C109.148 115.204 108.656 116.187 107.61 116.586L109.425 119.503H107.702L105.302 115.573H106.04C107.21 115.573 107.61 114.774 107.61 114.222C107.61 113.423 107.179 112.963 106.04 112.963H105.24V119.503H103.732V111.55Z" fill="#4B5155"/>
<path d="M112.071 111.55H110.563V119.503H112.071V111.55Z" fill="#4B5155"/>
<path d="M113.148 118.183L114.533 117.108C114.933 117.783 115.549 118.183 116.256 118.183C117.026 118.183 117.457 117.691 117.457 117.139C117.457 116.494 116.656 116.279 115.826 116.002C114.749 115.665 113.579 115.266 113.579 113.73C113.579 112.471 114.687 111.458 116.226 111.458C117.518 111.458 118.257 111.949 118.903 112.625L117.641 113.577C117.303 113.085 116.841 112.84 116.226 112.84C115.518 112.84 115.149 113.208 115.149 113.73C115.149 114.344 115.918 114.559 116.749 114.836C117.826 115.173 119.057 115.665 119.057 117.2C119.057 118.459 118.041 119.687 116.287 119.687C114.841 119.687 113.887 119.073 113.179 118.244" fill="#4B5155"/>
<path d="M122.627 115.696L121.796 116.74V119.503H120.258V111.55H121.796V114.744L124.381 111.55H126.228L123.704 114.652L126.443 119.503H124.72L122.627 115.696Z" fill="#4B5155"/>
<path d="M76.5605 123.341H78.0684L80.4379 126.657L82.9304 123.341H84.3767V131.294H82.8381V125.798L80.4379 129.022L78.0684 125.828V131.294H76.5605V123.341Z" fill="#4B5155"/>
<path d="M88.0698 128.469H90.1315L89.116 125.49L88.0698 128.469ZM88.3159 123.341H89.8546L92.6856 131.294H91.0854L90.5931 129.912H87.5466L87.0543 131.294H85.4541L88.2852 123.341H88.3159Z" fill="#4B5155"/>
<path d="M93.8242 123.341H95.5475L98.9324 128.715V123.341H100.44V131.294H98.8401L95.3321 125.767V131.294H93.8242V123.341Z" fill="#4B5155"/>
<path d="M104.164 128.469H106.225L105.21 125.49L104.194 128.469H104.164ZM104.41 123.341H105.948L108.779 131.294H107.179L106.687 129.912H103.64L103.148 131.294H101.548L104.379 123.341H104.41Z" fill="#4B5155"/>
<path d="M109.21 127.333C109.21 125.061 110.933 123.249 113.272 123.249C114.934 123.249 116.226 124.078 116.903 125.276L115.58 126.074C115.087 125.183 114.349 124.692 113.303 124.692C111.856 124.692 110.718 125.89 110.718 127.302C110.718 128.715 111.826 129.912 113.333 129.912C114.503 129.912 115.303 129.267 115.58 128.254H113.087V126.811H117.242V127.425C117.242 129.574 115.703 131.417 113.333 131.417C110.841 131.417 109.21 129.544 109.21 127.333Z" fill="#4B5155"/>
<path d="M118.441 123.341H123.18V124.815H119.98V126.596H123.18V128.039H119.98V129.851H123.18V131.294H118.441V123.341Z" fill="#4B5155"/>
<path d="M124.504 123.341H126.012L128.412 126.657L130.905 123.341H132.32V131.294H130.812V125.798L128.412 129.022L126.043 125.828V131.294H124.504V123.341Z" fill="#4B5155"/>
<path d="M133.735 123.341H138.474V124.815H135.274V126.596H138.474V128.039H135.274V129.851H138.474V131.294H133.735V123.341Z" fill="#4B5155"/>
<path d="M139.798 123.341H141.552L144.937 128.715V123.341H146.445V131.294H144.814L141.336 125.767V131.294H139.798V123.341Z" fill="#4B5155"/>
<path d="M149.829 124.784H147.706V123.341H153.46V124.784H151.337V131.294H149.829V124.784Z" fill="#4B5155"/>
<path d="M164.17 98.3162H164.016V97.9477H164.17C164.17 97.9477 164.385 98.0398 164.385 98.132C164.385 98.2241 164.293 98.2855 164.17 98.2855M164.354 98.5004C164.354 98.5004 164.6 98.3162 164.6 98.1627C164.6 97.9477 164.447 97.7942 164.2 97.7942H163.77V98.961H163.985V98.5311H164.077L164.323 98.961H164.6L164.323 98.5311L164.354 98.5004Z" fill="#4B5155"/>
<path d="M164.17 99.2371C163.677 99.2371 163.308 98.8687 163.308 98.3467C163.308 97.8247 163.677 97.4869 164.17 97.4869C164.631 97.4869 165.001 97.8554 165.001 98.3467C165.001 98.838 164.631 99.2371 164.17 99.2371ZM164.17 97.272C163.554 97.272 163.093 97.7633 163.093 98.3467C163.093 98.9301 163.554 99.4521 164.17 99.4521C164.785 99.4521 165.247 98.9608 165.247 98.3467C165.247 97.7326 164.785 97.272 164.17 97.272Z" fill="#4B5155"/>
</svg>
