<svg width="20" height="20" viewBox="0 0 20 20" fill="none" xmlns="http://www.w3.org/2000/svg">
<path d="M6.27347 13.8694H8.18367V10.049H12.0041V13.8694H13.9143V8.13878L10.0939 5.27347L6.27347 8.13878V13.8694ZM6.27347 15.1429C5.92327 15.1429 5.62358 15.0183 5.3744 14.7691C5.1248 14.5195 5 14.2196 5 13.8694V8.13878C5 7.93714 5.04521 7.74612 5.13562 7.56571C5.22562 7.38531 5.3502 7.23673 5.50939 7.12L9.3298 4.25469C9.44653 4.1698 9.56857 4.10612 9.69592 4.06367C9.82327 4.02122 9.95592 4 10.0939 4C10.2318 4 10.3645 4.02122 10.4918 4.06367C10.6192 4.10612 10.7412 4.1698 10.858 4.25469L14.6784 7.12C14.8376 7.23673 14.9624 7.38531 15.0528 7.56571C15.1428 7.74612 15.1878 7.93714 15.1878 8.13878V13.8694C15.1878 14.2196 15.0632 14.5195 14.814 14.7691C14.5644 15.0183 14.2645 15.1429 13.9143 15.1429H10.7306V11.3224H9.45714V15.1429H6.27347Z" fill="#18EAC2"/>
</svg>
