<svg width="24" height="24" viewBox="0 0 24 24" fill="none" xmlns="http://www.w3.org/2000/svg">
<g clip-path="url(#clip0_378_4407)">
<path d="M5.67463 6.68391C5.31939 7.03915 5.31939 7.613 5.67463 7.96824L9.20882 11.5024L5.67463 15.0366C5.31939 15.3919 5.31939 15.9657 5.67463 16.3209C6.02987 16.6762 6.60372 16.6762 6.95897 16.3209L11.1399 12.14C11.4951 11.7848 11.4951 11.211 11.1399 10.8557L6.96807 6.68391C6.61283 6.32867 6.02987 6.32867 5.67463 6.68391Z" fill="#AAAAAA"/>
<path d="M11.6766 6.68384C11.3213 7.03908 11.3213 7.61293 11.6766 7.96817L15.2108 11.5024L11.6766 15.0365C11.3213 15.3918 11.3213 15.9656 11.6766 16.3209C12.0318 16.6761 12.6057 16.6761 12.9609 16.3209L17.1418 12.14C17.4971 11.7847 17.4971 11.2109 17.1418 10.8556L12.9609 6.67473C12.6148 6.3286 12.0318 6.3286 11.6766 6.68384Z" fill="#AAAAAA"/>
</g>
<defs>
<clipPath id="clip0_378_4407">
<rect width="24" height="24" fill="white"/>
</clipPath>
</defs>
</svg>
