<svg width="17" height="14" viewBox="0 0 17 14" fill="none" xmlns="http://www.w3.org/2000/svg">
<path d="M3.79922 12.4H6.19922V7.6H10.9992V12.4H13.3992V5.2L8.59922 1.6L3.79922 5.2V12.4ZM3.79922 14C3.35922 14 2.98269 13.8435 2.66962 13.5304C2.35602 13.2168 2.19922 12.84 2.19922 12.4V5.2C2.19922 4.94667 2.25602 4.70667 2.36962 4.48C2.48269 4.25333 2.63922 4.06667 2.83922 3.92L7.63922 0.32C7.78589 0.213333 7.93922 0.133333 8.09922 0.0799999C8.25922 0.0266666 8.42589 0 8.59922 0C8.77255 0 8.93922 0.0266666 9.09922 0.0799999C9.25922 0.133333 9.41255 0.213333 9.55922 0.32L14.3592 3.92C14.5592 4.06667 14.716 4.25333 14.8296 4.48C14.9427 4.70667 14.9992 4.94667 14.9992 5.2V12.4C14.9992 12.84 14.8427 13.2168 14.5296 13.5304C14.216 13.8435 13.8392 14 13.3992 14H9.39922V9.2H7.79922V14H3.79922Z" fill="#18EAC2"/>
</svg>
